%TF.GenerationSoftware,KiCad,Pcbnew,(5.1.8-0-10_14)*%
%TF.CreationDate,2020-12-28T10:26:33+08:00*%
%TF.ProjectId,HT42B534USB2UART,48543432-4235-4333-9455-534232554152,rev?*%
%TF.SameCoordinates,Original*%
%TF.FileFunction,Copper,L2,Bot*%
%TF.FilePolarity,Positive*%
%FSLAX46Y46*%
G04 Gerber Fmt 4.6, Leading zero omitted, Abs format (unit mm)*
G04 Created by KiCad (PCBNEW (5.1.8-0-10_14)) date 2020-12-28 10:26:33*
%MOMM*%
%LPD*%
G01*
G04 APERTURE LIST*
%TA.AperFunction,ComponentPad*%
%ADD10O,3.500000X1.900000*%
%TD*%
%TA.AperFunction,ComponentPad*%
%ADD11O,1.700000X1.700000*%
%TD*%
%TA.AperFunction,ComponentPad*%
%ADD12R,1.700000X1.700000*%
%TD*%
%TA.AperFunction,ViaPad*%
%ADD13C,0.600000*%
%TD*%
%TA.AperFunction,Conductor*%
%ADD14C,0.152400*%
%TD*%
%TA.AperFunction,Conductor*%
%ADD15C,0.254000*%
%TD*%
%TA.AperFunction,Conductor*%
%ADD16C,0.100000*%
%TD*%
G04 APERTURE END LIST*
D10*
%TO.P,J1,5*%
%TO.N,GND*%
X94700000Y-95870000D03*
X94700000Y-84470000D03*
%TD*%
D11*
%TO.P,J2,6*%
%TO.N,VDD*%
X71120000Y-83820000D03*
%TO.P,J2,5*%
%TO.N,/V33O*%
X71120000Y-86360000D03*
%TO.P,J2,4*%
%TO.N,/TX*%
X71120000Y-88900000D03*
%TO.P,J2,3*%
%TO.N,VDDA*%
X71120000Y-91440000D03*
%TO.P,J2,2*%
%TO.N,/RX*%
X71120000Y-93980000D03*
D12*
%TO.P,J2,1*%
%TO.N,GND*%
X71120000Y-96520000D03*
%TD*%
D13*
%TO.N,GND*%
X76200000Y-92710000D03*
%TO.N,VDD*%
X74930000Y-83820000D03*
X83820000Y-86360000D03*
X71120000Y-83820000D03*
%TO.N,/V33O*%
X73660000Y-86360000D03*
X81280000Y-86360000D03*
%TD*%
D14*
%TO.N,VDD*%
X81280000Y-83820000D02*
X83820000Y-86360000D01*
X74930000Y-83820000D02*
X81280000Y-83820000D01*
X71120000Y-83820000D02*
X74930000Y-83820000D01*
%TO.N,/V33O*%
X73660000Y-86360000D02*
X81280000Y-86360000D01*
%TD*%
D15*
%TO.N,GND*%
X97130001Y-99670000D02*
X69240000Y-99670000D01*
X69240000Y-97370000D01*
X69631928Y-97370000D01*
X69644188Y-97494482D01*
X69680498Y-97614180D01*
X69739463Y-97724494D01*
X69818815Y-97821185D01*
X69915506Y-97900537D01*
X70025820Y-97959502D01*
X70145518Y-97995812D01*
X70270000Y-98008072D01*
X70834250Y-98005000D01*
X70993000Y-97846250D01*
X70993000Y-96647000D01*
X71247000Y-96647000D01*
X71247000Y-97846250D01*
X71405750Y-98005000D01*
X71970000Y-98008072D01*
X72094482Y-97995812D01*
X72214180Y-97959502D01*
X72324494Y-97900537D01*
X72421185Y-97821185D01*
X72500537Y-97724494D01*
X72559502Y-97614180D01*
X72595812Y-97494482D01*
X72608072Y-97370000D01*
X72605000Y-96805750D01*
X72446250Y-96647000D01*
X71247000Y-96647000D01*
X70993000Y-96647000D01*
X69793750Y-96647000D01*
X69635000Y-96805750D01*
X69631928Y-97370000D01*
X69240000Y-97370000D01*
X69240000Y-95670000D01*
X69631928Y-95670000D01*
X69635000Y-96234250D01*
X69793750Y-96393000D01*
X70993000Y-96393000D01*
X70993000Y-96373000D01*
X71247000Y-96373000D01*
X71247000Y-96393000D01*
X72446250Y-96393000D01*
X72596662Y-96242588D01*
X92359414Y-96242588D01*
X92387051Y-96359221D01*
X92511564Y-96644983D01*
X92689434Y-96900962D01*
X92913825Y-97117322D01*
X93176114Y-97285748D01*
X93466222Y-97399768D01*
X93773000Y-97455000D01*
X94573000Y-97455000D01*
X94573000Y-95997000D01*
X94827000Y-95997000D01*
X94827000Y-97455000D01*
X95627000Y-97455000D01*
X95933778Y-97399768D01*
X96223886Y-97285748D01*
X96486175Y-97117322D01*
X96710566Y-96900962D01*
X96888436Y-96644983D01*
X97012949Y-96359221D01*
X97040586Y-96242588D01*
X96920584Y-95997000D01*
X94827000Y-95997000D01*
X94573000Y-95997000D01*
X92479416Y-95997000D01*
X92359414Y-96242588D01*
X72596662Y-96242588D01*
X72605000Y-96234250D01*
X72608072Y-95670000D01*
X72595812Y-95545518D01*
X72581220Y-95497412D01*
X92359414Y-95497412D01*
X92479416Y-95743000D01*
X94573000Y-95743000D01*
X94573000Y-94285000D01*
X94827000Y-94285000D01*
X94827000Y-95743000D01*
X96920584Y-95743000D01*
X97040586Y-95497412D01*
X97012949Y-95380779D01*
X96888436Y-95095017D01*
X96710566Y-94839038D01*
X96486175Y-94622678D01*
X96223886Y-94454252D01*
X95933778Y-94340232D01*
X95627000Y-94285000D01*
X94827000Y-94285000D01*
X94573000Y-94285000D01*
X93773000Y-94285000D01*
X93466222Y-94340232D01*
X93176114Y-94454252D01*
X92913825Y-94622678D01*
X92689434Y-94839038D01*
X92511564Y-95095017D01*
X92387051Y-95380779D01*
X92359414Y-95497412D01*
X72581220Y-95497412D01*
X72559502Y-95425820D01*
X72500537Y-95315506D01*
X72421185Y-95218815D01*
X72324494Y-95139463D01*
X72214180Y-95080498D01*
X72141620Y-95058487D01*
X72273475Y-94926632D01*
X72435990Y-94683411D01*
X72547932Y-94413158D01*
X72605000Y-94126260D01*
X72605000Y-93833740D01*
X72547932Y-93546842D01*
X72435990Y-93276589D01*
X72273475Y-93033368D01*
X72066632Y-92826525D01*
X71892240Y-92710000D01*
X72066632Y-92593475D01*
X72273475Y-92386632D01*
X72295754Y-92353288D01*
X93515000Y-92353288D01*
X93515000Y-92586712D01*
X93560539Y-92815652D01*
X93649866Y-93031308D01*
X93779550Y-93225394D01*
X93944606Y-93390450D01*
X94138692Y-93520134D01*
X94354348Y-93609461D01*
X94583288Y-93655000D01*
X94816712Y-93655000D01*
X95045652Y-93609461D01*
X95261308Y-93520134D01*
X95455394Y-93390450D01*
X95620450Y-93225394D01*
X95750134Y-93031308D01*
X95839461Y-92815652D01*
X95885000Y-92586712D01*
X95885000Y-92353288D01*
X95839461Y-92124348D01*
X95750134Y-91908692D01*
X95620450Y-91714606D01*
X95455394Y-91549550D01*
X95261308Y-91419866D01*
X95045652Y-91330539D01*
X94816712Y-91285000D01*
X94583288Y-91285000D01*
X94354348Y-91330539D01*
X94138692Y-91419866D01*
X93944606Y-91549550D01*
X93779550Y-91714606D01*
X93649866Y-91908692D01*
X93560539Y-92124348D01*
X93515000Y-92353288D01*
X72295754Y-92353288D01*
X72435990Y-92143411D01*
X72547932Y-91873158D01*
X72605000Y-91586260D01*
X72605000Y-91293740D01*
X72547932Y-91006842D01*
X72435990Y-90736589D01*
X72273475Y-90493368D01*
X72066632Y-90286525D01*
X71892240Y-90170000D01*
X72066632Y-90053475D01*
X72273475Y-89846632D01*
X72435990Y-89603411D01*
X72547932Y-89333158D01*
X72605000Y-89046260D01*
X72605000Y-88753740D01*
X72547932Y-88466842D01*
X72435990Y-88196589D01*
X72273475Y-87953368D01*
X72073395Y-87753288D01*
X93515000Y-87753288D01*
X93515000Y-87986712D01*
X93560539Y-88215652D01*
X93649866Y-88431308D01*
X93779550Y-88625394D01*
X93944606Y-88790450D01*
X94138692Y-88920134D01*
X94354348Y-89009461D01*
X94583288Y-89055000D01*
X94816712Y-89055000D01*
X95045652Y-89009461D01*
X95261308Y-88920134D01*
X95455394Y-88790450D01*
X95620450Y-88625394D01*
X95750134Y-88431308D01*
X95839461Y-88215652D01*
X95885000Y-87986712D01*
X95885000Y-87753288D01*
X95839461Y-87524348D01*
X95750134Y-87308692D01*
X95620450Y-87114606D01*
X95455394Y-86949550D01*
X95261308Y-86819866D01*
X95045652Y-86730539D01*
X94816712Y-86685000D01*
X94583288Y-86685000D01*
X94354348Y-86730539D01*
X94138692Y-86819866D01*
X93944606Y-86949550D01*
X93779550Y-87114606D01*
X93649866Y-87308692D01*
X93560539Y-87524348D01*
X93515000Y-87753288D01*
X72073395Y-87753288D01*
X72066632Y-87746525D01*
X71892240Y-87630000D01*
X72066632Y-87513475D01*
X72273475Y-87306632D01*
X72435990Y-87063411D01*
X72547932Y-86793158D01*
X72605000Y-86506260D01*
X72605000Y-86267911D01*
X72725000Y-86267911D01*
X72725000Y-86452089D01*
X72760932Y-86632729D01*
X72831414Y-86802889D01*
X72933738Y-86956028D01*
X73063972Y-87086262D01*
X73217111Y-87188586D01*
X73387271Y-87259068D01*
X73567911Y-87295000D01*
X73752089Y-87295000D01*
X73932729Y-87259068D01*
X74102889Y-87188586D01*
X74256028Y-87086262D01*
X74271090Y-87071200D01*
X80668910Y-87071200D01*
X80683972Y-87086262D01*
X80837111Y-87188586D01*
X81007271Y-87259068D01*
X81187911Y-87295000D01*
X81372089Y-87295000D01*
X81552729Y-87259068D01*
X81722889Y-87188586D01*
X81876028Y-87086262D01*
X82006262Y-86956028D01*
X82108586Y-86802889D01*
X82179068Y-86632729D01*
X82215000Y-86452089D01*
X82215000Y-86267911D01*
X82179068Y-86087271D01*
X82108586Y-85917111D01*
X82006262Y-85763972D01*
X81876028Y-85633738D01*
X81722889Y-85531414D01*
X81552729Y-85460932D01*
X81372089Y-85425000D01*
X81187911Y-85425000D01*
X81007271Y-85460932D01*
X80837111Y-85531414D01*
X80683972Y-85633738D01*
X80668910Y-85648800D01*
X74271090Y-85648800D01*
X74256028Y-85633738D01*
X74102889Y-85531414D01*
X73932729Y-85460932D01*
X73752089Y-85425000D01*
X73567911Y-85425000D01*
X73387271Y-85460932D01*
X73217111Y-85531414D01*
X73063972Y-85633738D01*
X72933738Y-85763972D01*
X72831414Y-85917111D01*
X72760932Y-86087271D01*
X72725000Y-86267911D01*
X72605000Y-86267911D01*
X72605000Y-86213740D01*
X72547932Y-85926842D01*
X72435990Y-85656589D01*
X72273475Y-85413368D01*
X72066632Y-85206525D01*
X71892240Y-85090000D01*
X72066632Y-84973475D01*
X72273475Y-84766632D01*
X72430786Y-84531200D01*
X74318910Y-84531200D01*
X74333972Y-84546262D01*
X74487111Y-84648586D01*
X74657271Y-84719068D01*
X74837911Y-84755000D01*
X75022089Y-84755000D01*
X75202729Y-84719068D01*
X75372889Y-84648586D01*
X75526028Y-84546262D01*
X75541090Y-84531200D01*
X80985413Y-84531200D01*
X82885000Y-86430789D01*
X82885000Y-86452089D01*
X82920932Y-86632729D01*
X82991414Y-86802889D01*
X83093738Y-86956028D01*
X83223972Y-87086262D01*
X83377111Y-87188586D01*
X83547271Y-87259068D01*
X83727911Y-87295000D01*
X83912089Y-87295000D01*
X84092729Y-87259068D01*
X84262889Y-87188586D01*
X84416028Y-87086262D01*
X84546262Y-86956028D01*
X84648586Y-86802889D01*
X84719068Y-86632729D01*
X84755000Y-86452089D01*
X84755000Y-86267911D01*
X84719068Y-86087271D01*
X84648586Y-85917111D01*
X84546262Y-85763972D01*
X84416028Y-85633738D01*
X84262889Y-85531414D01*
X84092729Y-85460932D01*
X83912089Y-85425000D01*
X83890789Y-85425000D01*
X83308377Y-84842588D01*
X92359414Y-84842588D01*
X92387051Y-84959221D01*
X92511564Y-85244983D01*
X92689434Y-85500962D01*
X92913825Y-85717322D01*
X93176114Y-85885748D01*
X93466222Y-85999768D01*
X93773000Y-86055000D01*
X94573000Y-86055000D01*
X94573000Y-84597000D01*
X94827000Y-84597000D01*
X94827000Y-86055000D01*
X95627000Y-86055000D01*
X95933778Y-85999768D01*
X96223886Y-85885748D01*
X96486175Y-85717322D01*
X96710566Y-85500962D01*
X96888436Y-85244983D01*
X97012949Y-84959221D01*
X97040586Y-84842588D01*
X96920584Y-84597000D01*
X94827000Y-84597000D01*
X94573000Y-84597000D01*
X92479416Y-84597000D01*
X92359414Y-84842588D01*
X83308377Y-84842588D01*
X82563201Y-84097412D01*
X92359414Y-84097412D01*
X92479416Y-84343000D01*
X94573000Y-84343000D01*
X94573000Y-82885000D01*
X94827000Y-82885000D01*
X94827000Y-84343000D01*
X96920584Y-84343000D01*
X97040586Y-84097412D01*
X97012949Y-83980779D01*
X96888436Y-83695017D01*
X96710566Y-83439038D01*
X96486175Y-83222678D01*
X96223886Y-83054252D01*
X95933778Y-82940232D01*
X95627000Y-82885000D01*
X94827000Y-82885000D01*
X94573000Y-82885000D01*
X93773000Y-82885000D01*
X93466222Y-82940232D01*
X93176114Y-83054252D01*
X92913825Y-83222678D01*
X92689434Y-83439038D01*
X92511564Y-83695017D01*
X92387051Y-83980779D01*
X92359414Y-84097412D01*
X82563201Y-84097412D01*
X81807602Y-83341815D01*
X81785327Y-83314673D01*
X81677033Y-83225798D01*
X81553481Y-83159758D01*
X81419420Y-83119091D01*
X81314936Y-83108800D01*
X81314926Y-83108800D01*
X81280000Y-83105360D01*
X81245074Y-83108800D01*
X75541090Y-83108800D01*
X75526028Y-83093738D01*
X75372889Y-82991414D01*
X75202729Y-82920932D01*
X75022089Y-82885000D01*
X74837911Y-82885000D01*
X74657271Y-82920932D01*
X74487111Y-82991414D01*
X74333972Y-83093738D01*
X74318910Y-83108800D01*
X72430786Y-83108800D01*
X72273475Y-82873368D01*
X72066632Y-82666525D01*
X71823411Y-82504010D01*
X71553158Y-82392068D01*
X71266260Y-82335000D01*
X70973740Y-82335000D01*
X70686842Y-82392068D01*
X70416589Y-82504010D01*
X70173368Y-82666525D01*
X69966525Y-82873368D01*
X69804010Y-83116589D01*
X69692068Y-83386842D01*
X69635000Y-83673740D01*
X69635000Y-83966260D01*
X69692068Y-84253158D01*
X69804010Y-84523411D01*
X69966525Y-84766632D01*
X70173368Y-84973475D01*
X70347760Y-85090000D01*
X70173368Y-85206525D01*
X69966525Y-85413368D01*
X69804010Y-85656589D01*
X69692068Y-85926842D01*
X69635000Y-86213740D01*
X69635000Y-86506260D01*
X69692068Y-86793158D01*
X69804010Y-87063411D01*
X69966525Y-87306632D01*
X70173368Y-87513475D01*
X70347760Y-87630000D01*
X70173368Y-87746525D01*
X69966525Y-87953368D01*
X69804010Y-88196589D01*
X69692068Y-88466842D01*
X69635000Y-88753740D01*
X69635000Y-89046260D01*
X69692068Y-89333158D01*
X69804010Y-89603411D01*
X69966525Y-89846632D01*
X70173368Y-90053475D01*
X70347760Y-90170000D01*
X70173368Y-90286525D01*
X69966525Y-90493368D01*
X69804010Y-90736589D01*
X69692068Y-91006842D01*
X69635000Y-91293740D01*
X69635000Y-91586260D01*
X69692068Y-91873158D01*
X69804010Y-92143411D01*
X69966525Y-92386632D01*
X70173368Y-92593475D01*
X70347760Y-92710000D01*
X70173368Y-92826525D01*
X69966525Y-93033368D01*
X69804010Y-93276589D01*
X69692068Y-93546842D01*
X69635000Y-93833740D01*
X69635000Y-94126260D01*
X69692068Y-94413158D01*
X69804010Y-94683411D01*
X69966525Y-94926632D01*
X70098380Y-95058487D01*
X70025820Y-95080498D01*
X69915506Y-95139463D01*
X69818815Y-95218815D01*
X69739463Y-95315506D01*
X69680498Y-95425820D01*
X69644188Y-95545518D01*
X69631928Y-95670000D01*
X69240000Y-95670000D01*
X69240000Y-80670000D01*
X97130000Y-80670000D01*
X97130001Y-99670000D01*
%TA.AperFunction,Conductor*%
D16*
G36*
X97130001Y-99670000D02*
G01*
X69240000Y-99670000D01*
X69240000Y-97370000D01*
X69631928Y-97370000D01*
X69644188Y-97494482D01*
X69680498Y-97614180D01*
X69739463Y-97724494D01*
X69818815Y-97821185D01*
X69915506Y-97900537D01*
X70025820Y-97959502D01*
X70145518Y-97995812D01*
X70270000Y-98008072D01*
X70834250Y-98005000D01*
X70993000Y-97846250D01*
X70993000Y-96647000D01*
X71247000Y-96647000D01*
X71247000Y-97846250D01*
X71405750Y-98005000D01*
X71970000Y-98008072D01*
X72094482Y-97995812D01*
X72214180Y-97959502D01*
X72324494Y-97900537D01*
X72421185Y-97821185D01*
X72500537Y-97724494D01*
X72559502Y-97614180D01*
X72595812Y-97494482D01*
X72608072Y-97370000D01*
X72605000Y-96805750D01*
X72446250Y-96647000D01*
X71247000Y-96647000D01*
X70993000Y-96647000D01*
X69793750Y-96647000D01*
X69635000Y-96805750D01*
X69631928Y-97370000D01*
X69240000Y-97370000D01*
X69240000Y-95670000D01*
X69631928Y-95670000D01*
X69635000Y-96234250D01*
X69793750Y-96393000D01*
X70993000Y-96393000D01*
X70993000Y-96373000D01*
X71247000Y-96373000D01*
X71247000Y-96393000D01*
X72446250Y-96393000D01*
X72596662Y-96242588D01*
X92359414Y-96242588D01*
X92387051Y-96359221D01*
X92511564Y-96644983D01*
X92689434Y-96900962D01*
X92913825Y-97117322D01*
X93176114Y-97285748D01*
X93466222Y-97399768D01*
X93773000Y-97455000D01*
X94573000Y-97455000D01*
X94573000Y-95997000D01*
X94827000Y-95997000D01*
X94827000Y-97455000D01*
X95627000Y-97455000D01*
X95933778Y-97399768D01*
X96223886Y-97285748D01*
X96486175Y-97117322D01*
X96710566Y-96900962D01*
X96888436Y-96644983D01*
X97012949Y-96359221D01*
X97040586Y-96242588D01*
X96920584Y-95997000D01*
X94827000Y-95997000D01*
X94573000Y-95997000D01*
X92479416Y-95997000D01*
X92359414Y-96242588D01*
X72596662Y-96242588D01*
X72605000Y-96234250D01*
X72608072Y-95670000D01*
X72595812Y-95545518D01*
X72581220Y-95497412D01*
X92359414Y-95497412D01*
X92479416Y-95743000D01*
X94573000Y-95743000D01*
X94573000Y-94285000D01*
X94827000Y-94285000D01*
X94827000Y-95743000D01*
X96920584Y-95743000D01*
X97040586Y-95497412D01*
X97012949Y-95380779D01*
X96888436Y-95095017D01*
X96710566Y-94839038D01*
X96486175Y-94622678D01*
X96223886Y-94454252D01*
X95933778Y-94340232D01*
X95627000Y-94285000D01*
X94827000Y-94285000D01*
X94573000Y-94285000D01*
X93773000Y-94285000D01*
X93466222Y-94340232D01*
X93176114Y-94454252D01*
X92913825Y-94622678D01*
X92689434Y-94839038D01*
X92511564Y-95095017D01*
X92387051Y-95380779D01*
X92359414Y-95497412D01*
X72581220Y-95497412D01*
X72559502Y-95425820D01*
X72500537Y-95315506D01*
X72421185Y-95218815D01*
X72324494Y-95139463D01*
X72214180Y-95080498D01*
X72141620Y-95058487D01*
X72273475Y-94926632D01*
X72435990Y-94683411D01*
X72547932Y-94413158D01*
X72605000Y-94126260D01*
X72605000Y-93833740D01*
X72547932Y-93546842D01*
X72435990Y-93276589D01*
X72273475Y-93033368D01*
X72066632Y-92826525D01*
X71892240Y-92710000D01*
X72066632Y-92593475D01*
X72273475Y-92386632D01*
X72295754Y-92353288D01*
X93515000Y-92353288D01*
X93515000Y-92586712D01*
X93560539Y-92815652D01*
X93649866Y-93031308D01*
X93779550Y-93225394D01*
X93944606Y-93390450D01*
X94138692Y-93520134D01*
X94354348Y-93609461D01*
X94583288Y-93655000D01*
X94816712Y-93655000D01*
X95045652Y-93609461D01*
X95261308Y-93520134D01*
X95455394Y-93390450D01*
X95620450Y-93225394D01*
X95750134Y-93031308D01*
X95839461Y-92815652D01*
X95885000Y-92586712D01*
X95885000Y-92353288D01*
X95839461Y-92124348D01*
X95750134Y-91908692D01*
X95620450Y-91714606D01*
X95455394Y-91549550D01*
X95261308Y-91419866D01*
X95045652Y-91330539D01*
X94816712Y-91285000D01*
X94583288Y-91285000D01*
X94354348Y-91330539D01*
X94138692Y-91419866D01*
X93944606Y-91549550D01*
X93779550Y-91714606D01*
X93649866Y-91908692D01*
X93560539Y-92124348D01*
X93515000Y-92353288D01*
X72295754Y-92353288D01*
X72435990Y-92143411D01*
X72547932Y-91873158D01*
X72605000Y-91586260D01*
X72605000Y-91293740D01*
X72547932Y-91006842D01*
X72435990Y-90736589D01*
X72273475Y-90493368D01*
X72066632Y-90286525D01*
X71892240Y-90170000D01*
X72066632Y-90053475D01*
X72273475Y-89846632D01*
X72435990Y-89603411D01*
X72547932Y-89333158D01*
X72605000Y-89046260D01*
X72605000Y-88753740D01*
X72547932Y-88466842D01*
X72435990Y-88196589D01*
X72273475Y-87953368D01*
X72073395Y-87753288D01*
X93515000Y-87753288D01*
X93515000Y-87986712D01*
X93560539Y-88215652D01*
X93649866Y-88431308D01*
X93779550Y-88625394D01*
X93944606Y-88790450D01*
X94138692Y-88920134D01*
X94354348Y-89009461D01*
X94583288Y-89055000D01*
X94816712Y-89055000D01*
X95045652Y-89009461D01*
X95261308Y-88920134D01*
X95455394Y-88790450D01*
X95620450Y-88625394D01*
X95750134Y-88431308D01*
X95839461Y-88215652D01*
X95885000Y-87986712D01*
X95885000Y-87753288D01*
X95839461Y-87524348D01*
X95750134Y-87308692D01*
X95620450Y-87114606D01*
X95455394Y-86949550D01*
X95261308Y-86819866D01*
X95045652Y-86730539D01*
X94816712Y-86685000D01*
X94583288Y-86685000D01*
X94354348Y-86730539D01*
X94138692Y-86819866D01*
X93944606Y-86949550D01*
X93779550Y-87114606D01*
X93649866Y-87308692D01*
X93560539Y-87524348D01*
X93515000Y-87753288D01*
X72073395Y-87753288D01*
X72066632Y-87746525D01*
X71892240Y-87630000D01*
X72066632Y-87513475D01*
X72273475Y-87306632D01*
X72435990Y-87063411D01*
X72547932Y-86793158D01*
X72605000Y-86506260D01*
X72605000Y-86267911D01*
X72725000Y-86267911D01*
X72725000Y-86452089D01*
X72760932Y-86632729D01*
X72831414Y-86802889D01*
X72933738Y-86956028D01*
X73063972Y-87086262D01*
X73217111Y-87188586D01*
X73387271Y-87259068D01*
X73567911Y-87295000D01*
X73752089Y-87295000D01*
X73932729Y-87259068D01*
X74102889Y-87188586D01*
X74256028Y-87086262D01*
X74271090Y-87071200D01*
X80668910Y-87071200D01*
X80683972Y-87086262D01*
X80837111Y-87188586D01*
X81007271Y-87259068D01*
X81187911Y-87295000D01*
X81372089Y-87295000D01*
X81552729Y-87259068D01*
X81722889Y-87188586D01*
X81876028Y-87086262D01*
X82006262Y-86956028D01*
X82108586Y-86802889D01*
X82179068Y-86632729D01*
X82215000Y-86452089D01*
X82215000Y-86267911D01*
X82179068Y-86087271D01*
X82108586Y-85917111D01*
X82006262Y-85763972D01*
X81876028Y-85633738D01*
X81722889Y-85531414D01*
X81552729Y-85460932D01*
X81372089Y-85425000D01*
X81187911Y-85425000D01*
X81007271Y-85460932D01*
X80837111Y-85531414D01*
X80683972Y-85633738D01*
X80668910Y-85648800D01*
X74271090Y-85648800D01*
X74256028Y-85633738D01*
X74102889Y-85531414D01*
X73932729Y-85460932D01*
X73752089Y-85425000D01*
X73567911Y-85425000D01*
X73387271Y-85460932D01*
X73217111Y-85531414D01*
X73063972Y-85633738D01*
X72933738Y-85763972D01*
X72831414Y-85917111D01*
X72760932Y-86087271D01*
X72725000Y-86267911D01*
X72605000Y-86267911D01*
X72605000Y-86213740D01*
X72547932Y-85926842D01*
X72435990Y-85656589D01*
X72273475Y-85413368D01*
X72066632Y-85206525D01*
X71892240Y-85090000D01*
X72066632Y-84973475D01*
X72273475Y-84766632D01*
X72430786Y-84531200D01*
X74318910Y-84531200D01*
X74333972Y-84546262D01*
X74487111Y-84648586D01*
X74657271Y-84719068D01*
X74837911Y-84755000D01*
X75022089Y-84755000D01*
X75202729Y-84719068D01*
X75372889Y-84648586D01*
X75526028Y-84546262D01*
X75541090Y-84531200D01*
X80985413Y-84531200D01*
X82885000Y-86430789D01*
X82885000Y-86452089D01*
X82920932Y-86632729D01*
X82991414Y-86802889D01*
X83093738Y-86956028D01*
X83223972Y-87086262D01*
X83377111Y-87188586D01*
X83547271Y-87259068D01*
X83727911Y-87295000D01*
X83912089Y-87295000D01*
X84092729Y-87259068D01*
X84262889Y-87188586D01*
X84416028Y-87086262D01*
X84546262Y-86956028D01*
X84648586Y-86802889D01*
X84719068Y-86632729D01*
X84755000Y-86452089D01*
X84755000Y-86267911D01*
X84719068Y-86087271D01*
X84648586Y-85917111D01*
X84546262Y-85763972D01*
X84416028Y-85633738D01*
X84262889Y-85531414D01*
X84092729Y-85460932D01*
X83912089Y-85425000D01*
X83890789Y-85425000D01*
X83308377Y-84842588D01*
X92359414Y-84842588D01*
X92387051Y-84959221D01*
X92511564Y-85244983D01*
X92689434Y-85500962D01*
X92913825Y-85717322D01*
X93176114Y-85885748D01*
X93466222Y-85999768D01*
X93773000Y-86055000D01*
X94573000Y-86055000D01*
X94573000Y-84597000D01*
X94827000Y-84597000D01*
X94827000Y-86055000D01*
X95627000Y-86055000D01*
X95933778Y-85999768D01*
X96223886Y-85885748D01*
X96486175Y-85717322D01*
X96710566Y-85500962D01*
X96888436Y-85244983D01*
X97012949Y-84959221D01*
X97040586Y-84842588D01*
X96920584Y-84597000D01*
X94827000Y-84597000D01*
X94573000Y-84597000D01*
X92479416Y-84597000D01*
X92359414Y-84842588D01*
X83308377Y-84842588D01*
X82563201Y-84097412D01*
X92359414Y-84097412D01*
X92479416Y-84343000D01*
X94573000Y-84343000D01*
X94573000Y-82885000D01*
X94827000Y-82885000D01*
X94827000Y-84343000D01*
X96920584Y-84343000D01*
X97040586Y-84097412D01*
X97012949Y-83980779D01*
X96888436Y-83695017D01*
X96710566Y-83439038D01*
X96486175Y-83222678D01*
X96223886Y-83054252D01*
X95933778Y-82940232D01*
X95627000Y-82885000D01*
X94827000Y-82885000D01*
X94573000Y-82885000D01*
X93773000Y-82885000D01*
X93466222Y-82940232D01*
X93176114Y-83054252D01*
X92913825Y-83222678D01*
X92689434Y-83439038D01*
X92511564Y-83695017D01*
X92387051Y-83980779D01*
X92359414Y-84097412D01*
X82563201Y-84097412D01*
X81807602Y-83341815D01*
X81785327Y-83314673D01*
X81677033Y-83225798D01*
X81553481Y-83159758D01*
X81419420Y-83119091D01*
X81314936Y-83108800D01*
X81314926Y-83108800D01*
X81280000Y-83105360D01*
X81245074Y-83108800D01*
X75541090Y-83108800D01*
X75526028Y-83093738D01*
X75372889Y-82991414D01*
X75202729Y-82920932D01*
X75022089Y-82885000D01*
X74837911Y-82885000D01*
X74657271Y-82920932D01*
X74487111Y-82991414D01*
X74333972Y-83093738D01*
X74318910Y-83108800D01*
X72430786Y-83108800D01*
X72273475Y-82873368D01*
X72066632Y-82666525D01*
X71823411Y-82504010D01*
X71553158Y-82392068D01*
X71266260Y-82335000D01*
X70973740Y-82335000D01*
X70686842Y-82392068D01*
X70416589Y-82504010D01*
X70173368Y-82666525D01*
X69966525Y-82873368D01*
X69804010Y-83116589D01*
X69692068Y-83386842D01*
X69635000Y-83673740D01*
X69635000Y-83966260D01*
X69692068Y-84253158D01*
X69804010Y-84523411D01*
X69966525Y-84766632D01*
X70173368Y-84973475D01*
X70347760Y-85090000D01*
X70173368Y-85206525D01*
X69966525Y-85413368D01*
X69804010Y-85656589D01*
X69692068Y-85926842D01*
X69635000Y-86213740D01*
X69635000Y-86506260D01*
X69692068Y-86793158D01*
X69804010Y-87063411D01*
X69966525Y-87306632D01*
X70173368Y-87513475D01*
X70347760Y-87630000D01*
X70173368Y-87746525D01*
X69966525Y-87953368D01*
X69804010Y-88196589D01*
X69692068Y-88466842D01*
X69635000Y-88753740D01*
X69635000Y-89046260D01*
X69692068Y-89333158D01*
X69804010Y-89603411D01*
X69966525Y-89846632D01*
X70173368Y-90053475D01*
X70347760Y-90170000D01*
X70173368Y-90286525D01*
X69966525Y-90493368D01*
X69804010Y-90736589D01*
X69692068Y-91006842D01*
X69635000Y-91293740D01*
X69635000Y-91586260D01*
X69692068Y-91873158D01*
X69804010Y-92143411D01*
X69966525Y-92386632D01*
X70173368Y-92593475D01*
X70347760Y-92710000D01*
X70173368Y-92826525D01*
X69966525Y-93033368D01*
X69804010Y-93276589D01*
X69692068Y-93546842D01*
X69635000Y-93833740D01*
X69635000Y-94126260D01*
X69692068Y-94413158D01*
X69804010Y-94683411D01*
X69966525Y-94926632D01*
X70098380Y-95058487D01*
X70025820Y-95080498D01*
X69915506Y-95139463D01*
X69818815Y-95218815D01*
X69739463Y-95315506D01*
X69680498Y-95425820D01*
X69644188Y-95545518D01*
X69631928Y-95670000D01*
X69240000Y-95670000D01*
X69240000Y-80670000D01*
X97130000Y-80670000D01*
X97130001Y-99670000D01*
G37*
%TD.AperFunction*%
%TD*%
M02*
