%TF.GenerationSoftware,KiCad,Pcbnew,(5.1.8-0-10_14)*%
%TF.CreationDate,2020-12-28T10:26:33+08:00*%
%TF.ProjectId,HT42B534USB2UART,48543432-4235-4333-9455-534232554152,rev?*%
%TF.SameCoordinates,Original*%
%TF.FileFunction,Soldermask,Top*%
%TF.FilePolarity,Negative*%
%FSLAX46Y46*%
G04 Gerber Fmt 4.6, Leading zero omitted, Abs format (unit mm)*
G04 Created by KiCad (PCBNEW (5.1.8-0-10_14)) date 2020-12-28 10:26:33*
%MOMM*%
%LPD*%
G01*
G04 APERTURE LIST*
%ADD10C,1.100000*%
%ADD11O,3.500000X1.900000*%
%ADD12R,2.500000X1.100000*%
%ADD13O,1.700000X1.700000*%
%ADD14R,1.700000X1.700000*%
G04 APERTURE END LIST*
%TO.C,C6*%
G36*
G01*
X87955000Y-86597500D02*
X87955000Y-86122500D01*
G75*
G02*
X88192500Y-85885000I237500J0D01*
G01*
X88792500Y-85885000D01*
G75*
G02*
X89030000Y-86122500I0J-237500D01*
G01*
X89030000Y-86597500D01*
G75*
G02*
X88792500Y-86835000I-237500J0D01*
G01*
X88192500Y-86835000D01*
G75*
G02*
X87955000Y-86597500I0J237500D01*
G01*
G37*
G36*
G01*
X86230000Y-86597500D02*
X86230000Y-86122500D01*
G75*
G02*
X86467500Y-85885000I237500J0D01*
G01*
X87067500Y-85885000D01*
G75*
G02*
X87305000Y-86122500I0J-237500D01*
G01*
X87305000Y-86597500D01*
G75*
G02*
X87067500Y-86835000I-237500J0D01*
G01*
X86467500Y-86835000D01*
G75*
G02*
X86230000Y-86597500I0J237500D01*
G01*
G37*
%TD*%
%TO.C,D1*%
G36*
G01*
X83187500Y-96870000D02*
X83662500Y-96870000D01*
G75*
G02*
X83900000Y-97107500I0J-237500D01*
G01*
X83900000Y-97682500D01*
G75*
G02*
X83662500Y-97920000I-237500J0D01*
G01*
X83187500Y-97920000D01*
G75*
G02*
X82950000Y-97682500I0J237500D01*
G01*
X82950000Y-97107500D01*
G75*
G02*
X83187500Y-96870000I237500J0D01*
G01*
G37*
G36*
G01*
X83187500Y-95120000D02*
X83662500Y-95120000D01*
G75*
G02*
X83900000Y-95357500I0J-237500D01*
G01*
X83900000Y-95932500D01*
G75*
G02*
X83662500Y-96170000I-237500J0D01*
G01*
X83187500Y-96170000D01*
G75*
G02*
X82950000Y-95932500I0J237500D01*
G01*
X82950000Y-95357500D01*
G75*
G02*
X83187500Y-95120000I237500J0D01*
G01*
G37*
%TD*%
%TO.C,C2*%
G36*
G01*
X83582500Y-84145000D02*
X84057500Y-84145000D01*
G75*
G02*
X84295000Y-84382500I0J-237500D01*
G01*
X84295000Y-84982500D01*
G75*
G02*
X84057500Y-85220000I-237500J0D01*
G01*
X83582500Y-85220000D01*
G75*
G02*
X83345000Y-84982500I0J237500D01*
G01*
X83345000Y-84382500D01*
G75*
G02*
X83582500Y-84145000I237500J0D01*
G01*
G37*
G36*
G01*
X83582500Y-82420000D02*
X84057500Y-82420000D01*
G75*
G02*
X84295000Y-82657500I0J-237500D01*
G01*
X84295000Y-83257500D01*
G75*
G02*
X84057500Y-83495000I-237500J0D01*
G01*
X83582500Y-83495000D01*
G75*
G02*
X83345000Y-83257500I0J237500D01*
G01*
X83345000Y-82657500D01*
G75*
G02*
X83582500Y-82420000I237500J0D01*
G01*
G37*
%TD*%
%TO.C,C3*%
G36*
G01*
X75255000Y-87867500D02*
X75255000Y-87392500D01*
G75*
G02*
X75492500Y-87155000I237500J0D01*
G01*
X76092500Y-87155000D01*
G75*
G02*
X76330000Y-87392500I0J-237500D01*
G01*
X76330000Y-87867500D01*
G75*
G02*
X76092500Y-88105000I-237500J0D01*
G01*
X75492500Y-88105000D01*
G75*
G02*
X75255000Y-87867500I0J237500D01*
G01*
G37*
G36*
G01*
X73530000Y-87867500D02*
X73530000Y-87392500D01*
G75*
G02*
X73767500Y-87155000I237500J0D01*
G01*
X74367500Y-87155000D01*
G75*
G02*
X74605000Y-87392500I0J-237500D01*
G01*
X74605000Y-87867500D01*
G75*
G02*
X74367500Y-88105000I-237500J0D01*
G01*
X73767500Y-88105000D01*
G75*
G02*
X73530000Y-87867500I0J237500D01*
G01*
G37*
%TD*%
%TO.C,R1*%
G36*
G01*
X88055000Y-89137500D02*
X88055000Y-88662500D01*
G75*
G02*
X88292500Y-88425000I237500J0D01*
G01*
X88792500Y-88425000D01*
G75*
G02*
X89030000Y-88662500I0J-237500D01*
G01*
X89030000Y-89137500D01*
G75*
G02*
X88792500Y-89375000I-237500J0D01*
G01*
X88292500Y-89375000D01*
G75*
G02*
X88055000Y-89137500I0J237500D01*
G01*
G37*
G36*
G01*
X86230000Y-89137500D02*
X86230000Y-88662500D01*
G75*
G02*
X86467500Y-88425000I237500J0D01*
G01*
X86967500Y-88425000D01*
G75*
G02*
X87205000Y-88662500I0J-237500D01*
G01*
X87205000Y-89137500D01*
G75*
G02*
X86967500Y-89375000I-237500J0D01*
G01*
X86467500Y-89375000D01*
G75*
G02*
X86230000Y-89137500I0J237500D01*
G01*
G37*
%TD*%
%TO.C,R3*%
G36*
G01*
X79772500Y-96945000D02*
X80247500Y-96945000D01*
G75*
G02*
X80485000Y-97182500I0J-237500D01*
G01*
X80485000Y-97682500D01*
G75*
G02*
X80247500Y-97920000I-237500J0D01*
G01*
X79772500Y-97920000D01*
G75*
G02*
X79535000Y-97682500I0J237500D01*
G01*
X79535000Y-97182500D01*
G75*
G02*
X79772500Y-96945000I237500J0D01*
G01*
G37*
G36*
G01*
X79772500Y-95120000D02*
X80247500Y-95120000D01*
G75*
G02*
X80485000Y-95357500I0J-237500D01*
G01*
X80485000Y-95857500D01*
G75*
G02*
X80247500Y-96095000I-237500J0D01*
G01*
X79772500Y-96095000D01*
G75*
G02*
X79535000Y-95857500I0J237500D01*
G01*
X79535000Y-95357500D01*
G75*
G02*
X79772500Y-95120000I237500J0D01*
G01*
G37*
%TD*%
%TO.C,R2*%
G36*
G01*
X88055000Y-91677500D02*
X88055000Y-91202500D01*
G75*
G02*
X88292500Y-90965000I237500J0D01*
G01*
X88792500Y-90965000D01*
G75*
G02*
X89030000Y-91202500I0J-237500D01*
G01*
X89030000Y-91677500D01*
G75*
G02*
X88792500Y-91915000I-237500J0D01*
G01*
X88292500Y-91915000D01*
G75*
G02*
X88055000Y-91677500I0J237500D01*
G01*
G37*
G36*
G01*
X86230000Y-91677500D02*
X86230000Y-91202500D01*
G75*
G02*
X86467500Y-90965000I237500J0D01*
G01*
X86967500Y-90965000D01*
G75*
G02*
X87205000Y-91202500I0J-237500D01*
G01*
X87205000Y-91677500D01*
G75*
G02*
X86967500Y-91915000I-237500J0D01*
G01*
X86467500Y-91915000D01*
G75*
G02*
X86230000Y-91677500I0J237500D01*
G01*
G37*
%TD*%
D10*
%TO.C,J1*%
X94700000Y-92470000D03*
X94700000Y-87870000D03*
D11*
X94700000Y-95870000D03*
X94700000Y-84470000D03*
D12*
X91950000Y-93670000D03*
X91950000Y-86670000D03*
X91950000Y-91170000D03*
X91950000Y-89170000D03*
%TD*%
%TO.C,C7*%
G36*
G01*
X87955000Y-94217500D02*
X87955000Y-93742500D01*
G75*
G02*
X88192500Y-93505000I237500J0D01*
G01*
X88792500Y-93505000D01*
G75*
G02*
X89030000Y-93742500I0J-237500D01*
G01*
X89030000Y-94217500D01*
G75*
G02*
X88792500Y-94455000I-237500J0D01*
G01*
X88192500Y-94455000D01*
G75*
G02*
X87955000Y-94217500I0J237500D01*
G01*
G37*
G36*
G01*
X86230000Y-94217500D02*
X86230000Y-93742500D01*
G75*
G02*
X86467500Y-93505000I237500J0D01*
G01*
X87067500Y-93505000D01*
G75*
G02*
X87305000Y-93742500I0J-237500D01*
G01*
X87305000Y-94217500D01*
G75*
G02*
X87067500Y-94455000I-237500J0D01*
G01*
X86467500Y-94455000D01*
G75*
G02*
X86230000Y-94217500I0J237500D01*
G01*
G37*
%TD*%
%TO.C,U1*%
G36*
G01*
X83080000Y-88415000D02*
X83080000Y-88115000D01*
G75*
G02*
X83230000Y-87965000I150000J0D01*
G01*
X84580000Y-87965000D01*
G75*
G02*
X84730000Y-88115000I0J-150000D01*
G01*
X84730000Y-88415000D01*
G75*
G02*
X84580000Y-88565000I-150000J0D01*
G01*
X83230000Y-88565000D01*
G75*
G02*
X83080000Y-88415000I0J150000D01*
G01*
G37*
G36*
G01*
X83080000Y-89685000D02*
X83080000Y-89385000D01*
G75*
G02*
X83230000Y-89235000I150000J0D01*
G01*
X84580000Y-89235000D01*
G75*
G02*
X84730000Y-89385000I0J-150000D01*
G01*
X84730000Y-89685000D01*
G75*
G02*
X84580000Y-89835000I-150000J0D01*
G01*
X83230000Y-89835000D01*
G75*
G02*
X83080000Y-89685000I0J150000D01*
G01*
G37*
G36*
G01*
X83080000Y-90955000D02*
X83080000Y-90655000D01*
G75*
G02*
X83230000Y-90505000I150000J0D01*
G01*
X84580000Y-90505000D01*
G75*
G02*
X84730000Y-90655000I0J-150000D01*
G01*
X84730000Y-90955000D01*
G75*
G02*
X84580000Y-91105000I-150000J0D01*
G01*
X83230000Y-91105000D01*
G75*
G02*
X83080000Y-90955000I0J150000D01*
G01*
G37*
G36*
G01*
X83080000Y-92225000D02*
X83080000Y-91925000D01*
G75*
G02*
X83230000Y-91775000I150000J0D01*
G01*
X84580000Y-91775000D01*
G75*
G02*
X84730000Y-91925000I0J-150000D01*
G01*
X84730000Y-92225000D01*
G75*
G02*
X84580000Y-92375000I-150000J0D01*
G01*
X83230000Y-92375000D01*
G75*
G02*
X83080000Y-92225000I0J150000D01*
G01*
G37*
G36*
G01*
X77830000Y-92225000D02*
X77830000Y-91925000D01*
G75*
G02*
X77980000Y-91775000I150000J0D01*
G01*
X79330000Y-91775000D01*
G75*
G02*
X79480000Y-91925000I0J-150000D01*
G01*
X79480000Y-92225000D01*
G75*
G02*
X79330000Y-92375000I-150000J0D01*
G01*
X77980000Y-92375000D01*
G75*
G02*
X77830000Y-92225000I0J150000D01*
G01*
G37*
G36*
G01*
X77830000Y-90955000D02*
X77830000Y-90655000D01*
G75*
G02*
X77980000Y-90505000I150000J0D01*
G01*
X79330000Y-90505000D01*
G75*
G02*
X79480000Y-90655000I0J-150000D01*
G01*
X79480000Y-90955000D01*
G75*
G02*
X79330000Y-91105000I-150000J0D01*
G01*
X77980000Y-91105000D01*
G75*
G02*
X77830000Y-90955000I0J150000D01*
G01*
G37*
G36*
G01*
X77830000Y-89685000D02*
X77830000Y-89385000D01*
G75*
G02*
X77980000Y-89235000I150000J0D01*
G01*
X79330000Y-89235000D01*
G75*
G02*
X79480000Y-89385000I0J-150000D01*
G01*
X79480000Y-89685000D01*
G75*
G02*
X79330000Y-89835000I-150000J0D01*
G01*
X77980000Y-89835000D01*
G75*
G02*
X77830000Y-89685000I0J150000D01*
G01*
G37*
G36*
G01*
X77830000Y-88415000D02*
X77830000Y-88115000D01*
G75*
G02*
X77980000Y-87965000I150000J0D01*
G01*
X79330000Y-87965000D01*
G75*
G02*
X79480000Y-88115000I0J-150000D01*
G01*
X79480000Y-88415000D01*
G75*
G02*
X79330000Y-88565000I-150000J0D01*
G01*
X77980000Y-88565000D01*
G75*
G02*
X77830000Y-88415000I0J150000D01*
G01*
G37*
%TD*%
D13*
%TO.C,J2*%
X71120000Y-83820000D03*
X71120000Y-86360000D03*
X71120000Y-88900000D03*
X71120000Y-91440000D03*
X71120000Y-93980000D03*
D14*
X71120000Y-96520000D03*
%TD*%
%TO.C,C5*%
G36*
G01*
X81042500Y-84145000D02*
X81517500Y-84145000D01*
G75*
G02*
X81755000Y-84382500I0J-237500D01*
G01*
X81755000Y-84982500D01*
G75*
G02*
X81517500Y-85220000I-237500J0D01*
G01*
X81042500Y-85220000D01*
G75*
G02*
X80805000Y-84982500I0J237500D01*
G01*
X80805000Y-84382500D01*
G75*
G02*
X81042500Y-84145000I237500J0D01*
G01*
G37*
G36*
G01*
X81042500Y-82420000D02*
X81517500Y-82420000D01*
G75*
G02*
X81755000Y-82657500I0J-237500D01*
G01*
X81755000Y-83257500D01*
G75*
G02*
X81517500Y-83495000I-237500J0D01*
G01*
X81042500Y-83495000D01*
G75*
G02*
X80805000Y-83257500I0J237500D01*
G01*
X80805000Y-82657500D01*
G75*
G02*
X81042500Y-82420000I237500J0D01*
G01*
G37*
%TD*%
%TO.C,C4*%
G36*
G01*
X78502500Y-84145000D02*
X78977500Y-84145000D01*
G75*
G02*
X79215000Y-84382500I0J-237500D01*
G01*
X79215000Y-84982500D01*
G75*
G02*
X78977500Y-85220000I-237500J0D01*
G01*
X78502500Y-85220000D01*
G75*
G02*
X78265000Y-84982500I0J237500D01*
G01*
X78265000Y-84382500D01*
G75*
G02*
X78502500Y-84145000I237500J0D01*
G01*
G37*
G36*
G01*
X78502500Y-82420000D02*
X78977500Y-82420000D01*
G75*
G02*
X79215000Y-82657500I0J-237500D01*
G01*
X79215000Y-83257500D01*
G75*
G02*
X78977500Y-83495000I-237500J0D01*
G01*
X78502500Y-83495000D01*
G75*
G02*
X78265000Y-83257500I0J237500D01*
G01*
X78265000Y-82657500D01*
G75*
G02*
X78502500Y-82420000I237500J0D01*
G01*
G37*
%TD*%
%TO.C,C1*%
G36*
G01*
X75255000Y-91270000D02*
X75255000Y-90795000D01*
G75*
G02*
X75492500Y-90557500I237500J0D01*
G01*
X76092500Y-90557500D01*
G75*
G02*
X76330000Y-90795000I0J-237500D01*
G01*
X76330000Y-91270000D01*
G75*
G02*
X76092500Y-91507500I-237500J0D01*
G01*
X75492500Y-91507500D01*
G75*
G02*
X75255000Y-91270000I0J237500D01*
G01*
G37*
G36*
G01*
X73530000Y-91270000D02*
X73530000Y-90795000D01*
G75*
G02*
X73767500Y-90557500I237500J0D01*
G01*
X74367500Y-90557500D01*
G75*
G02*
X74605000Y-90795000I0J-237500D01*
G01*
X74605000Y-91270000D01*
G75*
G02*
X74367500Y-91507500I-237500J0D01*
G01*
X73767500Y-91507500D01*
G75*
G02*
X73530000Y-91270000I0J237500D01*
G01*
G37*
%TD*%
M02*
