%TF.GenerationSoftware,KiCad,Pcbnew,(5.1.8-0-10_14)*%
%TF.CreationDate,2020-12-28T10:54:56+08:00*%
%TF.ProjectId,HT42B534USB2UART,48543432-4235-4333-9455-534232554152,rev?*%
%TF.SameCoordinates,Original*%
%TF.FileFunction,Copper,L1,Top*%
%TF.FilePolarity,Positive*%
%FSLAX46Y46*%
G04 Gerber Fmt 4.6, Leading zero omitted, Abs format (unit mm)*
G04 Created by KiCad (PCBNEW (5.1.8-0-10_14)) date 2020-12-28 10:54:56*
%MOMM*%
%LPD*%
G01*
G04 APERTURE LIST*
%TA.AperFunction,ComponentPad*%
%ADD10O,3.500000X1.900000*%
%TD*%
%TA.AperFunction,SMDPad,CuDef*%
%ADD11R,2.500000X1.100000*%
%TD*%
%TA.AperFunction,ComponentPad*%
%ADD12O,1.700000X1.700000*%
%TD*%
%TA.AperFunction,ComponentPad*%
%ADD13R,1.700000X1.700000*%
%TD*%
%TA.AperFunction,ViaPad*%
%ADD14C,0.600000*%
%TD*%
%TA.AperFunction,Conductor*%
%ADD15C,0.152400*%
%TD*%
%TA.AperFunction,Conductor*%
%ADD16C,0.254000*%
%TD*%
%TA.AperFunction,Conductor*%
%ADD17C,0.100000*%
%TD*%
G04 APERTURE END LIST*
%TO.P,C6,2*%
%TO.N,GND*%
%TA.AperFunction,SMDPad,CuDef*%
G36*
G01*
X87955000Y-86597500D02*
X87955000Y-86122500D01*
G75*
G02*
X88192500Y-85885000I237500J0D01*
G01*
X88792500Y-85885000D01*
G75*
G02*
X89030000Y-86122500I0J-237500D01*
G01*
X89030000Y-86597500D01*
G75*
G02*
X88792500Y-86835000I-237500J0D01*
G01*
X88192500Y-86835000D01*
G75*
G02*
X87955000Y-86597500I0J237500D01*
G01*
G37*
%TD.AperFunction*%
%TO.P,C6,1*%
%TO.N,/D-*%
%TA.AperFunction,SMDPad,CuDef*%
G36*
G01*
X86230000Y-86597500D02*
X86230000Y-86122500D01*
G75*
G02*
X86467500Y-85885000I237500J0D01*
G01*
X87067500Y-85885000D01*
G75*
G02*
X87305000Y-86122500I0J-237500D01*
G01*
X87305000Y-86597500D01*
G75*
G02*
X87067500Y-86835000I-237500J0D01*
G01*
X86467500Y-86835000D01*
G75*
G02*
X86230000Y-86597500I0J237500D01*
G01*
G37*
%TD.AperFunction*%
%TD*%
%TO.P,D1,2*%
%TO.N,Net-(D1-Pad2)*%
%TA.AperFunction,SMDPad,CuDef*%
G36*
G01*
X83187500Y-96870000D02*
X83662500Y-96870000D01*
G75*
G02*
X83900000Y-97107500I0J-237500D01*
G01*
X83900000Y-97682500D01*
G75*
G02*
X83662500Y-97920000I-237500J0D01*
G01*
X83187500Y-97920000D01*
G75*
G02*
X82950000Y-97682500I0J237500D01*
G01*
X82950000Y-97107500D01*
G75*
G02*
X83187500Y-96870000I237500J0D01*
G01*
G37*
%TD.AperFunction*%
%TO.P,D1,1*%
%TO.N,GND*%
%TA.AperFunction,SMDPad,CuDef*%
G36*
G01*
X83187500Y-95120000D02*
X83662500Y-95120000D01*
G75*
G02*
X83900000Y-95357500I0J-237500D01*
G01*
X83900000Y-95932500D01*
G75*
G02*
X83662500Y-96170000I-237500J0D01*
G01*
X83187500Y-96170000D01*
G75*
G02*
X82950000Y-95932500I0J237500D01*
G01*
X82950000Y-95357500D01*
G75*
G02*
X83187500Y-95120000I237500J0D01*
G01*
G37*
%TD.AperFunction*%
%TD*%
%TO.P,C2,2*%
%TO.N,GND*%
%TA.AperFunction,SMDPad,CuDef*%
G36*
G01*
X78502500Y-84145000D02*
X78977500Y-84145000D01*
G75*
G02*
X79215000Y-84382500I0J-237500D01*
G01*
X79215000Y-84982500D01*
G75*
G02*
X78977500Y-85220000I-237500J0D01*
G01*
X78502500Y-85220000D01*
G75*
G02*
X78265000Y-84982500I0J237500D01*
G01*
X78265000Y-84382500D01*
G75*
G02*
X78502500Y-84145000I237500J0D01*
G01*
G37*
%TD.AperFunction*%
%TO.P,C2,1*%
%TO.N,VDD*%
%TA.AperFunction,SMDPad,CuDef*%
G36*
G01*
X78502500Y-82420000D02*
X78977500Y-82420000D01*
G75*
G02*
X79215000Y-82657500I0J-237500D01*
G01*
X79215000Y-83257500D01*
G75*
G02*
X78977500Y-83495000I-237500J0D01*
G01*
X78502500Y-83495000D01*
G75*
G02*
X78265000Y-83257500I0J237500D01*
G01*
X78265000Y-82657500D01*
G75*
G02*
X78502500Y-82420000I237500J0D01*
G01*
G37*
%TD.AperFunction*%
%TD*%
%TO.P,C3,2*%
%TO.N,GND*%
%TA.AperFunction,SMDPad,CuDef*%
G36*
G01*
X75255000Y-87867500D02*
X75255000Y-87392500D01*
G75*
G02*
X75492500Y-87155000I237500J0D01*
G01*
X76092500Y-87155000D01*
G75*
G02*
X76330000Y-87392500I0J-237500D01*
G01*
X76330000Y-87867500D01*
G75*
G02*
X76092500Y-88105000I-237500J0D01*
G01*
X75492500Y-88105000D01*
G75*
G02*
X75255000Y-87867500I0J237500D01*
G01*
G37*
%TD.AperFunction*%
%TO.P,C3,1*%
%TO.N,/V33O*%
%TA.AperFunction,SMDPad,CuDef*%
G36*
G01*
X73530000Y-87867500D02*
X73530000Y-87392500D01*
G75*
G02*
X73767500Y-87155000I237500J0D01*
G01*
X74367500Y-87155000D01*
G75*
G02*
X74605000Y-87392500I0J-237500D01*
G01*
X74605000Y-87867500D01*
G75*
G02*
X74367500Y-88105000I-237500J0D01*
G01*
X73767500Y-88105000D01*
G75*
G02*
X73530000Y-87867500I0J237500D01*
G01*
G37*
%TD.AperFunction*%
%TD*%
%TO.P,R1,2*%
%TO.N,Net-(J1-Pad2)*%
%TA.AperFunction,SMDPad,CuDef*%
G36*
G01*
X88055000Y-89137500D02*
X88055000Y-88662500D01*
G75*
G02*
X88292500Y-88425000I237500J0D01*
G01*
X88792500Y-88425000D01*
G75*
G02*
X89030000Y-88662500I0J-237500D01*
G01*
X89030000Y-89137500D01*
G75*
G02*
X88792500Y-89375000I-237500J0D01*
G01*
X88292500Y-89375000D01*
G75*
G02*
X88055000Y-89137500I0J237500D01*
G01*
G37*
%TD.AperFunction*%
%TO.P,R1,1*%
%TO.N,/D-*%
%TA.AperFunction,SMDPad,CuDef*%
G36*
G01*
X86230000Y-89137500D02*
X86230000Y-88662500D01*
G75*
G02*
X86467500Y-88425000I237500J0D01*
G01*
X86967500Y-88425000D01*
G75*
G02*
X87205000Y-88662500I0J-237500D01*
G01*
X87205000Y-89137500D01*
G75*
G02*
X86967500Y-89375000I-237500J0D01*
G01*
X86467500Y-89375000D01*
G75*
G02*
X86230000Y-89137500I0J237500D01*
G01*
G37*
%TD.AperFunction*%
%TD*%
%TO.P,R3,2*%
%TO.N,Net-(D1-Pad2)*%
%TA.AperFunction,SMDPad,CuDef*%
G36*
G01*
X79772500Y-96945000D02*
X80247500Y-96945000D01*
G75*
G02*
X80485000Y-97182500I0J-237500D01*
G01*
X80485000Y-97682500D01*
G75*
G02*
X80247500Y-97920000I-237500J0D01*
G01*
X79772500Y-97920000D01*
G75*
G02*
X79535000Y-97682500I0J237500D01*
G01*
X79535000Y-97182500D01*
G75*
G02*
X79772500Y-96945000I237500J0D01*
G01*
G37*
%TD.AperFunction*%
%TO.P,R3,1*%
%TO.N,VDD*%
%TA.AperFunction,SMDPad,CuDef*%
G36*
G01*
X79772500Y-95120000D02*
X80247500Y-95120000D01*
G75*
G02*
X80485000Y-95357500I0J-237500D01*
G01*
X80485000Y-95857500D01*
G75*
G02*
X80247500Y-96095000I-237500J0D01*
G01*
X79772500Y-96095000D01*
G75*
G02*
X79535000Y-95857500I0J237500D01*
G01*
X79535000Y-95357500D01*
G75*
G02*
X79772500Y-95120000I237500J0D01*
G01*
G37*
%TD.AperFunction*%
%TD*%
%TO.P,R2,2*%
%TO.N,Net-(J1-Pad3)*%
%TA.AperFunction,SMDPad,CuDef*%
G36*
G01*
X88055000Y-91677500D02*
X88055000Y-91202500D01*
G75*
G02*
X88292500Y-90965000I237500J0D01*
G01*
X88792500Y-90965000D01*
G75*
G02*
X89030000Y-91202500I0J-237500D01*
G01*
X89030000Y-91677500D01*
G75*
G02*
X88792500Y-91915000I-237500J0D01*
G01*
X88292500Y-91915000D01*
G75*
G02*
X88055000Y-91677500I0J237500D01*
G01*
G37*
%TD.AperFunction*%
%TO.P,R2,1*%
%TO.N,/D+*%
%TA.AperFunction,SMDPad,CuDef*%
G36*
G01*
X86230000Y-91677500D02*
X86230000Y-91202500D01*
G75*
G02*
X86467500Y-90965000I237500J0D01*
G01*
X86967500Y-90965000D01*
G75*
G02*
X87205000Y-91202500I0J-237500D01*
G01*
X87205000Y-91677500D01*
G75*
G02*
X86967500Y-91915000I-237500J0D01*
G01*
X86467500Y-91915000D01*
G75*
G02*
X86230000Y-91677500I0J237500D01*
G01*
G37*
%TD.AperFunction*%
%TD*%
D10*
%TO.P,J1,5*%
%TO.N,GND*%
X94700000Y-95870000D03*
X94700000Y-84470000D03*
D11*
%TO.P,J1,4*%
X91950000Y-93670000D03*
%TO.P,J1,1*%
%TO.N,VDD*%
X91950000Y-86670000D03*
%TO.P,J1,3*%
%TO.N,Net-(J1-Pad3)*%
X91950000Y-91170000D03*
%TO.P,J1,2*%
%TO.N,Net-(J1-Pad2)*%
X91950000Y-89170000D03*
%TD*%
%TO.P,C7,2*%
%TO.N,GND*%
%TA.AperFunction,SMDPad,CuDef*%
G36*
G01*
X87955000Y-94217500D02*
X87955000Y-93742500D01*
G75*
G02*
X88192500Y-93505000I237500J0D01*
G01*
X88792500Y-93505000D01*
G75*
G02*
X89030000Y-93742500I0J-237500D01*
G01*
X89030000Y-94217500D01*
G75*
G02*
X88792500Y-94455000I-237500J0D01*
G01*
X88192500Y-94455000D01*
G75*
G02*
X87955000Y-94217500I0J237500D01*
G01*
G37*
%TD.AperFunction*%
%TO.P,C7,1*%
%TO.N,/D+*%
%TA.AperFunction,SMDPad,CuDef*%
G36*
G01*
X86230000Y-94217500D02*
X86230000Y-93742500D01*
G75*
G02*
X86467500Y-93505000I237500J0D01*
G01*
X87067500Y-93505000D01*
G75*
G02*
X87305000Y-93742500I0J-237500D01*
G01*
X87305000Y-94217500D01*
G75*
G02*
X87067500Y-94455000I-237500J0D01*
G01*
X86467500Y-94455000D01*
G75*
G02*
X86230000Y-94217500I0J237500D01*
G01*
G37*
%TD.AperFunction*%
%TD*%
%TO.P,U1,8*%
%TO.N,/V33O*%
%TA.AperFunction,SMDPad,CuDef*%
G36*
G01*
X83080000Y-88415000D02*
X83080000Y-88115000D01*
G75*
G02*
X83230000Y-87965000I150000J0D01*
G01*
X84580000Y-87965000D01*
G75*
G02*
X84730000Y-88115000I0J-150000D01*
G01*
X84730000Y-88415000D01*
G75*
G02*
X84580000Y-88565000I-150000J0D01*
G01*
X83230000Y-88565000D01*
G75*
G02*
X83080000Y-88415000I0J150000D01*
G01*
G37*
%TD.AperFunction*%
%TO.P,U1,7*%
%TO.N,VDD*%
%TA.AperFunction,SMDPad,CuDef*%
G36*
G01*
X83080000Y-89685000D02*
X83080000Y-89385000D01*
G75*
G02*
X83230000Y-89235000I150000J0D01*
G01*
X84580000Y-89235000D01*
G75*
G02*
X84730000Y-89385000I0J-150000D01*
G01*
X84730000Y-89685000D01*
G75*
G02*
X84580000Y-89835000I-150000J0D01*
G01*
X83230000Y-89835000D01*
G75*
G02*
X83080000Y-89685000I0J150000D01*
G01*
G37*
%TD.AperFunction*%
%TO.P,U1,6*%
%TO.N,/D-*%
%TA.AperFunction,SMDPad,CuDef*%
G36*
G01*
X83080000Y-90955000D02*
X83080000Y-90655000D01*
G75*
G02*
X83230000Y-90505000I150000J0D01*
G01*
X84580000Y-90505000D01*
G75*
G02*
X84730000Y-90655000I0J-150000D01*
G01*
X84730000Y-90955000D01*
G75*
G02*
X84580000Y-91105000I-150000J0D01*
G01*
X83230000Y-91105000D01*
G75*
G02*
X83080000Y-90955000I0J150000D01*
G01*
G37*
%TD.AperFunction*%
%TO.P,U1,5*%
%TO.N,/D+*%
%TA.AperFunction,SMDPad,CuDef*%
G36*
G01*
X83080000Y-92225000D02*
X83080000Y-91925000D01*
G75*
G02*
X83230000Y-91775000I150000J0D01*
G01*
X84580000Y-91775000D01*
G75*
G02*
X84730000Y-91925000I0J-150000D01*
G01*
X84730000Y-92225000D01*
G75*
G02*
X84580000Y-92375000I-150000J0D01*
G01*
X83230000Y-92375000D01*
G75*
G02*
X83080000Y-92225000I0J150000D01*
G01*
G37*
%TD.AperFunction*%
%TO.P,U1,4*%
%TO.N,/RX*%
%TA.AperFunction,SMDPad,CuDef*%
G36*
G01*
X77830000Y-92225000D02*
X77830000Y-91925000D01*
G75*
G02*
X77980000Y-91775000I150000J0D01*
G01*
X79330000Y-91775000D01*
G75*
G02*
X79480000Y-91925000I0J-150000D01*
G01*
X79480000Y-92225000D01*
G75*
G02*
X79330000Y-92375000I-150000J0D01*
G01*
X77980000Y-92375000D01*
G75*
G02*
X77830000Y-92225000I0J150000D01*
G01*
G37*
%TD.AperFunction*%
%TO.P,U1,3*%
%TO.N,VDDA*%
%TA.AperFunction,SMDPad,CuDef*%
G36*
G01*
X77830000Y-90955000D02*
X77830000Y-90655000D01*
G75*
G02*
X77980000Y-90505000I150000J0D01*
G01*
X79330000Y-90505000D01*
G75*
G02*
X79480000Y-90655000I0J-150000D01*
G01*
X79480000Y-90955000D01*
G75*
G02*
X79330000Y-91105000I-150000J0D01*
G01*
X77980000Y-91105000D01*
G75*
G02*
X77830000Y-90955000I0J150000D01*
G01*
G37*
%TD.AperFunction*%
%TO.P,U1,2*%
%TO.N,/TX*%
%TA.AperFunction,SMDPad,CuDef*%
G36*
G01*
X77830000Y-89685000D02*
X77830000Y-89385000D01*
G75*
G02*
X77980000Y-89235000I150000J0D01*
G01*
X79330000Y-89235000D01*
G75*
G02*
X79480000Y-89385000I0J-150000D01*
G01*
X79480000Y-89685000D01*
G75*
G02*
X79330000Y-89835000I-150000J0D01*
G01*
X77980000Y-89835000D01*
G75*
G02*
X77830000Y-89685000I0J150000D01*
G01*
G37*
%TD.AperFunction*%
%TO.P,U1,1*%
%TO.N,GND*%
%TA.AperFunction,SMDPad,CuDef*%
G36*
G01*
X77830000Y-88415000D02*
X77830000Y-88115000D01*
G75*
G02*
X77980000Y-87965000I150000J0D01*
G01*
X79330000Y-87965000D01*
G75*
G02*
X79480000Y-88115000I0J-150000D01*
G01*
X79480000Y-88415000D01*
G75*
G02*
X79330000Y-88565000I-150000J0D01*
G01*
X77980000Y-88565000D01*
G75*
G02*
X77830000Y-88415000I0J150000D01*
G01*
G37*
%TD.AperFunction*%
%TD*%
D12*
%TO.P,J2,6*%
%TO.N,VDD*%
X71120000Y-83820000D03*
%TO.P,J2,5*%
%TO.N,/V33O*%
X71120000Y-86360000D03*
%TO.P,J2,4*%
%TO.N,/TX*%
X71120000Y-88900000D03*
%TO.P,J2,3*%
%TO.N,VDDA*%
X71120000Y-91440000D03*
%TO.P,J2,2*%
%TO.N,/RX*%
X71120000Y-93980000D03*
D13*
%TO.P,J2,1*%
%TO.N,GND*%
X71120000Y-96520000D03*
%TD*%
%TO.P,C5,2*%
%TO.N,GND*%
%TA.AperFunction,SMDPad,CuDef*%
G36*
G01*
X81042500Y-84145000D02*
X81517500Y-84145000D01*
G75*
G02*
X81755000Y-84382500I0J-237500D01*
G01*
X81755000Y-84982500D01*
G75*
G02*
X81517500Y-85220000I-237500J0D01*
G01*
X81042500Y-85220000D01*
G75*
G02*
X80805000Y-84982500I0J237500D01*
G01*
X80805000Y-84382500D01*
G75*
G02*
X81042500Y-84145000I237500J0D01*
G01*
G37*
%TD.AperFunction*%
%TO.P,C5,1*%
%TO.N,VDD*%
%TA.AperFunction,SMDPad,CuDef*%
G36*
G01*
X81042500Y-82420000D02*
X81517500Y-82420000D01*
G75*
G02*
X81755000Y-82657500I0J-237500D01*
G01*
X81755000Y-83257500D01*
G75*
G02*
X81517500Y-83495000I-237500J0D01*
G01*
X81042500Y-83495000D01*
G75*
G02*
X80805000Y-83257500I0J237500D01*
G01*
X80805000Y-82657500D01*
G75*
G02*
X81042500Y-82420000I237500J0D01*
G01*
G37*
%TD.AperFunction*%
%TD*%
%TO.P,C4,2*%
%TO.N,GND*%
%TA.AperFunction,SMDPad,CuDef*%
G36*
G01*
X83582500Y-84145000D02*
X84057500Y-84145000D01*
G75*
G02*
X84295000Y-84382500I0J-237500D01*
G01*
X84295000Y-84982500D01*
G75*
G02*
X84057500Y-85220000I-237500J0D01*
G01*
X83582500Y-85220000D01*
G75*
G02*
X83345000Y-84982500I0J237500D01*
G01*
X83345000Y-84382500D01*
G75*
G02*
X83582500Y-84145000I237500J0D01*
G01*
G37*
%TD.AperFunction*%
%TO.P,C4,1*%
%TO.N,VDD*%
%TA.AperFunction,SMDPad,CuDef*%
G36*
G01*
X83582500Y-82420000D02*
X84057500Y-82420000D01*
G75*
G02*
X84295000Y-82657500I0J-237500D01*
G01*
X84295000Y-83257500D01*
G75*
G02*
X84057500Y-83495000I-237500J0D01*
G01*
X83582500Y-83495000D01*
G75*
G02*
X83345000Y-83257500I0J237500D01*
G01*
X83345000Y-82657500D01*
G75*
G02*
X83582500Y-82420000I237500J0D01*
G01*
G37*
%TD.AperFunction*%
%TD*%
%TO.P,C1,2*%
%TO.N,GND*%
%TA.AperFunction,SMDPad,CuDef*%
G36*
G01*
X75255000Y-91270000D02*
X75255000Y-90795000D01*
G75*
G02*
X75492500Y-90557500I237500J0D01*
G01*
X76092500Y-90557500D01*
G75*
G02*
X76330000Y-90795000I0J-237500D01*
G01*
X76330000Y-91270000D01*
G75*
G02*
X76092500Y-91507500I-237500J0D01*
G01*
X75492500Y-91507500D01*
G75*
G02*
X75255000Y-91270000I0J237500D01*
G01*
G37*
%TD.AperFunction*%
%TO.P,C1,1*%
%TO.N,VDDA*%
%TA.AperFunction,SMDPad,CuDef*%
G36*
G01*
X73530000Y-91270000D02*
X73530000Y-90795000D01*
G75*
G02*
X73767500Y-90557500I237500J0D01*
G01*
X74367500Y-90557500D01*
G75*
G02*
X74605000Y-90795000I0J-237500D01*
G01*
X74605000Y-91270000D01*
G75*
G02*
X74367500Y-91507500I-237500J0D01*
G01*
X73767500Y-91507500D01*
G75*
G02*
X73530000Y-91270000I0J237500D01*
G01*
G37*
%TD.AperFunction*%
%TD*%
D14*
%TO.N,GND*%
X76200000Y-92710000D03*
%TO.N,VDD*%
X83820000Y-86360000D03*
X74930000Y-83820000D03*
X71120000Y-83820000D03*
%TO.N,/V33O*%
X73660000Y-86360000D03*
X81280000Y-86360000D03*
%TD*%
D15*
%TO.N,VDDA*%
X73660000Y-91440000D02*
X74067500Y-91032500D01*
X71120000Y-91440000D02*
X73660000Y-91440000D01*
X74067500Y-91032500D02*
X74930000Y-90170000D01*
X78020000Y-90170000D02*
X78655000Y-90805000D01*
X74930000Y-90170000D02*
X78020000Y-90170000D01*
%TO.N,VDD*%
X78740000Y-82957500D02*
X83820000Y-82957500D01*
X88237500Y-82957500D02*
X91950000Y-86670000D01*
X83820000Y-82957500D02*
X88237500Y-82957500D01*
X84730000Y-89535000D02*
X83905000Y-89535000D01*
X84933210Y-89331790D02*
X84730000Y-89535000D01*
X84933210Y-87473210D02*
X84933210Y-89331790D01*
X83820000Y-86360000D02*
X84933210Y-87473210D01*
X80010000Y-92605000D02*
X80010000Y-95607500D01*
X83080000Y-89535000D02*
X80010000Y-92605000D01*
X83905000Y-89535000D02*
X83080000Y-89535000D01*
X75792500Y-82957500D02*
X74930000Y-83820000D01*
X78740000Y-82957500D02*
X75792500Y-82957500D01*
%TO.N,/V33O*%
X71120000Y-86360000D02*
X73660000Y-86360000D01*
X73660000Y-87222500D02*
X74067500Y-87630000D01*
X73660000Y-86360000D02*
X73660000Y-87222500D01*
X82000000Y-86360000D02*
X83905000Y-88265000D01*
X81280000Y-86360000D02*
X82000000Y-86360000D01*
%TO.N,/D-*%
X86767500Y-88850000D02*
X86717500Y-88900000D01*
X86767500Y-86360000D02*
X86767500Y-88850000D01*
X84812500Y-90805000D02*
X83905000Y-90805000D01*
X86717500Y-88900000D02*
X84812500Y-90805000D01*
%TO.N,/D+*%
X84540000Y-91440000D02*
X83905000Y-92075000D01*
X86717500Y-91440000D02*
X84540000Y-91440000D01*
X86717500Y-93930000D02*
X86767500Y-93980000D01*
X86717500Y-91440000D02*
X86717500Y-93930000D01*
%TO.N,Net-(D1-Pad2)*%
X83387500Y-97432500D02*
X83425000Y-97395000D01*
X80010000Y-97432500D02*
X83387500Y-97432500D01*
%TO.N,Net-(J1-Pad3)*%
X91680000Y-91440000D02*
X91950000Y-91170000D01*
X88542500Y-91440000D02*
X91680000Y-91440000D01*
%TO.N,Net-(J1-Pad2)*%
X91680000Y-88900000D02*
X91950000Y-89170000D01*
X88542500Y-88900000D02*
X91680000Y-88900000D01*
%TO.N,/RX*%
X76750000Y-93980000D02*
X78655000Y-92075000D01*
X71120000Y-93980000D02*
X76750000Y-93980000D01*
%TO.N,/TX*%
X78020000Y-88900000D02*
X78655000Y-89535000D01*
X71120000Y-88900000D02*
X78020000Y-88900000D01*
%TD*%
D16*
%TO.N,GND*%
X97130001Y-99670000D02*
X69240000Y-99670000D01*
X69240000Y-97370000D01*
X69631928Y-97370000D01*
X69644188Y-97494482D01*
X69680498Y-97614180D01*
X69739463Y-97724494D01*
X69818815Y-97821185D01*
X69915506Y-97900537D01*
X70025820Y-97959502D01*
X70145518Y-97995812D01*
X70270000Y-98008072D01*
X70834250Y-98005000D01*
X70993000Y-97846250D01*
X70993000Y-96647000D01*
X71247000Y-96647000D01*
X71247000Y-97846250D01*
X71405750Y-98005000D01*
X71970000Y-98008072D01*
X72094482Y-97995812D01*
X72214180Y-97959502D01*
X72324494Y-97900537D01*
X72421185Y-97821185D01*
X72500537Y-97724494D01*
X72559502Y-97614180D01*
X72595812Y-97494482D01*
X72608072Y-97370000D01*
X72605000Y-96805750D01*
X72446250Y-96647000D01*
X71247000Y-96647000D01*
X70993000Y-96647000D01*
X69793750Y-96647000D01*
X69635000Y-96805750D01*
X69631928Y-97370000D01*
X69240000Y-97370000D01*
X69240000Y-95670000D01*
X69631928Y-95670000D01*
X69635000Y-96234250D01*
X69793750Y-96393000D01*
X70993000Y-96393000D01*
X70993000Y-96373000D01*
X71247000Y-96373000D01*
X71247000Y-96393000D01*
X72446250Y-96393000D01*
X72605000Y-96234250D01*
X72608072Y-95670000D01*
X72595812Y-95545518D01*
X72559502Y-95425820D01*
X72500537Y-95315506D01*
X72421185Y-95218815D01*
X72324494Y-95139463D01*
X72214180Y-95080498D01*
X72141620Y-95058487D01*
X72273475Y-94926632D01*
X72430786Y-94691200D01*
X76715074Y-94691200D01*
X76750000Y-94694640D01*
X76784926Y-94691200D01*
X76784936Y-94691200D01*
X76889420Y-94680909D01*
X77023481Y-94640242D01*
X77147033Y-94574202D01*
X77255327Y-94485327D01*
X77277602Y-94458185D01*
X78722716Y-93013072D01*
X79298800Y-93013072D01*
X79298801Y-94622677D01*
X79286058Y-94629488D01*
X79153377Y-94738377D01*
X79044488Y-94871058D01*
X78963577Y-95022433D01*
X78913752Y-95186684D01*
X78896928Y-95357500D01*
X78896928Y-95857500D01*
X78913752Y-96028316D01*
X78963577Y-96192567D01*
X79044488Y-96343942D01*
X79153377Y-96476623D01*
X79206232Y-96520000D01*
X79153377Y-96563377D01*
X79044488Y-96696058D01*
X78963577Y-96847433D01*
X78913752Y-97011684D01*
X78896928Y-97182500D01*
X78896928Y-97682500D01*
X78913752Y-97853316D01*
X78963577Y-98017567D01*
X79044488Y-98168942D01*
X79153377Y-98301623D01*
X79286058Y-98410512D01*
X79437433Y-98491423D01*
X79601684Y-98541248D01*
X79772500Y-98558072D01*
X80247500Y-98558072D01*
X80418316Y-98541248D01*
X80582567Y-98491423D01*
X80733942Y-98410512D01*
X80866623Y-98301623D01*
X80975512Y-98168942D01*
X80989004Y-98143700D01*
X82445996Y-98143700D01*
X82459488Y-98168942D01*
X82568377Y-98301623D01*
X82701058Y-98410512D01*
X82852433Y-98491423D01*
X83016684Y-98541248D01*
X83187500Y-98558072D01*
X83662500Y-98558072D01*
X83833316Y-98541248D01*
X83997567Y-98491423D01*
X84148942Y-98410512D01*
X84281623Y-98301623D01*
X84390512Y-98168942D01*
X84471423Y-98017567D01*
X84521248Y-97853316D01*
X84538072Y-97682500D01*
X84538072Y-97107500D01*
X84521248Y-96936684D01*
X84471423Y-96772433D01*
X84390512Y-96621058D01*
X84370901Y-96597161D01*
X84430537Y-96524494D01*
X84489502Y-96414180D01*
X84525812Y-96294482D01*
X84530922Y-96242588D01*
X92359414Y-96242588D01*
X92387051Y-96359221D01*
X92511564Y-96644983D01*
X92689434Y-96900962D01*
X92913825Y-97117322D01*
X93176114Y-97285748D01*
X93466222Y-97399768D01*
X93773000Y-97455000D01*
X94573000Y-97455000D01*
X94573000Y-95997000D01*
X94827000Y-95997000D01*
X94827000Y-97455000D01*
X95627000Y-97455000D01*
X95933778Y-97399768D01*
X96223886Y-97285748D01*
X96486175Y-97117322D01*
X96710566Y-96900962D01*
X96888436Y-96644983D01*
X97012949Y-96359221D01*
X97040586Y-96242588D01*
X96920584Y-95997000D01*
X94827000Y-95997000D01*
X94573000Y-95997000D01*
X92479416Y-95997000D01*
X92359414Y-96242588D01*
X84530922Y-96242588D01*
X84538072Y-96170000D01*
X84535000Y-95930750D01*
X84376250Y-95772000D01*
X83552000Y-95772000D01*
X83552000Y-95792000D01*
X83298000Y-95792000D01*
X83298000Y-95772000D01*
X82473750Y-95772000D01*
X82315000Y-95930750D01*
X82311928Y-96170000D01*
X82324188Y-96294482D01*
X82360498Y-96414180D01*
X82419463Y-96524494D01*
X82479099Y-96597161D01*
X82459488Y-96621058D01*
X82405908Y-96721300D01*
X80989004Y-96721300D01*
X80975512Y-96696058D01*
X80866623Y-96563377D01*
X80813768Y-96520000D01*
X80866623Y-96476623D01*
X80975512Y-96343942D01*
X81056423Y-96192567D01*
X81106248Y-96028316D01*
X81123072Y-95857500D01*
X81123072Y-95357500D01*
X81106248Y-95186684D01*
X81086020Y-95120000D01*
X82311928Y-95120000D01*
X82315000Y-95359250D01*
X82473750Y-95518000D01*
X83298000Y-95518000D01*
X83298000Y-94643750D01*
X83552000Y-94643750D01*
X83552000Y-95518000D01*
X84376250Y-95518000D01*
X84535000Y-95359250D01*
X84538072Y-95120000D01*
X84525812Y-94995518D01*
X84489502Y-94875820D01*
X84430537Y-94765506D01*
X84351185Y-94668815D01*
X84254494Y-94589463D01*
X84144180Y-94530498D01*
X84024482Y-94494188D01*
X83900000Y-94481928D01*
X83710750Y-94485000D01*
X83552000Y-94643750D01*
X83298000Y-94643750D01*
X83139250Y-94485000D01*
X82950000Y-94481928D01*
X82825518Y-94494188D01*
X82705820Y-94530498D01*
X82595506Y-94589463D01*
X82498815Y-94668815D01*
X82419463Y-94765506D01*
X82360498Y-94875820D01*
X82324188Y-94995518D01*
X82311928Y-95120000D01*
X81086020Y-95120000D01*
X81056423Y-95022433D01*
X80975512Y-94871058D01*
X80866623Y-94738377D01*
X80733942Y-94629488D01*
X80721200Y-94622677D01*
X80721200Y-92899587D01*
X82469865Y-91150923D01*
X82501916Y-91256582D01*
X82574742Y-91392829D01*
X82613454Y-91440000D01*
X82574742Y-91487171D01*
X82501916Y-91623418D01*
X82457071Y-91771255D01*
X82441928Y-91925000D01*
X82441928Y-92225000D01*
X82457071Y-92378745D01*
X82501916Y-92526582D01*
X82574742Y-92662829D01*
X82672749Y-92782251D01*
X82792171Y-92880258D01*
X82928418Y-92953084D01*
X83076255Y-92997929D01*
X83230000Y-93013072D01*
X84580000Y-93013072D01*
X84733745Y-92997929D01*
X84881582Y-92953084D01*
X85017829Y-92880258D01*
X85137251Y-92782251D01*
X85235258Y-92662829D01*
X85308084Y-92526582D01*
X85352929Y-92378745D01*
X85368072Y-92225000D01*
X85368072Y-92151200D01*
X85732677Y-92151200D01*
X85739488Y-92163942D01*
X85848377Y-92296623D01*
X85981058Y-92405512D01*
X86006300Y-92419004D01*
X86006301Y-93000996D01*
X85981058Y-93014488D01*
X85848377Y-93123377D01*
X85739488Y-93256058D01*
X85658577Y-93407433D01*
X85608752Y-93571684D01*
X85591928Y-93742500D01*
X85591928Y-94217500D01*
X85608752Y-94388316D01*
X85658577Y-94552567D01*
X85739488Y-94703942D01*
X85848377Y-94836623D01*
X85981058Y-94945512D01*
X86132433Y-95026423D01*
X86296684Y-95076248D01*
X86467500Y-95093072D01*
X87067500Y-95093072D01*
X87238316Y-95076248D01*
X87402567Y-95026423D01*
X87552606Y-94946226D01*
X87600506Y-94985537D01*
X87710820Y-95044502D01*
X87830518Y-95080812D01*
X87955000Y-95093072D01*
X88206750Y-95090000D01*
X88365500Y-94931250D01*
X88365500Y-94107000D01*
X88619500Y-94107000D01*
X88619500Y-94931250D01*
X88778250Y-95090000D01*
X89030000Y-95093072D01*
X89154482Y-95080812D01*
X89274180Y-95044502D01*
X89384494Y-94985537D01*
X89481185Y-94906185D01*
X89560537Y-94809494D01*
X89619502Y-94699180D01*
X89655812Y-94579482D01*
X89668072Y-94455000D01*
X89665000Y-94265750D01*
X89619250Y-94220000D01*
X90061928Y-94220000D01*
X90074188Y-94344482D01*
X90110498Y-94464180D01*
X90169463Y-94574494D01*
X90248815Y-94671185D01*
X90345506Y-94750537D01*
X90455820Y-94809502D01*
X90575518Y-94845812D01*
X90700000Y-94858072D01*
X91664250Y-94855000D01*
X91823000Y-94696250D01*
X91823000Y-93797000D01*
X92077000Y-93797000D01*
X92077000Y-94696250D01*
X92235750Y-94855000D01*
X92677365Y-94856407D01*
X92511564Y-95095017D01*
X92387051Y-95380779D01*
X92359414Y-95497412D01*
X92479416Y-95743000D01*
X94573000Y-95743000D01*
X94573000Y-94285000D01*
X94827000Y-94285000D01*
X94827000Y-95743000D01*
X96920584Y-95743000D01*
X97040586Y-95497412D01*
X97012949Y-95380779D01*
X96888436Y-95095017D01*
X96710566Y-94839038D01*
X96486175Y-94622678D01*
X96223886Y-94454252D01*
X95933778Y-94340232D01*
X95627000Y-94285000D01*
X94827000Y-94285000D01*
X94573000Y-94285000D01*
X93831670Y-94285000D01*
X93838072Y-94220000D01*
X93835000Y-93955750D01*
X93676250Y-93797000D01*
X92077000Y-93797000D01*
X91823000Y-93797000D01*
X90223750Y-93797000D01*
X90065000Y-93955750D01*
X90061928Y-94220000D01*
X89619250Y-94220000D01*
X89506250Y-94107000D01*
X88619500Y-94107000D01*
X88365500Y-94107000D01*
X88345500Y-94107000D01*
X88345500Y-93853000D01*
X88365500Y-93853000D01*
X88365500Y-93028750D01*
X88619500Y-93028750D01*
X88619500Y-93853000D01*
X89506250Y-93853000D01*
X89665000Y-93694250D01*
X89668072Y-93505000D01*
X89655812Y-93380518D01*
X89619502Y-93260820D01*
X89560537Y-93150506D01*
X89535502Y-93120000D01*
X90061928Y-93120000D01*
X90065000Y-93384250D01*
X90223750Y-93543000D01*
X91823000Y-93543000D01*
X91823000Y-92643750D01*
X91664250Y-92485000D01*
X90700000Y-92481928D01*
X90575518Y-92494188D01*
X90455820Y-92530498D01*
X90345506Y-92589463D01*
X90248815Y-92668815D01*
X90169463Y-92765506D01*
X90110498Y-92875820D01*
X90074188Y-92995518D01*
X90061928Y-93120000D01*
X89535502Y-93120000D01*
X89481185Y-93053815D01*
X89384494Y-92974463D01*
X89274180Y-92915498D01*
X89154482Y-92879188D01*
X89030000Y-92866928D01*
X88778250Y-92870000D01*
X88619500Y-93028750D01*
X88365500Y-93028750D01*
X88206750Y-92870000D01*
X87955000Y-92866928D01*
X87830518Y-92879188D01*
X87710820Y-92915498D01*
X87600506Y-92974463D01*
X87552606Y-93013774D01*
X87428700Y-92947545D01*
X87428700Y-92419004D01*
X87453942Y-92405512D01*
X87586623Y-92296623D01*
X87630000Y-92243768D01*
X87673377Y-92296623D01*
X87806058Y-92405512D01*
X87957433Y-92486423D01*
X88121684Y-92536248D01*
X88292500Y-92553072D01*
X88792500Y-92553072D01*
X88963316Y-92536248D01*
X89127567Y-92486423D01*
X89278942Y-92405512D01*
X89411623Y-92296623D01*
X89520512Y-92163942D01*
X89527323Y-92151200D01*
X90232414Y-92151200D01*
X90248815Y-92171185D01*
X90345506Y-92250537D01*
X90455820Y-92309502D01*
X90575518Y-92345812D01*
X90700000Y-92358072D01*
X93200000Y-92358072D01*
X93324482Y-92345812D01*
X93444180Y-92309502D01*
X93533171Y-92261934D01*
X93515000Y-92353288D01*
X93515000Y-92568353D01*
X93444180Y-92530498D01*
X93324482Y-92494188D01*
X93200000Y-92481928D01*
X92235750Y-92485000D01*
X92077000Y-92643750D01*
X92077000Y-93543000D01*
X93676250Y-93543000D01*
X93835000Y-93384250D01*
X93836188Y-93282032D01*
X93944606Y-93390450D01*
X94138692Y-93520134D01*
X94354348Y-93609461D01*
X94583288Y-93655000D01*
X94816712Y-93655000D01*
X95045652Y-93609461D01*
X95261308Y-93520134D01*
X95455394Y-93390450D01*
X95620450Y-93225394D01*
X95750134Y-93031308D01*
X95839461Y-92815652D01*
X95885000Y-92586712D01*
X95885000Y-92353288D01*
X95839461Y-92124348D01*
X95750134Y-91908692D01*
X95620450Y-91714606D01*
X95455394Y-91549550D01*
X95261308Y-91419866D01*
X95045652Y-91330539D01*
X94816712Y-91285000D01*
X94583288Y-91285000D01*
X94354348Y-91330539D01*
X94138692Y-91419866D01*
X93944606Y-91549550D01*
X93838072Y-91656084D01*
X93838072Y-90620000D01*
X93825812Y-90495518D01*
X93789502Y-90375820D01*
X93730537Y-90265506D01*
X93652158Y-90170000D01*
X93730537Y-90074494D01*
X93789502Y-89964180D01*
X93825812Y-89844482D01*
X93838072Y-89720000D01*
X93838072Y-88683916D01*
X93944606Y-88790450D01*
X94138692Y-88920134D01*
X94354348Y-89009461D01*
X94583288Y-89055000D01*
X94816712Y-89055000D01*
X95045652Y-89009461D01*
X95261308Y-88920134D01*
X95455394Y-88790450D01*
X95620450Y-88625394D01*
X95750134Y-88431308D01*
X95839461Y-88215652D01*
X95885000Y-87986712D01*
X95885000Y-87753288D01*
X95839461Y-87524348D01*
X95750134Y-87308692D01*
X95620450Y-87114606D01*
X95455394Y-86949550D01*
X95261308Y-86819866D01*
X95045652Y-86730539D01*
X94816712Y-86685000D01*
X94583288Y-86685000D01*
X94354348Y-86730539D01*
X94138692Y-86819866D01*
X93944606Y-86949550D01*
X93838072Y-87056084D01*
X93838072Y-86120000D01*
X93831670Y-86055000D01*
X94573000Y-86055000D01*
X94573000Y-84597000D01*
X94827000Y-84597000D01*
X94827000Y-86055000D01*
X95627000Y-86055000D01*
X95933778Y-85999768D01*
X96223886Y-85885748D01*
X96486175Y-85717322D01*
X96710566Y-85500962D01*
X96888436Y-85244983D01*
X97012949Y-84959221D01*
X97040586Y-84842588D01*
X96920584Y-84597000D01*
X94827000Y-84597000D01*
X94573000Y-84597000D01*
X92479416Y-84597000D01*
X92359414Y-84842588D01*
X92387051Y-84959221D01*
X92511564Y-85244983D01*
X92676208Y-85481928D01*
X91767716Y-85481928D01*
X90383200Y-84097412D01*
X92359414Y-84097412D01*
X92479416Y-84343000D01*
X94573000Y-84343000D01*
X94573000Y-82885000D01*
X94827000Y-82885000D01*
X94827000Y-84343000D01*
X96920584Y-84343000D01*
X97040586Y-84097412D01*
X97012949Y-83980779D01*
X96888436Y-83695017D01*
X96710566Y-83439038D01*
X96486175Y-83222678D01*
X96223886Y-83054252D01*
X95933778Y-82940232D01*
X95627000Y-82885000D01*
X94827000Y-82885000D01*
X94573000Y-82885000D01*
X93773000Y-82885000D01*
X93466222Y-82940232D01*
X93176114Y-83054252D01*
X92913825Y-83222678D01*
X92689434Y-83439038D01*
X92511564Y-83695017D01*
X92387051Y-83980779D01*
X92359414Y-84097412D01*
X90383200Y-84097412D01*
X88765102Y-82479315D01*
X88742827Y-82452173D01*
X88634533Y-82363298D01*
X88510981Y-82297258D01*
X88376920Y-82256591D01*
X88272436Y-82246300D01*
X88272426Y-82246300D01*
X88237500Y-82242860D01*
X88202574Y-82246300D01*
X84825729Y-82246300D01*
X84785512Y-82171058D01*
X84676623Y-82038377D01*
X84543942Y-81929488D01*
X84392567Y-81848577D01*
X84228316Y-81798752D01*
X84057500Y-81781928D01*
X83582500Y-81781928D01*
X83411684Y-81798752D01*
X83247433Y-81848577D01*
X83096058Y-81929488D01*
X82963377Y-82038377D01*
X82854488Y-82171058D01*
X82814271Y-82246300D01*
X82285729Y-82246300D01*
X82245512Y-82171058D01*
X82136623Y-82038377D01*
X82003942Y-81929488D01*
X81852567Y-81848577D01*
X81688316Y-81798752D01*
X81517500Y-81781928D01*
X81042500Y-81781928D01*
X80871684Y-81798752D01*
X80707433Y-81848577D01*
X80556058Y-81929488D01*
X80423377Y-82038377D01*
X80314488Y-82171058D01*
X80274271Y-82246300D01*
X79745729Y-82246300D01*
X79705512Y-82171058D01*
X79596623Y-82038377D01*
X79463942Y-81929488D01*
X79312567Y-81848577D01*
X79148316Y-81798752D01*
X78977500Y-81781928D01*
X78502500Y-81781928D01*
X78331684Y-81798752D01*
X78167433Y-81848577D01*
X78016058Y-81929488D01*
X77883377Y-82038377D01*
X77774488Y-82171058D01*
X77734271Y-82246300D01*
X75827425Y-82246300D01*
X75792499Y-82242860D01*
X75757573Y-82246300D01*
X75757564Y-82246300D01*
X75653080Y-82256591D01*
X75519019Y-82297258D01*
X75395467Y-82363298D01*
X75287173Y-82452173D01*
X75264903Y-82479310D01*
X74859212Y-82885000D01*
X74837911Y-82885000D01*
X74657271Y-82920932D01*
X74487111Y-82991414D01*
X74333972Y-83093738D01*
X74203738Y-83223972D01*
X74101414Y-83377111D01*
X74030932Y-83547271D01*
X73995000Y-83727911D01*
X73995000Y-83912089D01*
X74030932Y-84092729D01*
X74101414Y-84262889D01*
X74203738Y-84416028D01*
X74333972Y-84546262D01*
X74487111Y-84648586D01*
X74657271Y-84719068D01*
X74837911Y-84755000D01*
X75022089Y-84755000D01*
X75202729Y-84719068D01*
X75372889Y-84648586D01*
X75526028Y-84546262D01*
X75656262Y-84416028D01*
X75758586Y-84262889D01*
X75829068Y-84092729D01*
X75865000Y-83912089D01*
X75865000Y-83890788D01*
X76087088Y-83668700D01*
X77734271Y-83668700D01*
X77773774Y-83742606D01*
X77734463Y-83790506D01*
X77675498Y-83900820D01*
X77639188Y-84020518D01*
X77626928Y-84145000D01*
X77630000Y-84396750D01*
X77788750Y-84555500D01*
X78613000Y-84555500D01*
X78613000Y-84535500D01*
X78867000Y-84535500D01*
X78867000Y-84555500D01*
X79691250Y-84555500D01*
X79850000Y-84396750D01*
X79853072Y-84145000D01*
X79840812Y-84020518D01*
X79804502Y-83900820D01*
X79745537Y-83790506D01*
X79706226Y-83742606D01*
X79745729Y-83668700D01*
X80274271Y-83668700D01*
X80313774Y-83742606D01*
X80274463Y-83790506D01*
X80215498Y-83900820D01*
X80179188Y-84020518D01*
X80166928Y-84145000D01*
X80170000Y-84396750D01*
X80328750Y-84555500D01*
X81153000Y-84555500D01*
X81153000Y-84535500D01*
X81407000Y-84535500D01*
X81407000Y-84555500D01*
X82231250Y-84555500D01*
X82390000Y-84396750D01*
X82393072Y-84145000D01*
X82380812Y-84020518D01*
X82344502Y-83900820D01*
X82285537Y-83790506D01*
X82246226Y-83742606D01*
X82285729Y-83668700D01*
X82814271Y-83668700D01*
X82853774Y-83742606D01*
X82814463Y-83790506D01*
X82755498Y-83900820D01*
X82719188Y-84020518D01*
X82706928Y-84145000D01*
X82710000Y-84396750D01*
X82868750Y-84555500D01*
X83693000Y-84555500D01*
X83693000Y-84535500D01*
X83947000Y-84535500D01*
X83947000Y-84555500D01*
X84771250Y-84555500D01*
X84930000Y-84396750D01*
X84933072Y-84145000D01*
X84920812Y-84020518D01*
X84884502Y-83900820D01*
X84825537Y-83790506D01*
X84786226Y-83742606D01*
X84825729Y-83668700D01*
X87942913Y-83668700D01*
X90124269Y-85850057D01*
X90110498Y-85875820D01*
X90074188Y-85995518D01*
X90061928Y-86120000D01*
X90061928Y-87220000D01*
X90074188Y-87344482D01*
X90110498Y-87464180D01*
X90169463Y-87574494D01*
X90248815Y-87671185D01*
X90345506Y-87750537D01*
X90455820Y-87809502D01*
X90575518Y-87845812D01*
X90700000Y-87858072D01*
X93200000Y-87858072D01*
X93324482Y-87845812D01*
X93444180Y-87809502D01*
X93515000Y-87771647D01*
X93515000Y-87986712D01*
X93533171Y-88078066D01*
X93444180Y-88030498D01*
X93324482Y-87994188D01*
X93200000Y-87981928D01*
X90700000Y-87981928D01*
X90575518Y-87994188D01*
X90455820Y-88030498D01*
X90345506Y-88089463D01*
X90248815Y-88168815D01*
X90232414Y-88188800D01*
X89527323Y-88188800D01*
X89520512Y-88176058D01*
X89411623Y-88043377D01*
X89278942Y-87934488D01*
X89127567Y-87853577D01*
X88963316Y-87803752D01*
X88792500Y-87786928D01*
X88292500Y-87786928D01*
X88121684Y-87803752D01*
X87957433Y-87853577D01*
X87806058Y-87934488D01*
X87673377Y-88043377D01*
X87630000Y-88096232D01*
X87586623Y-88043377D01*
X87478700Y-87954806D01*
X87478700Y-87365729D01*
X87552606Y-87326226D01*
X87600506Y-87365537D01*
X87710820Y-87424502D01*
X87830518Y-87460812D01*
X87955000Y-87473072D01*
X88206750Y-87470000D01*
X88365500Y-87311250D01*
X88365500Y-86487000D01*
X88619500Y-86487000D01*
X88619500Y-87311250D01*
X88778250Y-87470000D01*
X89030000Y-87473072D01*
X89154482Y-87460812D01*
X89274180Y-87424502D01*
X89384494Y-87365537D01*
X89481185Y-87286185D01*
X89560537Y-87189494D01*
X89619502Y-87079180D01*
X89655812Y-86959482D01*
X89668072Y-86835000D01*
X89665000Y-86645750D01*
X89506250Y-86487000D01*
X88619500Y-86487000D01*
X88365500Y-86487000D01*
X88345500Y-86487000D01*
X88345500Y-86233000D01*
X88365500Y-86233000D01*
X88365500Y-85408750D01*
X88619500Y-85408750D01*
X88619500Y-86233000D01*
X89506250Y-86233000D01*
X89665000Y-86074250D01*
X89668072Y-85885000D01*
X89655812Y-85760518D01*
X89619502Y-85640820D01*
X89560537Y-85530506D01*
X89481185Y-85433815D01*
X89384494Y-85354463D01*
X89274180Y-85295498D01*
X89154482Y-85259188D01*
X89030000Y-85246928D01*
X88778250Y-85250000D01*
X88619500Y-85408750D01*
X88365500Y-85408750D01*
X88206750Y-85250000D01*
X87955000Y-85246928D01*
X87830518Y-85259188D01*
X87710820Y-85295498D01*
X87600506Y-85354463D01*
X87552606Y-85393774D01*
X87402567Y-85313577D01*
X87238316Y-85263752D01*
X87067500Y-85246928D01*
X86467500Y-85246928D01*
X86296684Y-85263752D01*
X86132433Y-85313577D01*
X85981058Y-85394488D01*
X85848377Y-85503377D01*
X85739488Y-85636058D01*
X85658577Y-85787433D01*
X85608752Y-85951684D01*
X85591928Y-86122500D01*
X85591928Y-86597500D01*
X85608752Y-86768316D01*
X85658577Y-86932567D01*
X85739488Y-87083942D01*
X85848377Y-87216623D01*
X85981058Y-87325512D01*
X86056300Y-87365730D01*
X86056301Y-87894270D01*
X85981058Y-87934488D01*
X85848377Y-88043377D01*
X85739488Y-88176058D01*
X85658577Y-88327433D01*
X85644410Y-88374135D01*
X85644410Y-87508138D01*
X85647850Y-87473210D01*
X85644410Y-87438281D01*
X85644410Y-87438274D01*
X85634119Y-87333790D01*
X85598577Y-87216623D01*
X85593452Y-87199728D01*
X85527412Y-87076177D01*
X85460808Y-86995019D01*
X85460798Y-86995009D01*
X85438536Y-86967883D01*
X85411410Y-86945622D01*
X84755000Y-86289212D01*
X84755000Y-86267911D01*
X84719068Y-86087271D01*
X84648586Y-85917111D01*
X84566814Y-85794731D01*
X84649494Y-85750537D01*
X84746185Y-85671185D01*
X84825537Y-85574494D01*
X84884502Y-85464180D01*
X84920812Y-85344482D01*
X84933072Y-85220000D01*
X84930000Y-84968250D01*
X84771250Y-84809500D01*
X83947000Y-84809500D01*
X83947000Y-84829500D01*
X83693000Y-84829500D01*
X83693000Y-84809500D01*
X82868750Y-84809500D01*
X82710000Y-84968250D01*
X82706928Y-85220000D01*
X82719188Y-85344482D01*
X82755498Y-85464180D01*
X82814463Y-85574494D01*
X82893815Y-85671185D01*
X82990506Y-85750537D01*
X83073186Y-85794731D01*
X82991414Y-85917111D01*
X82920932Y-86087271D01*
X82889761Y-86243974D01*
X82527602Y-85881815D01*
X82505327Y-85854673D01*
X82397033Y-85765798D01*
X82273481Y-85699758D01*
X82198926Y-85677142D01*
X82206185Y-85671185D01*
X82285537Y-85574494D01*
X82344502Y-85464180D01*
X82380812Y-85344482D01*
X82393072Y-85220000D01*
X82390000Y-84968250D01*
X82231250Y-84809500D01*
X81407000Y-84809500D01*
X81407000Y-84829500D01*
X81153000Y-84829500D01*
X81153000Y-84809500D01*
X80328750Y-84809500D01*
X80170000Y-84968250D01*
X80166928Y-85220000D01*
X80179188Y-85344482D01*
X80215498Y-85464180D01*
X80274463Y-85574494D01*
X80353815Y-85671185D01*
X80450506Y-85750537D01*
X80533186Y-85794731D01*
X80451414Y-85917111D01*
X80380932Y-86087271D01*
X80345000Y-86267911D01*
X80345000Y-86452089D01*
X80380932Y-86632729D01*
X80451414Y-86802889D01*
X80553738Y-86956028D01*
X80683972Y-87086262D01*
X80837111Y-87188586D01*
X81007271Y-87259068D01*
X81187911Y-87295000D01*
X81372089Y-87295000D01*
X81552729Y-87259068D01*
X81722889Y-87188586D01*
X81782781Y-87148568D01*
X82489282Y-87855069D01*
X82457071Y-87961255D01*
X82441928Y-88115000D01*
X82441928Y-88415000D01*
X82457071Y-88568745D01*
X82501916Y-88716582D01*
X82574742Y-88852829D01*
X82613454Y-88900000D01*
X82574742Y-88947171D01*
X82501916Y-89083418D01*
X82491519Y-89117692D01*
X80032904Y-91576309D01*
X79985258Y-91487171D01*
X79946546Y-91440000D01*
X79985258Y-91392829D01*
X80058084Y-91256582D01*
X80102929Y-91108745D01*
X80118072Y-90955000D01*
X80118072Y-90655000D01*
X80102929Y-90501255D01*
X80058084Y-90353418D01*
X79985258Y-90217171D01*
X79946546Y-90170000D01*
X79985258Y-90122829D01*
X80058084Y-89986582D01*
X80102929Y-89838745D01*
X80118072Y-89685000D01*
X80118072Y-89385000D01*
X80102929Y-89231255D01*
X80058084Y-89083418D01*
X79986270Y-88949064D01*
X80010537Y-88919494D01*
X80069502Y-88809180D01*
X80105812Y-88689482D01*
X80118072Y-88565000D01*
X80115000Y-88550750D01*
X79956250Y-88392000D01*
X78782000Y-88392000D01*
X78782000Y-88412000D01*
X78539547Y-88412000D01*
X78528000Y-88397930D01*
X78528000Y-88392000D01*
X78522070Y-88392000D01*
X78508000Y-88380453D01*
X78508000Y-88138000D01*
X78528000Y-88138000D01*
X78528000Y-87488750D01*
X78782000Y-87488750D01*
X78782000Y-88138000D01*
X79956250Y-88138000D01*
X80115000Y-87979250D01*
X80118072Y-87965000D01*
X80105812Y-87840518D01*
X80069502Y-87720820D01*
X80010537Y-87610506D01*
X79931185Y-87513815D01*
X79834494Y-87434463D01*
X79724180Y-87375498D01*
X79604482Y-87339188D01*
X79480000Y-87326928D01*
X78940750Y-87330000D01*
X78782000Y-87488750D01*
X78528000Y-87488750D01*
X78369250Y-87330000D01*
X77830000Y-87326928D01*
X77705518Y-87339188D01*
X77585820Y-87375498D01*
X77475506Y-87434463D01*
X77378815Y-87513815D01*
X77299463Y-87610506D01*
X77240498Y-87720820D01*
X77204188Y-87840518D01*
X77191928Y-87965000D01*
X77195000Y-87979250D01*
X77353748Y-88137998D01*
X77195000Y-88137998D01*
X77195000Y-88188800D01*
X76959819Y-88188800D01*
X76968072Y-88105000D01*
X76965000Y-87915750D01*
X76806250Y-87757000D01*
X75919500Y-87757000D01*
X75919500Y-87777000D01*
X75665500Y-87777000D01*
X75665500Y-87757000D01*
X75645500Y-87757000D01*
X75645500Y-87503000D01*
X75665500Y-87503000D01*
X75665500Y-86678750D01*
X75919500Y-86678750D01*
X75919500Y-87503000D01*
X76806250Y-87503000D01*
X76965000Y-87344250D01*
X76968072Y-87155000D01*
X76955812Y-87030518D01*
X76919502Y-86910820D01*
X76860537Y-86800506D01*
X76781185Y-86703815D01*
X76684494Y-86624463D01*
X76574180Y-86565498D01*
X76454482Y-86529188D01*
X76330000Y-86516928D01*
X76078250Y-86520000D01*
X75919500Y-86678750D01*
X75665500Y-86678750D01*
X75506750Y-86520000D01*
X75255000Y-86516928D01*
X75130518Y-86529188D01*
X75010820Y-86565498D01*
X74900506Y-86624463D01*
X74852606Y-86663774D01*
X74702567Y-86583577D01*
X74576455Y-86545321D01*
X74595000Y-86452089D01*
X74595000Y-86267911D01*
X74559068Y-86087271D01*
X74488586Y-85917111D01*
X74386262Y-85763972D01*
X74256028Y-85633738D01*
X74102889Y-85531414D01*
X73932729Y-85460932D01*
X73752089Y-85425000D01*
X73567911Y-85425000D01*
X73387271Y-85460932D01*
X73217111Y-85531414D01*
X73063972Y-85633738D01*
X73048910Y-85648800D01*
X72430786Y-85648800D01*
X72273475Y-85413368D01*
X72080107Y-85220000D01*
X77626928Y-85220000D01*
X77639188Y-85344482D01*
X77675498Y-85464180D01*
X77734463Y-85574494D01*
X77813815Y-85671185D01*
X77910506Y-85750537D01*
X78020820Y-85809502D01*
X78140518Y-85845812D01*
X78265000Y-85858072D01*
X78454250Y-85855000D01*
X78613000Y-85696250D01*
X78613000Y-84809500D01*
X78867000Y-84809500D01*
X78867000Y-85696250D01*
X79025750Y-85855000D01*
X79215000Y-85858072D01*
X79339482Y-85845812D01*
X79459180Y-85809502D01*
X79569494Y-85750537D01*
X79666185Y-85671185D01*
X79745537Y-85574494D01*
X79804502Y-85464180D01*
X79840812Y-85344482D01*
X79853072Y-85220000D01*
X79850000Y-84968250D01*
X79691250Y-84809500D01*
X78867000Y-84809500D01*
X78613000Y-84809500D01*
X77788750Y-84809500D01*
X77630000Y-84968250D01*
X77626928Y-85220000D01*
X72080107Y-85220000D01*
X72066632Y-85206525D01*
X71892240Y-85090000D01*
X72066632Y-84973475D01*
X72273475Y-84766632D01*
X72435990Y-84523411D01*
X72547932Y-84253158D01*
X72605000Y-83966260D01*
X72605000Y-83673740D01*
X72547932Y-83386842D01*
X72435990Y-83116589D01*
X72273475Y-82873368D01*
X72066632Y-82666525D01*
X71823411Y-82504010D01*
X71553158Y-82392068D01*
X71266260Y-82335000D01*
X70973740Y-82335000D01*
X70686842Y-82392068D01*
X70416589Y-82504010D01*
X70173368Y-82666525D01*
X69966525Y-82873368D01*
X69804010Y-83116589D01*
X69692068Y-83386842D01*
X69635000Y-83673740D01*
X69635000Y-83966260D01*
X69692068Y-84253158D01*
X69804010Y-84523411D01*
X69966525Y-84766632D01*
X70173368Y-84973475D01*
X70347760Y-85090000D01*
X70173368Y-85206525D01*
X69966525Y-85413368D01*
X69804010Y-85656589D01*
X69692068Y-85926842D01*
X69635000Y-86213740D01*
X69635000Y-86506260D01*
X69692068Y-86793158D01*
X69804010Y-87063411D01*
X69966525Y-87306632D01*
X70173368Y-87513475D01*
X70347760Y-87630000D01*
X70173368Y-87746525D01*
X69966525Y-87953368D01*
X69804010Y-88196589D01*
X69692068Y-88466842D01*
X69635000Y-88753740D01*
X69635000Y-89046260D01*
X69692068Y-89333158D01*
X69804010Y-89603411D01*
X69966525Y-89846632D01*
X70173368Y-90053475D01*
X70347760Y-90170000D01*
X70173368Y-90286525D01*
X69966525Y-90493368D01*
X69804010Y-90736589D01*
X69692068Y-91006842D01*
X69635000Y-91293740D01*
X69635000Y-91586260D01*
X69692068Y-91873158D01*
X69804010Y-92143411D01*
X69966525Y-92386632D01*
X70173368Y-92593475D01*
X70347760Y-92710000D01*
X70173368Y-92826525D01*
X69966525Y-93033368D01*
X69804010Y-93276589D01*
X69692068Y-93546842D01*
X69635000Y-93833740D01*
X69635000Y-94126260D01*
X69692068Y-94413158D01*
X69804010Y-94683411D01*
X69966525Y-94926632D01*
X70098380Y-95058487D01*
X70025820Y-95080498D01*
X69915506Y-95139463D01*
X69818815Y-95218815D01*
X69739463Y-95315506D01*
X69680498Y-95425820D01*
X69644188Y-95545518D01*
X69631928Y-95670000D01*
X69240000Y-95670000D01*
X69240000Y-80670000D01*
X97130000Y-80670000D01*
X97130001Y-99670000D01*
%TA.AperFunction,Conductor*%
D17*
G36*
X97130001Y-99670000D02*
G01*
X69240000Y-99670000D01*
X69240000Y-97370000D01*
X69631928Y-97370000D01*
X69644188Y-97494482D01*
X69680498Y-97614180D01*
X69739463Y-97724494D01*
X69818815Y-97821185D01*
X69915506Y-97900537D01*
X70025820Y-97959502D01*
X70145518Y-97995812D01*
X70270000Y-98008072D01*
X70834250Y-98005000D01*
X70993000Y-97846250D01*
X70993000Y-96647000D01*
X71247000Y-96647000D01*
X71247000Y-97846250D01*
X71405750Y-98005000D01*
X71970000Y-98008072D01*
X72094482Y-97995812D01*
X72214180Y-97959502D01*
X72324494Y-97900537D01*
X72421185Y-97821185D01*
X72500537Y-97724494D01*
X72559502Y-97614180D01*
X72595812Y-97494482D01*
X72608072Y-97370000D01*
X72605000Y-96805750D01*
X72446250Y-96647000D01*
X71247000Y-96647000D01*
X70993000Y-96647000D01*
X69793750Y-96647000D01*
X69635000Y-96805750D01*
X69631928Y-97370000D01*
X69240000Y-97370000D01*
X69240000Y-95670000D01*
X69631928Y-95670000D01*
X69635000Y-96234250D01*
X69793750Y-96393000D01*
X70993000Y-96393000D01*
X70993000Y-96373000D01*
X71247000Y-96373000D01*
X71247000Y-96393000D01*
X72446250Y-96393000D01*
X72605000Y-96234250D01*
X72608072Y-95670000D01*
X72595812Y-95545518D01*
X72559502Y-95425820D01*
X72500537Y-95315506D01*
X72421185Y-95218815D01*
X72324494Y-95139463D01*
X72214180Y-95080498D01*
X72141620Y-95058487D01*
X72273475Y-94926632D01*
X72430786Y-94691200D01*
X76715074Y-94691200D01*
X76750000Y-94694640D01*
X76784926Y-94691200D01*
X76784936Y-94691200D01*
X76889420Y-94680909D01*
X77023481Y-94640242D01*
X77147033Y-94574202D01*
X77255327Y-94485327D01*
X77277602Y-94458185D01*
X78722716Y-93013072D01*
X79298800Y-93013072D01*
X79298801Y-94622677D01*
X79286058Y-94629488D01*
X79153377Y-94738377D01*
X79044488Y-94871058D01*
X78963577Y-95022433D01*
X78913752Y-95186684D01*
X78896928Y-95357500D01*
X78896928Y-95857500D01*
X78913752Y-96028316D01*
X78963577Y-96192567D01*
X79044488Y-96343942D01*
X79153377Y-96476623D01*
X79206232Y-96520000D01*
X79153377Y-96563377D01*
X79044488Y-96696058D01*
X78963577Y-96847433D01*
X78913752Y-97011684D01*
X78896928Y-97182500D01*
X78896928Y-97682500D01*
X78913752Y-97853316D01*
X78963577Y-98017567D01*
X79044488Y-98168942D01*
X79153377Y-98301623D01*
X79286058Y-98410512D01*
X79437433Y-98491423D01*
X79601684Y-98541248D01*
X79772500Y-98558072D01*
X80247500Y-98558072D01*
X80418316Y-98541248D01*
X80582567Y-98491423D01*
X80733942Y-98410512D01*
X80866623Y-98301623D01*
X80975512Y-98168942D01*
X80989004Y-98143700D01*
X82445996Y-98143700D01*
X82459488Y-98168942D01*
X82568377Y-98301623D01*
X82701058Y-98410512D01*
X82852433Y-98491423D01*
X83016684Y-98541248D01*
X83187500Y-98558072D01*
X83662500Y-98558072D01*
X83833316Y-98541248D01*
X83997567Y-98491423D01*
X84148942Y-98410512D01*
X84281623Y-98301623D01*
X84390512Y-98168942D01*
X84471423Y-98017567D01*
X84521248Y-97853316D01*
X84538072Y-97682500D01*
X84538072Y-97107500D01*
X84521248Y-96936684D01*
X84471423Y-96772433D01*
X84390512Y-96621058D01*
X84370901Y-96597161D01*
X84430537Y-96524494D01*
X84489502Y-96414180D01*
X84525812Y-96294482D01*
X84530922Y-96242588D01*
X92359414Y-96242588D01*
X92387051Y-96359221D01*
X92511564Y-96644983D01*
X92689434Y-96900962D01*
X92913825Y-97117322D01*
X93176114Y-97285748D01*
X93466222Y-97399768D01*
X93773000Y-97455000D01*
X94573000Y-97455000D01*
X94573000Y-95997000D01*
X94827000Y-95997000D01*
X94827000Y-97455000D01*
X95627000Y-97455000D01*
X95933778Y-97399768D01*
X96223886Y-97285748D01*
X96486175Y-97117322D01*
X96710566Y-96900962D01*
X96888436Y-96644983D01*
X97012949Y-96359221D01*
X97040586Y-96242588D01*
X96920584Y-95997000D01*
X94827000Y-95997000D01*
X94573000Y-95997000D01*
X92479416Y-95997000D01*
X92359414Y-96242588D01*
X84530922Y-96242588D01*
X84538072Y-96170000D01*
X84535000Y-95930750D01*
X84376250Y-95772000D01*
X83552000Y-95772000D01*
X83552000Y-95792000D01*
X83298000Y-95792000D01*
X83298000Y-95772000D01*
X82473750Y-95772000D01*
X82315000Y-95930750D01*
X82311928Y-96170000D01*
X82324188Y-96294482D01*
X82360498Y-96414180D01*
X82419463Y-96524494D01*
X82479099Y-96597161D01*
X82459488Y-96621058D01*
X82405908Y-96721300D01*
X80989004Y-96721300D01*
X80975512Y-96696058D01*
X80866623Y-96563377D01*
X80813768Y-96520000D01*
X80866623Y-96476623D01*
X80975512Y-96343942D01*
X81056423Y-96192567D01*
X81106248Y-96028316D01*
X81123072Y-95857500D01*
X81123072Y-95357500D01*
X81106248Y-95186684D01*
X81086020Y-95120000D01*
X82311928Y-95120000D01*
X82315000Y-95359250D01*
X82473750Y-95518000D01*
X83298000Y-95518000D01*
X83298000Y-94643750D01*
X83552000Y-94643750D01*
X83552000Y-95518000D01*
X84376250Y-95518000D01*
X84535000Y-95359250D01*
X84538072Y-95120000D01*
X84525812Y-94995518D01*
X84489502Y-94875820D01*
X84430537Y-94765506D01*
X84351185Y-94668815D01*
X84254494Y-94589463D01*
X84144180Y-94530498D01*
X84024482Y-94494188D01*
X83900000Y-94481928D01*
X83710750Y-94485000D01*
X83552000Y-94643750D01*
X83298000Y-94643750D01*
X83139250Y-94485000D01*
X82950000Y-94481928D01*
X82825518Y-94494188D01*
X82705820Y-94530498D01*
X82595506Y-94589463D01*
X82498815Y-94668815D01*
X82419463Y-94765506D01*
X82360498Y-94875820D01*
X82324188Y-94995518D01*
X82311928Y-95120000D01*
X81086020Y-95120000D01*
X81056423Y-95022433D01*
X80975512Y-94871058D01*
X80866623Y-94738377D01*
X80733942Y-94629488D01*
X80721200Y-94622677D01*
X80721200Y-92899587D01*
X82469865Y-91150923D01*
X82501916Y-91256582D01*
X82574742Y-91392829D01*
X82613454Y-91440000D01*
X82574742Y-91487171D01*
X82501916Y-91623418D01*
X82457071Y-91771255D01*
X82441928Y-91925000D01*
X82441928Y-92225000D01*
X82457071Y-92378745D01*
X82501916Y-92526582D01*
X82574742Y-92662829D01*
X82672749Y-92782251D01*
X82792171Y-92880258D01*
X82928418Y-92953084D01*
X83076255Y-92997929D01*
X83230000Y-93013072D01*
X84580000Y-93013072D01*
X84733745Y-92997929D01*
X84881582Y-92953084D01*
X85017829Y-92880258D01*
X85137251Y-92782251D01*
X85235258Y-92662829D01*
X85308084Y-92526582D01*
X85352929Y-92378745D01*
X85368072Y-92225000D01*
X85368072Y-92151200D01*
X85732677Y-92151200D01*
X85739488Y-92163942D01*
X85848377Y-92296623D01*
X85981058Y-92405512D01*
X86006300Y-92419004D01*
X86006301Y-93000996D01*
X85981058Y-93014488D01*
X85848377Y-93123377D01*
X85739488Y-93256058D01*
X85658577Y-93407433D01*
X85608752Y-93571684D01*
X85591928Y-93742500D01*
X85591928Y-94217500D01*
X85608752Y-94388316D01*
X85658577Y-94552567D01*
X85739488Y-94703942D01*
X85848377Y-94836623D01*
X85981058Y-94945512D01*
X86132433Y-95026423D01*
X86296684Y-95076248D01*
X86467500Y-95093072D01*
X87067500Y-95093072D01*
X87238316Y-95076248D01*
X87402567Y-95026423D01*
X87552606Y-94946226D01*
X87600506Y-94985537D01*
X87710820Y-95044502D01*
X87830518Y-95080812D01*
X87955000Y-95093072D01*
X88206750Y-95090000D01*
X88365500Y-94931250D01*
X88365500Y-94107000D01*
X88619500Y-94107000D01*
X88619500Y-94931250D01*
X88778250Y-95090000D01*
X89030000Y-95093072D01*
X89154482Y-95080812D01*
X89274180Y-95044502D01*
X89384494Y-94985537D01*
X89481185Y-94906185D01*
X89560537Y-94809494D01*
X89619502Y-94699180D01*
X89655812Y-94579482D01*
X89668072Y-94455000D01*
X89665000Y-94265750D01*
X89619250Y-94220000D01*
X90061928Y-94220000D01*
X90074188Y-94344482D01*
X90110498Y-94464180D01*
X90169463Y-94574494D01*
X90248815Y-94671185D01*
X90345506Y-94750537D01*
X90455820Y-94809502D01*
X90575518Y-94845812D01*
X90700000Y-94858072D01*
X91664250Y-94855000D01*
X91823000Y-94696250D01*
X91823000Y-93797000D01*
X92077000Y-93797000D01*
X92077000Y-94696250D01*
X92235750Y-94855000D01*
X92677365Y-94856407D01*
X92511564Y-95095017D01*
X92387051Y-95380779D01*
X92359414Y-95497412D01*
X92479416Y-95743000D01*
X94573000Y-95743000D01*
X94573000Y-94285000D01*
X94827000Y-94285000D01*
X94827000Y-95743000D01*
X96920584Y-95743000D01*
X97040586Y-95497412D01*
X97012949Y-95380779D01*
X96888436Y-95095017D01*
X96710566Y-94839038D01*
X96486175Y-94622678D01*
X96223886Y-94454252D01*
X95933778Y-94340232D01*
X95627000Y-94285000D01*
X94827000Y-94285000D01*
X94573000Y-94285000D01*
X93831670Y-94285000D01*
X93838072Y-94220000D01*
X93835000Y-93955750D01*
X93676250Y-93797000D01*
X92077000Y-93797000D01*
X91823000Y-93797000D01*
X90223750Y-93797000D01*
X90065000Y-93955750D01*
X90061928Y-94220000D01*
X89619250Y-94220000D01*
X89506250Y-94107000D01*
X88619500Y-94107000D01*
X88365500Y-94107000D01*
X88345500Y-94107000D01*
X88345500Y-93853000D01*
X88365500Y-93853000D01*
X88365500Y-93028750D01*
X88619500Y-93028750D01*
X88619500Y-93853000D01*
X89506250Y-93853000D01*
X89665000Y-93694250D01*
X89668072Y-93505000D01*
X89655812Y-93380518D01*
X89619502Y-93260820D01*
X89560537Y-93150506D01*
X89535502Y-93120000D01*
X90061928Y-93120000D01*
X90065000Y-93384250D01*
X90223750Y-93543000D01*
X91823000Y-93543000D01*
X91823000Y-92643750D01*
X91664250Y-92485000D01*
X90700000Y-92481928D01*
X90575518Y-92494188D01*
X90455820Y-92530498D01*
X90345506Y-92589463D01*
X90248815Y-92668815D01*
X90169463Y-92765506D01*
X90110498Y-92875820D01*
X90074188Y-92995518D01*
X90061928Y-93120000D01*
X89535502Y-93120000D01*
X89481185Y-93053815D01*
X89384494Y-92974463D01*
X89274180Y-92915498D01*
X89154482Y-92879188D01*
X89030000Y-92866928D01*
X88778250Y-92870000D01*
X88619500Y-93028750D01*
X88365500Y-93028750D01*
X88206750Y-92870000D01*
X87955000Y-92866928D01*
X87830518Y-92879188D01*
X87710820Y-92915498D01*
X87600506Y-92974463D01*
X87552606Y-93013774D01*
X87428700Y-92947545D01*
X87428700Y-92419004D01*
X87453942Y-92405512D01*
X87586623Y-92296623D01*
X87630000Y-92243768D01*
X87673377Y-92296623D01*
X87806058Y-92405512D01*
X87957433Y-92486423D01*
X88121684Y-92536248D01*
X88292500Y-92553072D01*
X88792500Y-92553072D01*
X88963316Y-92536248D01*
X89127567Y-92486423D01*
X89278942Y-92405512D01*
X89411623Y-92296623D01*
X89520512Y-92163942D01*
X89527323Y-92151200D01*
X90232414Y-92151200D01*
X90248815Y-92171185D01*
X90345506Y-92250537D01*
X90455820Y-92309502D01*
X90575518Y-92345812D01*
X90700000Y-92358072D01*
X93200000Y-92358072D01*
X93324482Y-92345812D01*
X93444180Y-92309502D01*
X93533171Y-92261934D01*
X93515000Y-92353288D01*
X93515000Y-92568353D01*
X93444180Y-92530498D01*
X93324482Y-92494188D01*
X93200000Y-92481928D01*
X92235750Y-92485000D01*
X92077000Y-92643750D01*
X92077000Y-93543000D01*
X93676250Y-93543000D01*
X93835000Y-93384250D01*
X93836188Y-93282032D01*
X93944606Y-93390450D01*
X94138692Y-93520134D01*
X94354348Y-93609461D01*
X94583288Y-93655000D01*
X94816712Y-93655000D01*
X95045652Y-93609461D01*
X95261308Y-93520134D01*
X95455394Y-93390450D01*
X95620450Y-93225394D01*
X95750134Y-93031308D01*
X95839461Y-92815652D01*
X95885000Y-92586712D01*
X95885000Y-92353288D01*
X95839461Y-92124348D01*
X95750134Y-91908692D01*
X95620450Y-91714606D01*
X95455394Y-91549550D01*
X95261308Y-91419866D01*
X95045652Y-91330539D01*
X94816712Y-91285000D01*
X94583288Y-91285000D01*
X94354348Y-91330539D01*
X94138692Y-91419866D01*
X93944606Y-91549550D01*
X93838072Y-91656084D01*
X93838072Y-90620000D01*
X93825812Y-90495518D01*
X93789502Y-90375820D01*
X93730537Y-90265506D01*
X93652158Y-90170000D01*
X93730537Y-90074494D01*
X93789502Y-89964180D01*
X93825812Y-89844482D01*
X93838072Y-89720000D01*
X93838072Y-88683916D01*
X93944606Y-88790450D01*
X94138692Y-88920134D01*
X94354348Y-89009461D01*
X94583288Y-89055000D01*
X94816712Y-89055000D01*
X95045652Y-89009461D01*
X95261308Y-88920134D01*
X95455394Y-88790450D01*
X95620450Y-88625394D01*
X95750134Y-88431308D01*
X95839461Y-88215652D01*
X95885000Y-87986712D01*
X95885000Y-87753288D01*
X95839461Y-87524348D01*
X95750134Y-87308692D01*
X95620450Y-87114606D01*
X95455394Y-86949550D01*
X95261308Y-86819866D01*
X95045652Y-86730539D01*
X94816712Y-86685000D01*
X94583288Y-86685000D01*
X94354348Y-86730539D01*
X94138692Y-86819866D01*
X93944606Y-86949550D01*
X93838072Y-87056084D01*
X93838072Y-86120000D01*
X93831670Y-86055000D01*
X94573000Y-86055000D01*
X94573000Y-84597000D01*
X94827000Y-84597000D01*
X94827000Y-86055000D01*
X95627000Y-86055000D01*
X95933778Y-85999768D01*
X96223886Y-85885748D01*
X96486175Y-85717322D01*
X96710566Y-85500962D01*
X96888436Y-85244983D01*
X97012949Y-84959221D01*
X97040586Y-84842588D01*
X96920584Y-84597000D01*
X94827000Y-84597000D01*
X94573000Y-84597000D01*
X92479416Y-84597000D01*
X92359414Y-84842588D01*
X92387051Y-84959221D01*
X92511564Y-85244983D01*
X92676208Y-85481928D01*
X91767716Y-85481928D01*
X90383200Y-84097412D01*
X92359414Y-84097412D01*
X92479416Y-84343000D01*
X94573000Y-84343000D01*
X94573000Y-82885000D01*
X94827000Y-82885000D01*
X94827000Y-84343000D01*
X96920584Y-84343000D01*
X97040586Y-84097412D01*
X97012949Y-83980779D01*
X96888436Y-83695017D01*
X96710566Y-83439038D01*
X96486175Y-83222678D01*
X96223886Y-83054252D01*
X95933778Y-82940232D01*
X95627000Y-82885000D01*
X94827000Y-82885000D01*
X94573000Y-82885000D01*
X93773000Y-82885000D01*
X93466222Y-82940232D01*
X93176114Y-83054252D01*
X92913825Y-83222678D01*
X92689434Y-83439038D01*
X92511564Y-83695017D01*
X92387051Y-83980779D01*
X92359414Y-84097412D01*
X90383200Y-84097412D01*
X88765102Y-82479315D01*
X88742827Y-82452173D01*
X88634533Y-82363298D01*
X88510981Y-82297258D01*
X88376920Y-82256591D01*
X88272436Y-82246300D01*
X88272426Y-82246300D01*
X88237500Y-82242860D01*
X88202574Y-82246300D01*
X84825729Y-82246300D01*
X84785512Y-82171058D01*
X84676623Y-82038377D01*
X84543942Y-81929488D01*
X84392567Y-81848577D01*
X84228316Y-81798752D01*
X84057500Y-81781928D01*
X83582500Y-81781928D01*
X83411684Y-81798752D01*
X83247433Y-81848577D01*
X83096058Y-81929488D01*
X82963377Y-82038377D01*
X82854488Y-82171058D01*
X82814271Y-82246300D01*
X82285729Y-82246300D01*
X82245512Y-82171058D01*
X82136623Y-82038377D01*
X82003942Y-81929488D01*
X81852567Y-81848577D01*
X81688316Y-81798752D01*
X81517500Y-81781928D01*
X81042500Y-81781928D01*
X80871684Y-81798752D01*
X80707433Y-81848577D01*
X80556058Y-81929488D01*
X80423377Y-82038377D01*
X80314488Y-82171058D01*
X80274271Y-82246300D01*
X79745729Y-82246300D01*
X79705512Y-82171058D01*
X79596623Y-82038377D01*
X79463942Y-81929488D01*
X79312567Y-81848577D01*
X79148316Y-81798752D01*
X78977500Y-81781928D01*
X78502500Y-81781928D01*
X78331684Y-81798752D01*
X78167433Y-81848577D01*
X78016058Y-81929488D01*
X77883377Y-82038377D01*
X77774488Y-82171058D01*
X77734271Y-82246300D01*
X75827425Y-82246300D01*
X75792499Y-82242860D01*
X75757573Y-82246300D01*
X75757564Y-82246300D01*
X75653080Y-82256591D01*
X75519019Y-82297258D01*
X75395467Y-82363298D01*
X75287173Y-82452173D01*
X75264903Y-82479310D01*
X74859212Y-82885000D01*
X74837911Y-82885000D01*
X74657271Y-82920932D01*
X74487111Y-82991414D01*
X74333972Y-83093738D01*
X74203738Y-83223972D01*
X74101414Y-83377111D01*
X74030932Y-83547271D01*
X73995000Y-83727911D01*
X73995000Y-83912089D01*
X74030932Y-84092729D01*
X74101414Y-84262889D01*
X74203738Y-84416028D01*
X74333972Y-84546262D01*
X74487111Y-84648586D01*
X74657271Y-84719068D01*
X74837911Y-84755000D01*
X75022089Y-84755000D01*
X75202729Y-84719068D01*
X75372889Y-84648586D01*
X75526028Y-84546262D01*
X75656262Y-84416028D01*
X75758586Y-84262889D01*
X75829068Y-84092729D01*
X75865000Y-83912089D01*
X75865000Y-83890788D01*
X76087088Y-83668700D01*
X77734271Y-83668700D01*
X77773774Y-83742606D01*
X77734463Y-83790506D01*
X77675498Y-83900820D01*
X77639188Y-84020518D01*
X77626928Y-84145000D01*
X77630000Y-84396750D01*
X77788750Y-84555500D01*
X78613000Y-84555500D01*
X78613000Y-84535500D01*
X78867000Y-84535500D01*
X78867000Y-84555500D01*
X79691250Y-84555500D01*
X79850000Y-84396750D01*
X79853072Y-84145000D01*
X79840812Y-84020518D01*
X79804502Y-83900820D01*
X79745537Y-83790506D01*
X79706226Y-83742606D01*
X79745729Y-83668700D01*
X80274271Y-83668700D01*
X80313774Y-83742606D01*
X80274463Y-83790506D01*
X80215498Y-83900820D01*
X80179188Y-84020518D01*
X80166928Y-84145000D01*
X80170000Y-84396750D01*
X80328750Y-84555500D01*
X81153000Y-84555500D01*
X81153000Y-84535500D01*
X81407000Y-84535500D01*
X81407000Y-84555500D01*
X82231250Y-84555500D01*
X82390000Y-84396750D01*
X82393072Y-84145000D01*
X82380812Y-84020518D01*
X82344502Y-83900820D01*
X82285537Y-83790506D01*
X82246226Y-83742606D01*
X82285729Y-83668700D01*
X82814271Y-83668700D01*
X82853774Y-83742606D01*
X82814463Y-83790506D01*
X82755498Y-83900820D01*
X82719188Y-84020518D01*
X82706928Y-84145000D01*
X82710000Y-84396750D01*
X82868750Y-84555500D01*
X83693000Y-84555500D01*
X83693000Y-84535500D01*
X83947000Y-84535500D01*
X83947000Y-84555500D01*
X84771250Y-84555500D01*
X84930000Y-84396750D01*
X84933072Y-84145000D01*
X84920812Y-84020518D01*
X84884502Y-83900820D01*
X84825537Y-83790506D01*
X84786226Y-83742606D01*
X84825729Y-83668700D01*
X87942913Y-83668700D01*
X90124269Y-85850057D01*
X90110498Y-85875820D01*
X90074188Y-85995518D01*
X90061928Y-86120000D01*
X90061928Y-87220000D01*
X90074188Y-87344482D01*
X90110498Y-87464180D01*
X90169463Y-87574494D01*
X90248815Y-87671185D01*
X90345506Y-87750537D01*
X90455820Y-87809502D01*
X90575518Y-87845812D01*
X90700000Y-87858072D01*
X93200000Y-87858072D01*
X93324482Y-87845812D01*
X93444180Y-87809502D01*
X93515000Y-87771647D01*
X93515000Y-87986712D01*
X93533171Y-88078066D01*
X93444180Y-88030498D01*
X93324482Y-87994188D01*
X93200000Y-87981928D01*
X90700000Y-87981928D01*
X90575518Y-87994188D01*
X90455820Y-88030498D01*
X90345506Y-88089463D01*
X90248815Y-88168815D01*
X90232414Y-88188800D01*
X89527323Y-88188800D01*
X89520512Y-88176058D01*
X89411623Y-88043377D01*
X89278942Y-87934488D01*
X89127567Y-87853577D01*
X88963316Y-87803752D01*
X88792500Y-87786928D01*
X88292500Y-87786928D01*
X88121684Y-87803752D01*
X87957433Y-87853577D01*
X87806058Y-87934488D01*
X87673377Y-88043377D01*
X87630000Y-88096232D01*
X87586623Y-88043377D01*
X87478700Y-87954806D01*
X87478700Y-87365729D01*
X87552606Y-87326226D01*
X87600506Y-87365537D01*
X87710820Y-87424502D01*
X87830518Y-87460812D01*
X87955000Y-87473072D01*
X88206750Y-87470000D01*
X88365500Y-87311250D01*
X88365500Y-86487000D01*
X88619500Y-86487000D01*
X88619500Y-87311250D01*
X88778250Y-87470000D01*
X89030000Y-87473072D01*
X89154482Y-87460812D01*
X89274180Y-87424502D01*
X89384494Y-87365537D01*
X89481185Y-87286185D01*
X89560537Y-87189494D01*
X89619502Y-87079180D01*
X89655812Y-86959482D01*
X89668072Y-86835000D01*
X89665000Y-86645750D01*
X89506250Y-86487000D01*
X88619500Y-86487000D01*
X88365500Y-86487000D01*
X88345500Y-86487000D01*
X88345500Y-86233000D01*
X88365500Y-86233000D01*
X88365500Y-85408750D01*
X88619500Y-85408750D01*
X88619500Y-86233000D01*
X89506250Y-86233000D01*
X89665000Y-86074250D01*
X89668072Y-85885000D01*
X89655812Y-85760518D01*
X89619502Y-85640820D01*
X89560537Y-85530506D01*
X89481185Y-85433815D01*
X89384494Y-85354463D01*
X89274180Y-85295498D01*
X89154482Y-85259188D01*
X89030000Y-85246928D01*
X88778250Y-85250000D01*
X88619500Y-85408750D01*
X88365500Y-85408750D01*
X88206750Y-85250000D01*
X87955000Y-85246928D01*
X87830518Y-85259188D01*
X87710820Y-85295498D01*
X87600506Y-85354463D01*
X87552606Y-85393774D01*
X87402567Y-85313577D01*
X87238316Y-85263752D01*
X87067500Y-85246928D01*
X86467500Y-85246928D01*
X86296684Y-85263752D01*
X86132433Y-85313577D01*
X85981058Y-85394488D01*
X85848377Y-85503377D01*
X85739488Y-85636058D01*
X85658577Y-85787433D01*
X85608752Y-85951684D01*
X85591928Y-86122500D01*
X85591928Y-86597500D01*
X85608752Y-86768316D01*
X85658577Y-86932567D01*
X85739488Y-87083942D01*
X85848377Y-87216623D01*
X85981058Y-87325512D01*
X86056300Y-87365730D01*
X86056301Y-87894270D01*
X85981058Y-87934488D01*
X85848377Y-88043377D01*
X85739488Y-88176058D01*
X85658577Y-88327433D01*
X85644410Y-88374135D01*
X85644410Y-87508138D01*
X85647850Y-87473210D01*
X85644410Y-87438281D01*
X85644410Y-87438274D01*
X85634119Y-87333790D01*
X85598577Y-87216623D01*
X85593452Y-87199728D01*
X85527412Y-87076177D01*
X85460808Y-86995019D01*
X85460798Y-86995009D01*
X85438536Y-86967883D01*
X85411410Y-86945622D01*
X84755000Y-86289212D01*
X84755000Y-86267911D01*
X84719068Y-86087271D01*
X84648586Y-85917111D01*
X84566814Y-85794731D01*
X84649494Y-85750537D01*
X84746185Y-85671185D01*
X84825537Y-85574494D01*
X84884502Y-85464180D01*
X84920812Y-85344482D01*
X84933072Y-85220000D01*
X84930000Y-84968250D01*
X84771250Y-84809500D01*
X83947000Y-84809500D01*
X83947000Y-84829500D01*
X83693000Y-84829500D01*
X83693000Y-84809500D01*
X82868750Y-84809500D01*
X82710000Y-84968250D01*
X82706928Y-85220000D01*
X82719188Y-85344482D01*
X82755498Y-85464180D01*
X82814463Y-85574494D01*
X82893815Y-85671185D01*
X82990506Y-85750537D01*
X83073186Y-85794731D01*
X82991414Y-85917111D01*
X82920932Y-86087271D01*
X82889761Y-86243974D01*
X82527602Y-85881815D01*
X82505327Y-85854673D01*
X82397033Y-85765798D01*
X82273481Y-85699758D01*
X82198926Y-85677142D01*
X82206185Y-85671185D01*
X82285537Y-85574494D01*
X82344502Y-85464180D01*
X82380812Y-85344482D01*
X82393072Y-85220000D01*
X82390000Y-84968250D01*
X82231250Y-84809500D01*
X81407000Y-84809500D01*
X81407000Y-84829500D01*
X81153000Y-84829500D01*
X81153000Y-84809500D01*
X80328750Y-84809500D01*
X80170000Y-84968250D01*
X80166928Y-85220000D01*
X80179188Y-85344482D01*
X80215498Y-85464180D01*
X80274463Y-85574494D01*
X80353815Y-85671185D01*
X80450506Y-85750537D01*
X80533186Y-85794731D01*
X80451414Y-85917111D01*
X80380932Y-86087271D01*
X80345000Y-86267911D01*
X80345000Y-86452089D01*
X80380932Y-86632729D01*
X80451414Y-86802889D01*
X80553738Y-86956028D01*
X80683972Y-87086262D01*
X80837111Y-87188586D01*
X81007271Y-87259068D01*
X81187911Y-87295000D01*
X81372089Y-87295000D01*
X81552729Y-87259068D01*
X81722889Y-87188586D01*
X81782781Y-87148568D01*
X82489282Y-87855069D01*
X82457071Y-87961255D01*
X82441928Y-88115000D01*
X82441928Y-88415000D01*
X82457071Y-88568745D01*
X82501916Y-88716582D01*
X82574742Y-88852829D01*
X82613454Y-88900000D01*
X82574742Y-88947171D01*
X82501916Y-89083418D01*
X82491519Y-89117692D01*
X80032904Y-91576309D01*
X79985258Y-91487171D01*
X79946546Y-91440000D01*
X79985258Y-91392829D01*
X80058084Y-91256582D01*
X80102929Y-91108745D01*
X80118072Y-90955000D01*
X80118072Y-90655000D01*
X80102929Y-90501255D01*
X80058084Y-90353418D01*
X79985258Y-90217171D01*
X79946546Y-90170000D01*
X79985258Y-90122829D01*
X80058084Y-89986582D01*
X80102929Y-89838745D01*
X80118072Y-89685000D01*
X80118072Y-89385000D01*
X80102929Y-89231255D01*
X80058084Y-89083418D01*
X79986270Y-88949064D01*
X80010537Y-88919494D01*
X80069502Y-88809180D01*
X80105812Y-88689482D01*
X80118072Y-88565000D01*
X80115000Y-88550750D01*
X79956250Y-88392000D01*
X78782000Y-88392000D01*
X78782000Y-88412000D01*
X78539547Y-88412000D01*
X78528000Y-88397930D01*
X78528000Y-88392000D01*
X78522070Y-88392000D01*
X78508000Y-88380453D01*
X78508000Y-88138000D01*
X78528000Y-88138000D01*
X78528000Y-87488750D01*
X78782000Y-87488750D01*
X78782000Y-88138000D01*
X79956250Y-88138000D01*
X80115000Y-87979250D01*
X80118072Y-87965000D01*
X80105812Y-87840518D01*
X80069502Y-87720820D01*
X80010537Y-87610506D01*
X79931185Y-87513815D01*
X79834494Y-87434463D01*
X79724180Y-87375498D01*
X79604482Y-87339188D01*
X79480000Y-87326928D01*
X78940750Y-87330000D01*
X78782000Y-87488750D01*
X78528000Y-87488750D01*
X78369250Y-87330000D01*
X77830000Y-87326928D01*
X77705518Y-87339188D01*
X77585820Y-87375498D01*
X77475506Y-87434463D01*
X77378815Y-87513815D01*
X77299463Y-87610506D01*
X77240498Y-87720820D01*
X77204188Y-87840518D01*
X77191928Y-87965000D01*
X77195000Y-87979250D01*
X77353748Y-88137998D01*
X77195000Y-88137998D01*
X77195000Y-88188800D01*
X76959819Y-88188800D01*
X76968072Y-88105000D01*
X76965000Y-87915750D01*
X76806250Y-87757000D01*
X75919500Y-87757000D01*
X75919500Y-87777000D01*
X75665500Y-87777000D01*
X75665500Y-87757000D01*
X75645500Y-87757000D01*
X75645500Y-87503000D01*
X75665500Y-87503000D01*
X75665500Y-86678750D01*
X75919500Y-86678750D01*
X75919500Y-87503000D01*
X76806250Y-87503000D01*
X76965000Y-87344250D01*
X76968072Y-87155000D01*
X76955812Y-87030518D01*
X76919502Y-86910820D01*
X76860537Y-86800506D01*
X76781185Y-86703815D01*
X76684494Y-86624463D01*
X76574180Y-86565498D01*
X76454482Y-86529188D01*
X76330000Y-86516928D01*
X76078250Y-86520000D01*
X75919500Y-86678750D01*
X75665500Y-86678750D01*
X75506750Y-86520000D01*
X75255000Y-86516928D01*
X75130518Y-86529188D01*
X75010820Y-86565498D01*
X74900506Y-86624463D01*
X74852606Y-86663774D01*
X74702567Y-86583577D01*
X74576455Y-86545321D01*
X74595000Y-86452089D01*
X74595000Y-86267911D01*
X74559068Y-86087271D01*
X74488586Y-85917111D01*
X74386262Y-85763972D01*
X74256028Y-85633738D01*
X74102889Y-85531414D01*
X73932729Y-85460932D01*
X73752089Y-85425000D01*
X73567911Y-85425000D01*
X73387271Y-85460932D01*
X73217111Y-85531414D01*
X73063972Y-85633738D01*
X73048910Y-85648800D01*
X72430786Y-85648800D01*
X72273475Y-85413368D01*
X72080107Y-85220000D01*
X77626928Y-85220000D01*
X77639188Y-85344482D01*
X77675498Y-85464180D01*
X77734463Y-85574494D01*
X77813815Y-85671185D01*
X77910506Y-85750537D01*
X78020820Y-85809502D01*
X78140518Y-85845812D01*
X78265000Y-85858072D01*
X78454250Y-85855000D01*
X78613000Y-85696250D01*
X78613000Y-84809500D01*
X78867000Y-84809500D01*
X78867000Y-85696250D01*
X79025750Y-85855000D01*
X79215000Y-85858072D01*
X79339482Y-85845812D01*
X79459180Y-85809502D01*
X79569494Y-85750537D01*
X79666185Y-85671185D01*
X79745537Y-85574494D01*
X79804502Y-85464180D01*
X79840812Y-85344482D01*
X79853072Y-85220000D01*
X79850000Y-84968250D01*
X79691250Y-84809500D01*
X78867000Y-84809500D01*
X78613000Y-84809500D01*
X77788750Y-84809500D01*
X77630000Y-84968250D01*
X77626928Y-85220000D01*
X72080107Y-85220000D01*
X72066632Y-85206525D01*
X71892240Y-85090000D01*
X72066632Y-84973475D01*
X72273475Y-84766632D01*
X72435990Y-84523411D01*
X72547932Y-84253158D01*
X72605000Y-83966260D01*
X72605000Y-83673740D01*
X72547932Y-83386842D01*
X72435990Y-83116589D01*
X72273475Y-82873368D01*
X72066632Y-82666525D01*
X71823411Y-82504010D01*
X71553158Y-82392068D01*
X71266260Y-82335000D01*
X70973740Y-82335000D01*
X70686842Y-82392068D01*
X70416589Y-82504010D01*
X70173368Y-82666525D01*
X69966525Y-82873368D01*
X69804010Y-83116589D01*
X69692068Y-83386842D01*
X69635000Y-83673740D01*
X69635000Y-83966260D01*
X69692068Y-84253158D01*
X69804010Y-84523411D01*
X69966525Y-84766632D01*
X70173368Y-84973475D01*
X70347760Y-85090000D01*
X70173368Y-85206525D01*
X69966525Y-85413368D01*
X69804010Y-85656589D01*
X69692068Y-85926842D01*
X69635000Y-86213740D01*
X69635000Y-86506260D01*
X69692068Y-86793158D01*
X69804010Y-87063411D01*
X69966525Y-87306632D01*
X70173368Y-87513475D01*
X70347760Y-87630000D01*
X70173368Y-87746525D01*
X69966525Y-87953368D01*
X69804010Y-88196589D01*
X69692068Y-88466842D01*
X69635000Y-88753740D01*
X69635000Y-89046260D01*
X69692068Y-89333158D01*
X69804010Y-89603411D01*
X69966525Y-89846632D01*
X70173368Y-90053475D01*
X70347760Y-90170000D01*
X70173368Y-90286525D01*
X69966525Y-90493368D01*
X69804010Y-90736589D01*
X69692068Y-91006842D01*
X69635000Y-91293740D01*
X69635000Y-91586260D01*
X69692068Y-91873158D01*
X69804010Y-92143411D01*
X69966525Y-92386632D01*
X70173368Y-92593475D01*
X70347760Y-92710000D01*
X70173368Y-92826525D01*
X69966525Y-93033368D01*
X69804010Y-93276589D01*
X69692068Y-93546842D01*
X69635000Y-93833740D01*
X69635000Y-94126260D01*
X69692068Y-94413158D01*
X69804010Y-94683411D01*
X69966525Y-94926632D01*
X70098380Y-95058487D01*
X70025820Y-95080498D01*
X69915506Y-95139463D01*
X69818815Y-95218815D01*
X69739463Y-95315506D01*
X69680498Y-95425820D01*
X69644188Y-95545518D01*
X69631928Y-95670000D01*
X69240000Y-95670000D01*
X69240000Y-80670000D01*
X97130000Y-80670000D01*
X97130001Y-99670000D01*
G37*
%TD.AperFunction*%
D16*
X77191928Y-90955000D02*
X77207071Y-91108745D01*
X77251916Y-91256582D01*
X77324742Y-91392829D01*
X77363454Y-91440000D01*
X77324742Y-91487171D01*
X77251916Y-91623418D01*
X77207071Y-91771255D01*
X77191928Y-91925000D01*
X77191928Y-92225000D01*
X77207071Y-92378745D01*
X77239282Y-92484931D01*
X76455413Y-93268800D01*
X72430786Y-93268800D01*
X72273475Y-93033368D01*
X72066632Y-92826525D01*
X71892240Y-92710000D01*
X72066632Y-92593475D01*
X72273475Y-92386632D01*
X72430786Y-92151200D01*
X73625074Y-92151200D01*
X73660000Y-92154640D01*
X73694926Y-92151200D01*
X73694936Y-92151200D01*
X73759788Y-92144812D01*
X73767500Y-92145572D01*
X74367500Y-92145572D01*
X74538316Y-92128748D01*
X74702567Y-92078923D01*
X74852606Y-91998726D01*
X74900506Y-92038037D01*
X75010820Y-92097002D01*
X75130518Y-92133312D01*
X75255000Y-92145572D01*
X75506750Y-92142500D01*
X75665500Y-91983750D01*
X75665500Y-91159500D01*
X75919500Y-91159500D01*
X75919500Y-91983750D01*
X76078250Y-92142500D01*
X76330000Y-92145572D01*
X76454482Y-92133312D01*
X76574180Y-92097002D01*
X76684494Y-92038037D01*
X76781185Y-91958685D01*
X76860537Y-91861994D01*
X76919502Y-91751680D01*
X76955812Y-91631982D01*
X76968072Y-91507500D01*
X76965000Y-91318250D01*
X76806250Y-91159500D01*
X75919500Y-91159500D01*
X75665500Y-91159500D01*
X75645500Y-91159500D01*
X75645500Y-90905500D01*
X75665500Y-90905500D01*
X75665500Y-90885500D01*
X75919500Y-90885500D01*
X75919500Y-90905500D01*
X76806250Y-90905500D01*
X76830550Y-90881200D01*
X77191928Y-90881200D01*
X77191928Y-90955000D01*
%TA.AperFunction,Conductor*%
D17*
G36*
X77191928Y-90955000D02*
G01*
X77207071Y-91108745D01*
X77251916Y-91256582D01*
X77324742Y-91392829D01*
X77363454Y-91440000D01*
X77324742Y-91487171D01*
X77251916Y-91623418D01*
X77207071Y-91771255D01*
X77191928Y-91925000D01*
X77191928Y-92225000D01*
X77207071Y-92378745D01*
X77239282Y-92484931D01*
X76455413Y-93268800D01*
X72430786Y-93268800D01*
X72273475Y-93033368D01*
X72066632Y-92826525D01*
X71892240Y-92710000D01*
X72066632Y-92593475D01*
X72273475Y-92386632D01*
X72430786Y-92151200D01*
X73625074Y-92151200D01*
X73660000Y-92154640D01*
X73694926Y-92151200D01*
X73694936Y-92151200D01*
X73759788Y-92144812D01*
X73767500Y-92145572D01*
X74367500Y-92145572D01*
X74538316Y-92128748D01*
X74702567Y-92078923D01*
X74852606Y-91998726D01*
X74900506Y-92038037D01*
X75010820Y-92097002D01*
X75130518Y-92133312D01*
X75255000Y-92145572D01*
X75506750Y-92142500D01*
X75665500Y-91983750D01*
X75665500Y-91159500D01*
X75919500Y-91159500D01*
X75919500Y-91983750D01*
X76078250Y-92142500D01*
X76330000Y-92145572D01*
X76454482Y-92133312D01*
X76574180Y-92097002D01*
X76684494Y-92038037D01*
X76781185Y-91958685D01*
X76860537Y-91861994D01*
X76919502Y-91751680D01*
X76955812Y-91631982D01*
X76968072Y-91507500D01*
X76965000Y-91318250D01*
X76806250Y-91159500D01*
X75919500Y-91159500D01*
X75665500Y-91159500D01*
X75645500Y-91159500D01*
X75645500Y-90905500D01*
X75665500Y-90905500D01*
X75665500Y-90885500D01*
X75919500Y-90885500D01*
X75919500Y-90905500D01*
X76806250Y-90905500D01*
X76830550Y-90881200D01*
X77191928Y-90881200D01*
X77191928Y-90955000D01*
G37*
%TD.AperFunction*%
%TD*%
M02*
