%TF.GenerationSoftware,KiCad,Pcbnew,(5.1.8-0-10_14)*%
%TF.CreationDate,2020-12-28T10:54:56+08:00*%
%TF.ProjectId,HT42B534USB2UART,48543432-4235-4333-9455-534232554152,rev?*%
%TF.SameCoordinates,Original*%
%TF.FileFunction,Legend,Bot*%
%TF.FilePolarity,Positive*%
%FSLAX46Y46*%
G04 Gerber Fmt 4.6, Leading zero omitted, Abs format (unit mm)*
G04 Created by KiCad (PCBNEW (5.1.8-0-10_14)) date 2020-12-28 10:54:56*
%MOMM*%
%LPD*%
G01*
G04 APERTURE LIST*
%ADD10C,0.200000*%
G04 APERTURE END LIST*
D10*
X77218571Y-95770000D02*
X77361428Y-95698571D01*
X77575714Y-95698571D01*
X77790000Y-95770000D01*
X77932857Y-95912857D01*
X78004285Y-96055714D01*
X78075714Y-96341428D01*
X78075714Y-96555714D01*
X78004285Y-96841428D01*
X77932857Y-96984285D01*
X77790000Y-97127142D01*
X77575714Y-97198571D01*
X77432857Y-97198571D01*
X77218571Y-97127142D01*
X77147142Y-97055714D01*
X77147142Y-96555714D01*
X77432857Y-96555714D01*
X76504285Y-97198571D02*
X76504285Y-95698571D01*
X75647142Y-97198571D01*
X75647142Y-95698571D01*
X74932857Y-97198571D02*
X74932857Y-95698571D01*
X74575714Y-95698571D01*
X74361428Y-95770000D01*
X74218571Y-95912857D01*
X74147142Y-96055714D01*
X74075714Y-96341428D01*
X74075714Y-96555714D01*
X74147142Y-96841428D01*
X74218571Y-96984285D01*
X74361428Y-97127142D01*
X74575714Y-97198571D01*
X74932857Y-97198571D01*
X75504285Y-94658571D02*
X76004285Y-93944285D01*
X76361428Y-94658571D02*
X76361428Y-93158571D01*
X75790000Y-93158571D01*
X75647142Y-93230000D01*
X75575714Y-93301428D01*
X75504285Y-93444285D01*
X75504285Y-93658571D01*
X75575714Y-93801428D01*
X75647142Y-93872857D01*
X75790000Y-93944285D01*
X76361428Y-93944285D01*
X75004285Y-93158571D02*
X74004285Y-94658571D01*
X74004285Y-93158571D02*
X75004285Y-94658571D01*
X80218571Y-90618571D02*
X79718571Y-92118571D01*
X79218571Y-90618571D01*
X78718571Y-92118571D02*
X78718571Y-90618571D01*
X78361428Y-90618571D01*
X78147142Y-90690000D01*
X78004285Y-90832857D01*
X77932857Y-90975714D01*
X77861428Y-91261428D01*
X77861428Y-91475714D01*
X77932857Y-91761428D01*
X78004285Y-91904285D01*
X78147142Y-92047142D01*
X78361428Y-92118571D01*
X78718571Y-92118571D01*
X77218571Y-92118571D02*
X77218571Y-90618571D01*
X76861428Y-90618571D01*
X76647142Y-90690000D01*
X76504285Y-90832857D01*
X76432857Y-90975714D01*
X76361428Y-91261428D01*
X76361428Y-91475714D01*
X76432857Y-91761428D01*
X76504285Y-91904285D01*
X76647142Y-92047142D01*
X76861428Y-92118571D01*
X77218571Y-92118571D01*
X75718571Y-92118571D02*
X75718571Y-90618571D01*
X74718571Y-90618571D02*
X74432857Y-90618571D01*
X74290000Y-90690000D01*
X74147142Y-90832857D01*
X74075714Y-91118571D01*
X74075714Y-91618571D01*
X74147142Y-91904285D01*
X74290000Y-92047142D01*
X74432857Y-92118571D01*
X74718571Y-92118571D01*
X74861428Y-92047142D01*
X75004285Y-91904285D01*
X75075714Y-91618571D01*
X75075714Y-91118571D01*
X75004285Y-90832857D01*
X74861428Y-90690000D01*
X74718571Y-90618571D01*
X76218571Y-88078571D02*
X75361428Y-88078571D01*
X75790000Y-89578571D02*
X75790000Y-88078571D01*
X75004285Y-88078571D02*
X74004285Y-89578571D01*
X74004285Y-88078571D02*
X75004285Y-89578571D01*
X79361428Y-85538571D02*
X78861428Y-87038571D01*
X78361428Y-85538571D01*
X78004285Y-85538571D02*
X77075714Y-85538571D01*
X77575714Y-86110000D01*
X77361428Y-86110000D01*
X77218571Y-86181428D01*
X77147142Y-86252857D01*
X77075714Y-86395714D01*
X77075714Y-86752857D01*
X77147142Y-86895714D01*
X77218571Y-86967142D01*
X77361428Y-87038571D01*
X77790000Y-87038571D01*
X77932857Y-86967142D01*
X78004285Y-86895714D01*
X76575714Y-85538571D02*
X75647142Y-85538571D01*
X76147142Y-86110000D01*
X75932857Y-86110000D01*
X75790000Y-86181428D01*
X75718571Y-86252857D01*
X75647142Y-86395714D01*
X75647142Y-86752857D01*
X75718571Y-86895714D01*
X75790000Y-86967142D01*
X75932857Y-87038571D01*
X76361428Y-87038571D01*
X76504285Y-86967142D01*
X76575714Y-86895714D01*
X74718571Y-85538571D02*
X74432857Y-85538571D01*
X74290000Y-85610000D01*
X74147142Y-85752857D01*
X74075714Y-86038571D01*
X74075714Y-86538571D01*
X74147142Y-86824285D01*
X74290000Y-86967142D01*
X74432857Y-87038571D01*
X74718571Y-87038571D01*
X74861428Y-86967142D01*
X75004285Y-86824285D01*
X75075714Y-86538571D01*
X75075714Y-86038571D01*
X75004285Y-85752857D01*
X74861428Y-85610000D01*
X74718571Y-85538571D01*
X77932857Y-82998571D02*
X77432857Y-84498571D01*
X76932857Y-82998571D01*
X76432857Y-84498571D02*
X76432857Y-82998571D01*
X76075714Y-82998571D01*
X75861428Y-83070000D01*
X75718571Y-83212857D01*
X75647142Y-83355714D01*
X75575714Y-83641428D01*
X75575714Y-83855714D01*
X75647142Y-84141428D01*
X75718571Y-84284285D01*
X75861428Y-84427142D01*
X76075714Y-84498571D01*
X76432857Y-84498571D01*
X74932857Y-84498571D02*
X74932857Y-82998571D01*
X74575714Y-82998571D01*
X74361428Y-83070000D01*
X74218571Y-83212857D01*
X74147142Y-83355714D01*
X74075714Y-83641428D01*
X74075714Y-83855714D01*
X74147142Y-84141428D01*
X74218571Y-84284285D01*
X74361428Y-84427142D01*
X74575714Y-84498571D01*
X74932857Y-84498571D01*
M02*
