%TF.GenerationSoftware,KiCad,Pcbnew,(5.1.8-0-10_14)*%
%TF.CreationDate,2020-12-28T11:36:20+08:00*%
%TF.ProjectId,HT42B534USB2UART,48543432-4235-4333-9455-534232554152,rev?*%
%TF.SameCoordinates,Original*%
%TF.FileFunction,Legend,Top*%
%TF.FilePolarity,Positive*%
%FSLAX46Y46*%
G04 Gerber Fmt 4.6, Leading zero omitted, Abs format (unit mm)*
G04 Created by KiCad (PCBNEW (5.1.8-0-10_14)) date 2020-12-28 11:36:20*
%MOMM*%
%LPD*%
G01*
G04 APERTURE LIST*
%ADD10C,0.200000*%
%ADD11C,0.300000*%
%ADD12C,0.120000*%
%ADD13C,0.150000*%
G04 APERTURE END LIST*
D10*
X72624761Y-85757619D02*
X72991428Y-86857619D01*
X73358095Y-85757619D01*
X73724761Y-86857619D02*
X73724761Y-85757619D01*
X74458095Y-85757619D02*
X74667619Y-85757619D01*
X74772380Y-85810000D01*
X74877142Y-85914761D01*
X74929523Y-86124285D01*
X74929523Y-86490952D01*
X74877142Y-86700476D01*
X74772380Y-86805238D01*
X74667619Y-86857619D01*
X74458095Y-86857619D01*
X74353333Y-86805238D01*
X74248571Y-86700476D01*
X74196190Y-86490952D01*
X74196190Y-86124285D01*
X74248571Y-85914761D01*
X74353333Y-85810000D01*
X74458095Y-85757619D01*
X73358095Y-93430000D02*
X73253333Y-93377619D01*
X73096190Y-93377619D01*
X72939047Y-93430000D01*
X72834285Y-93534761D01*
X72781904Y-93639523D01*
X72729523Y-93849047D01*
X72729523Y-94006190D01*
X72781904Y-94215714D01*
X72834285Y-94320476D01*
X72939047Y-94425238D01*
X73096190Y-94477619D01*
X73200952Y-94477619D01*
X73358095Y-94425238D01*
X73410476Y-94372857D01*
X73410476Y-94006190D01*
X73200952Y-94006190D01*
X73881904Y-94477619D02*
X73881904Y-93377619D01*
X74510476Y-94477619D01*
X74510476Y-93377619D01*
X75034285Y-94477619D02*
X75034285Y-93377619D01*
X75296190Y-93377619D01*
X75453333Y-93430000D01*
X75558095Y-93534761D01*
X75610476Y-93639523D01*
X75662857Y-93849047D01*
X75662857Y-94006190D01*
X75610476Y-94215714D01*
X75558095Y-94320476D01*
X75453333Y-94425238D01*
X75296190Y-94477619D01*
X75034285Y-94477619D01*
X73410476Y-91937619D02*
X73043809Y-91413809D01*
X72781904Y-91937619D02*
X72781904Y-90837619D01*
X73200952Y-90837619D01*
X73305714Y-90890000D01*
X73358095Y-90942380D01*
X73410476Y-91047142D01*
X73410476Y-91204285D01*
X73358095Y-91309047D01*
X73305714Y-91361428D01*
X73200952Y-91413809D01*
X72781904Y-91413809D01*
X73777142Y-90837619D02*
X74510476Y-91937619D01*
X74510476Y-90837619D02*
X73777142Y-91937619D01*
X72624761Y-88297619D02*
X73253333Y-88297619D01*
X72939047Y-89397619D02*
X72939047Y-88297619D01*
X73515238Y-88297619D02*
X74248571Y-89397619D01*
X74248571Y-88297619D02*
X73515238Y-89397619D01*
D11*
X69594285Y-81822857D02*
X69594285Y-80622857D01*
X69594285Y-81194285D02*
X70280000Y-81194285D01*
X70280000Y-81822857D02*
X70280000Y-80622857D01*
X70680000Y-80622857D02*
X71365714Y-80622857D01*
X71022857Y-81822857D02*
X71022857Y-80622857D01*
X72280000Y-81022857D02*
X72280000Y-81822857D01*
X71994285Y-80565714D02*
X71708571Y-81422857D01*
X72451428Y-81422857D01*
X72851428Y-80737142D02*
X72908571Y-80680000D01*
X73022857Y-80622857D01*
X73308571Y-80622857D01*
X73422857Y-80680000D01*
X73480000Y-80737142D01*
X73537142Y-80851428D01*
X73537142Y-80965714D01*
X73480000Y-81137142D01*
X72794285Y-81822857D01*
X73537142Y-81822857D01*
X74451428Y-81194285D02*
X74622857Y-81251428D01*
X74680000Y-81308571D01*
X74737142Y-81422857D01*
X74737142Y-81594285D01*
X74680000Y-81708571D01*
X74622857Y-81765714D01*
X74508571Y-81822857D01*
X74051428Y-81822857D01*
X74051428Y-80622857D01*
X74451428Y-80622857D01*
X74565714Y-80680000D01*
X74622857Y-80737142D01*
X74680000Y-80851428D01*
X74680000Y-80965714D01*
X74622857Y-81080000D01*
X74565714Y-81137142D01*
X74451428Y-81194285D01*
X74051428Y-81194285D01*
X75822857Y-80622857D02*
X75251428Y-80622857D01*
X75194285Y-81194285D01*
X75251428Y-81137142D01*
X75365714Y-81080000D01*
X75651428Y-81080000D01*
X75765714Y-81137142D01*
X75822857Y-81194285D01*
X75880000Y-81308571D01*
X75880000Y-81594285D01*
X75822857Y-81708571D01*
X75765714Y-81765714D01*
X75651428Y-81822857D01*
X75365714Y-81822857D01*
X75251428Y-81765714D01*
X75194285Y-81708571D01*
X76280000Y-80622857D02*
X77022857Y-80622857D01*
X76622857Y-81080000D01*
X76794285Y-81080000D01*
X76908571Y-81137142D01*
X76965714Y-81194285D01*
X77022857Y-81308571D01*
X77022857Y-81594285D01*
X76965714Y-81708571D01*
X76908571Y-81765714D01*
X76794285Y-81822857D01*
X76451428Y-81822857D01*
X76337142Y-81765714D01*
X76280000Y-81708571D01*
X78051428Y-81022857D02*
X78051428Y-81822857D01*
X77765714Y-80565714D02*
X77480000Y-81422857D01*
X78222857Y-81422857D01*
X79594285Y-80622857D02*
X79594285Y-81594285D01*
X79651428Y-81708571D01*
X79708571Y-81765714D01*
X79822857Y-81822857D01*
X80051428Y-81822857D01*
X80165714Y-81765714D01*
X80222857Y-81708571D01*
X80280000Y-81594285D01*
X80280000Y-80622857D01*
X80794285Y-81765714D02*
X80965714Y-81822857D01*
X81251428Y-81822857D01*
X81365714Y-81765714D01*
X81422857Y-81708571D01*
X81480000Y-81594285D01*
X81480000Y-81480000D01*
X81422857Y-81365714D01*
X81365714Y-81308571D01*
X81251428Y-81251428D01*
X81022857Y-81194285D01*
X80908571Y-81137142D01*
X80851428Y-81080000D01*
X80794285Y-80965714D01*
X80794285Y-80851428D01*
X80851428Y-80737142D01*
X80908571Y-80680000D01*
X81022857Y-80622857D01*
X81308571Y-80622857D01*
X81480000Y-80680000D01*
X82394285Y-81194285D02*
X82565714Y-81251428D01*
X82622857Y-81308571D01*
X82680000Y-81422857D01*
X82680000Y-81594285D01*
X82622857Y-81708571D01*
X82565714Y-81765714D01*
X82451428Y-81822857D01*
X81994285Y-81822857D01*
X81994285Y-80622857D01*
X82394285Y-80622857D01*
X82508571Y-80680000D01*
X82565714Y-80737142D01*
X82622857Y-80851428D01*
X82622857Y-80965714D01*
X82565714Y-81080000D01*
X82508571Y-81137142D01*
X82394285Y-81194285D01*
X81994285Y-81194285D01*
X83137142Y-80737142D02*
X83194285Y-80680000D01*
X83308571Y-80622857D01*
X83594285Y-80622857D01*
X83708571Y-80680000D01*
X83765714Y-80737142D01*
X83822857Y-80851428D01*
X83822857Y-80965714D01*
X83765714Y-81137142D01*
X83080000Y-81822857D01*
X83822857Y-81822857D01*
X84337142Y-80622857D02*
X84337142Y-81594285D01*
X84394285Y-81708571D01*
X84451428Y-81765714D01*
X84565714Y-81822857D01*
X84794285Y-81822857D01*
X84908571Y-81765714D01*
X84965714Y-81708571D01*
X85022857Y-81594285D01*
X85022857Y-80622857D01*
X85537142Y-81480000D02*
X86108571Y-81480000D01*
X85422857Y-81822857D02*
X85822857Y-80622857D01*
X86222857Y-81822857D01*
X87308571Y-81822857D02*
X86908571Y-81251428D01*
X86622857Y-81822857D02*
X86622857Y-80622857D01*
X87080000Y-80622857D01*
X87194285Y-80680000D01*
X87251428Y-80737142D01*
X87308571Y-80851428D01*
X87308571Y-81022857D01*
X87251428Y-81137142D01*
X87194285Y-81194285D01*
X87080000Y-81251428D01*
X86622857Y-81251428D01*
X87651428Y-80622857D02*
X88337142Y-80622857D01*
X87994285Y-81822857D02*
X87994285Y-80622857D01*
X89480000Y-80622857D02*
X89880000Y-81822857D01*
X90280000Y-80622857D01*
X91308571Y-81822857D02*
X90622857Y-81822857D01*
X90965714Y-81822857D02*
X90965714Y-80622857D01*
X90851428Y-80794285D01*
X90737142Y-80908571D01*
X90622857Y-80965714D01*
X91822857Y-81708571D02*
X91880000Y-81765714D01*
X91822857Y-81822857D01*
X91765714Y-81765714D01*
X91822857Y-81708571D01*
X91822857Y-81822857D01*
X92622857Y-80622857D02*
X92737142Y-80622857D01*
X92851428Y-80680000D01*
X92908571Y-80737142D01*
X92965714Y-80851428D01*
X93022857Y-81080000D01*
X93022857Y-81365714D01*
X92965714Y-81594285D01*
X92908571Y-81708571D01*
X92851428Y-81765714D01*
X92737142Y-81822857D01*
X92622857Y-81822857D01*
X92508571Y-81765714D01*
X92451428Y-81708571D01*
X92394285Y-81594285D01*
X92337142Y-81365714D01*
X92337142Y-81080000D01*
X92394285Y-80851428D01*
X92451428Y-80737142D01*
X92508571Y-80680000D01*
X92622857Y-80622857D01*
D12*
%TO.C,J2*%
X69680000Y-95310000D02*
X69680000Y-85030000D01*
X69680000Y-85030000D02*
X67020000Y-85030000D01*
X67020000Y-85030000D02*
X67020000Y-95310000D01*
X67020000Y-95310000D02*
X69680000Y-95310000D01*
X67020000Y-94360000D02*
X61020000Y-94360000D01*
X61020000Y-94360000D02*
X61020000Y-93600000D01*
X61020000Y-93600000D02*
X67020000Y-93600000D01*
X67020000Y-94300000D02*
X61020000Y-94300000D01*
X67020000Y-94180000D02*
X61020000Y-94180000D01*
X67020000Y-94060000D02*
X61020000Y-94060000D01*
X67020000Y-93940000D02*
X61020000Y-93940000D01*
X67020000Y-93820000D02*
X61020000Y-93820000D01*
X67020000Y-93700000D02*
X61020000Y-93700000D01*
X70010000Y-94360000D02*
X69680000Y-94360000D01*
X70010000Y-93600000D02*
X69680000Y-93600000D01*
X69680000Y-92710000D02*
X67020000Y-92710000D01*
X67020000Y-91820000D02*
X61020000Y-91820000D01*
X61020000Y-91820000D02*
X61020000Y-91060000D01*
X61020000Y-91060000D02*
X67020000Y-91060000D01*
X70077071Y-91820000D02*
X69680000Y-91820000D01*
X70077071Y-91060000D02*
X69680000Y-91060000D01*
X69680000Y-90170000D02*
X67020000Y-90170000D01*
X67020000Y-89280000D02*
X61020000Y-89280000D01*
X61020000Y-89280000D02*
X61020000Y-88520000D01*
X61020000Y-88520000D02*
X67020000Y-88520000D01*
X70077071Y-89280000D02*
X69680000Y-89280000D01*
X70077071Y-88520000D02*
X69680000Y-88520000D01*
X69680000Y-87630000D02*
X67020000Y-87630000D01*
X67020000Y-86740000D02*
X61020000Y-86740000D01*
X61020000Y-86740000D02*
X61020000Y-85980000D01*
X61020000Y-85980000D02*
X67020000Y-85980000D01*
X70077071Y-86740000D02*
X69680000Y-86740000D01*
X70077071Y-85980000D02*
X69680000Y-85980000D01*
X72390000Y-93980000D02*
X72390000Y-95250000D01*
X72390000Y-95250000D02*
X71120000Y-95250000D01*
%TO.C,J3*%
X78800000Y-82490000D02*
X76140000Y-82490000D01*
X78800000Y-87630000D02*
X78800000Y-82490000D01*
X76140000Y-87630000D02*
X76140000Y-82490000D01*
X78800000Y-87630000D02*
X76140000Y-87630000D01*
X78800000Y-88900000D02*
X78800000Y-90230000D01*
X78800000Y-90230000D02*
X77470000Y-90230000D01*
%TO.C,C6*%
X87483733Y-89660000D02*
X87776267Y-89660000D01*
X87483733Y-90680000D02*
X87776267Y-90680000D01*
%TO.C,D1*%
X82015000Y-87160000D02*
X82015000Y-84700000D01*
X82015000Y-84700000D02*
X80545000Y-84700000D01*
X80545000Y-84700000D02*
X80545000Y-87160000D01*
%TO.C,C2*%
X83966267Y-93220000D02*
X83673733Y-93220000D01*
X83966267Y-92200000D02*
X83673733Y-92200000D01*
%TO.C,C3*%
X79293767Y-93220000D02*
X79001233Y-93220000D01*
X79293767Y-92200000D02*
X79001233Y-92200000D01*
%TO.C,R1*%
X87375276Y-92187500D02*
X87884724Y-92187500D01*
X87375276Y-93232500D02*
X87884724Y-93232500D01*
%TO.C,R3*%
X83297500Y-86614724D02*
X83297500Y-86105276D01*
X84342500Y-86614724D02*
X84342500Y-86105276D01*
%TO.C,R2*%
X87375276Y-94727500D02*
X87884724Y-94727500D01*
X87375276Y-95772500D02*
X87884724Y-95772500D01*
%TO.C,J1*%
X93580000Y-85770000D02*
X93580000Y-94570000D01*
X96750000Y-84025000D02*
X97800000Y-84025000D01*
X96750000Y-96315000D02*
X97800000Y-96315000D01*
X93580000Y-85770000D02*
X92825000Y-85770000D01*
%TO.C,C7*%
X87483733Y-97280000D02*
X87776267Y-97280000D01*
X87483733Y-98300000D02*
X87776267Y-98300000D01*
%TO.C,U1*%
X81280000Y-99080000D02*
X83230000Y-99080000D01*
X81280000Y-99080000D02*
X79330000Y-99080000D01*
X81280000Y-93960000D02*
X83230000Y-93960000D01*
X81280000Y-93960000D02*
X77830000Y-93960000D01*
%TO.C,C5*%
X85850000Y-86506267D02*
X85850000Y-86213733D01*
X86870000Y-86506267D02*
X86870000Y-86213733D01*
%TO.C,C4*%
X88390000Y-86506267D02*
X88390000Y-86213733D01*
X89410000Y-86506267D02*
X89410000Y-86213733D01*
%TO.C,C1*%
X72536267Y-83922500D02*
X72243733Y-83922500D01*
X72536267Y-82902500D02*
X72243733Y-82902500D01*
%TO.C,J2*%
D13*
X70786666Y-95972380D02*
X70786666Y-96686666D01*
X70739047Y-96829523D01*
X70643809Y-96924761D01*
X70500952Y-96972380D01*
X70405714Y-96972380D01*
X71215238Y-96067619D02*
X71262857Y-96020000D01*
X71358095Y-95972380D01*
X71596190Y-95972380D01*
X71691428Y-96020000D01*
X71739047Y-96067619D01*
X71786666Y-96162857D01*
X71786666Y-96258095D01*
X71739047Y-96400952D01*
X71167619Y-96972380D01*
X71786666Y-96972380D01*
%TO.C,J3*%
X79676666Y-83272380D02*
X79676666Y-83986666D01*
X79629047Y-84129523D01*
X79533809Y-84224761D01*
X79390952Y-84272380D01*
X79295714Y-84272380D01*
X80057619Y-83272380D02*
X80676666Y-83272380D01*
X80343333Y-83653333D01*
X80486190Y-83653333D01*
X80581428Y-83700952D01*
X80629047Y-83748571D01*
X80676666Y-83843809D01*
X80676666Y-84081904D01*
X80629047Y-84177142D01*
X80581428Y-84224761D01*
X80486190Y-84272380D01*
X80200476Y-84272380D01*
X80105238Y-84224761D01*
X80057619Y-84177142D01*
%TO.C,C6*%
X87463333Y-89097142D02*
X87415714Y-89144761D01*
X87272857Y-89192380D01*
X87177619Y-89192380D01*
X87034761Y-89144761D01*
X86939523Y-89049523D01*
X86891904Y-88954285D01*
X86844285Y-88763809D01*
X86844285Y-88620952D01*
X86891904Y-88430476D01*
X86939523Y-88335238D01*
X87034761Y-88240000D01*
X87177619Y-88192380D01*
X87272857Y-88192380D01*
X87415714Y-88240000D01*
X87463333Y-88287619D01*
X88320476Y-88192380D02*
X88130000Y-88192380D01*
X88034761Y-88240000D01*
X87987142Y-88287619D01*
X87891904Y-88430476D01*
X87844285Y-88620952D01*
X87844285Y-89001904D01*
X87891904Y-89097142D01*
X87939523Y-89144761D01*
X88034761Y-89192380D01*
X88225238Y-89192380D01*
X88320476Y-89144761D01*
X88368095Y-89097142D01*
X88415714Y-89001904D01*
X88415714Y-88763809D01*
X88368095Y-88668571D01*
X88320476Y-88620952D01*
X88225238Y-88573333D01*
X88034761Y-88573333D01*
X87939523Y-88620952D01*
X87891904Y-88668571D01*
X87844285Y-88763809D01*
%TO.C,D1*%
X80462380Y-87098095D02*
X79462380Y-87098095D01*
X79462380Y-86860000D01*
X79510000Y-86717142D01*
X79605238Y-86621904D01*
X79700476Y-86574285D01*
X79890952Y-86526666D01*
X80033809Y-86526666D01*
X80224285Y-86574285D01*
X80319523Y-86621904D01*
X80414761Y-86717142D01*
X80462380Y-86860000D01*
X80462380Y-87098095D01*
X80462380Y-85574285D02*
X80462380Y-86145714D01*
X80462380Y-85860000D02*
X79462380Y-85860000D01*
X79605238Y-85955238D01*
X79700476Y-86050476D01*
X79748095Y-86145714D01*
%TO.C,C2*%
X83653333Y-91797142D02*
X83605714Y-91844761D01*
X83462857Y-91892380D01*
X83367619Y-91892380D01*
X83224761Y-91844761D01*
X83129523Y-91749523D01*
X83081904Y-91654285D01*
X83034285Y-91463809D01*
X83034285Y-91320952D01*
X83081904Y-91130476D01*
X83129523Y-91035238D01*
X83224761Y-90940000D01*
X83367619Y-90892380D01*
X83462857Y-90892380D01*
X83605714Y-90940000D01*
X83653333Y-90987619D01*
X84034285Y-90987619D02*
X84081904Y-90940000D01*
X84177142Y-90892380D01*
X84415238Y-90892380D01*
X84510476Y-90940000D01*
X84558095Y-90987619D01*
X84605714Y-91082857D01*
X84605714Y-91178095D01*
X84558095Y-91320952D01*
X83986666Y-91892380D01*
X84605714Y-91892380D01*
%TO.C,C3*%
X78980833Y-91797142D02*
X78933214Y-91844761D01*
X78790357Y-91892380D01*
X78695119Y-91892380D01*
X78552261Y-91844761D01*
X78457023Y-91749523D01*
X78409404Y-91654285D01*
X78361785Y-91463809D01*
X78361785Y-91320952D01*
X78409404Y-91130476D01*
X78457023Y-91035238D01*
X78552261Y-90940000D01*
X78695119Y-90892380D01*
X78790357Y-90892380D01*
X78933214Y-90940000D01*
X78980833Y-90987619D01*
X79314166Y-90892380D02*
X79933214Y-90892380D01*
X79599880Y-91273333D01*
X79742738Y-91273333D01*
X79837976Y-91320952D01*
X79885595Y-91368571D01*
X79933214Y-91463809D01*
X79933214Y-91701904D01*
X79885595Y-91797142D01*
X79837976Y-91844761D01*
X79742738Y-91892380D01*
X79457023Y-91892380D01*
X79361785Y-91844761D01*
X79314166Y-91797142D01*
%TO.C,R1*%
X87463333Y-91732380D02*
X87130000Y-91256190D01*
X86891904Y-91732380D02*
X86891904Y-90732380D01*
X87272857Y-90732380D01*
X87368095Y-90780000D01*
X87415714Y-90827619D01*
X87463333Y-90922857D01*
X87463333Y-91065714D01*
X87415714Y-91160952D01*
X87368095Y-91208571D01*
X87272857Y-91256190D01*
X86891904Y-91256190D01*
X88415714Y-91732380D02*
X87844285Y-91732380D01*
X88130000Y-91732380D02*
X88130000Y-90732380D01*
X88034761Y-90875238D01*
X87939523Y-90970476D01*
X87844285Y-91018095D01*
%TO.C,R3*%
X82842380Y-86526666D02*
X82366190Y-86860000D01*
X82842380Y-87098095D02*
X81842380Y-87098095D01*
X81842380Y-86717142D01*
X81890000Y-86621904D01*
X81937619Y-86574285D01*
X82032857Y-86526666D01*
X82175714Y-86526666D01*
X82270952Y-86574285D01*
X82318571Y-86621904D01*
X82366190Y-86717142D01*
X82366190Y-87098095D01*
X81842380Y-86193333D02*
X81842380Y-85574285D01*
X82223333Y-85907619D01*
X82223333Y-85764761D01*
X82270952Y-85669523D01*
X82318571Y-85621904D01*
X82413809Y-85574285D01*
X82651904Y-85574285D01*
X82747142Y-85621904D01*
X82794761Y-85669523D01*
X82842380Y-85764761D01*
X82842380Y-86050476D01*
X82794761Y-86145714D01*
X82747142Y-86193333D01*
%TO.C,R2*%
X87463333Y-94272380D02*
X87130000Y-93796190D01*
X86891904Y-94272380D02*
X86891904Y-93272380D01*
X87272857Y-93272380D01*
X87368095Y-93320000D01*
X87415714Y-93367619D01*
X87463333Y-93462857D01*
X87463333Y-93605714D01*
X87415714Y-93700952D01*
X87368095Y-93748571D01*
X87272857Y-93796190D01*
X86891904Y-93796190D01*
X87844285Y-93367619D02*
X87891904Y-93320000D01*
X87987142Y-93272380D01*
X88225238Y-93272380D01*
X88320476Y-93320000D01*
X88368095Y-93367619D01*
X88415714Y-93462857D01*
X88415714Y-93558095D01*
X88368095Y-93700952D01*
X87796666Y-94272380D01*
X88415714Y-94272380D01*
%TO.C,J1*%
X94366666Y-81622380D02*
X94366666Y-82336666D01*
X94319047Y-82479523D01*
X94223809Y-82574761D01*
X94080952Y-82622380D01*
X93985714Y-82622380D01*
X95366666Y-82622380D02*
X94795238Y-82622380D01*
X95080952Y-82622380D02*
X95080952Y-81622380D01*
X94985714Y-81765238D01*
X94890476Y-81860476D01*
X94795238Y-81908095D01*
%TO.C,C7*%
X87463333Y-96717142D02*
X87415714Y-96764761D01*
X87272857Y-96812380D01*
X87177619Y-96812380D01*
X87034761Y-96764761D01*
X86939523Y-96669523D01*
X86891904Y-96574285D01*
X86844285Y-96383809D01*
X86844285Y-96240952D01*
X86891904Y-96050476D01*
X86939523Y-95955238D01*
X87034761Y-95860000D01*
X87177619Y-95812380D01*
X87272857Y-95812380D01*
X87415714Y-95860000D01*
X87463333Y-95907619D01*
X87796666Y-95812380D02*
X88463333Y-95812380D01*
X88034761Y-96812380D01*
%TO.C,U1*%
X75438095Y-95972380D02*
X75438095Y-96781904D01*
X75485714Y-96877142D01*
X75533333Y-96924761D01*
X75628571Y-96972380D01*
X75819047Y-96972380D01*
X75914285Y-96924761D01*
X75961904Y-96877142D01*
X76009523Y-96781904D01*
X76009523Y-95972380D01*
X77009523Y-96972380D02*
X76438095Y-96972380D01*
X76723809Y-96972380D02*
X76723809Y-95972380D01*
X76628571Y-96115238D01*
X76533333Y-96210476D01*
X76438095Y-96258095D01*
%TO.C,C5*%
X85287142Y-86526666D02*
X85334761Y-86574285D01*
X85382380Y-86717142D01*
X85382380Y-86812380D01*
X85334761Y-86955238D01*
X85239523Y-87050476D01*
X85144285Y-87098095D01*
X84953809Y-87145714D01*
X84810952Y-87145714D01*
X84620476Y-87098095D01*
X84525238Y-87050476D01*
X84430000Y-86955238D01*
X84382380Y-86812380D01*
X84382380Y-86717142D01*
X84430000Y-86574285D01*
X84477619Y-86526666D01*
X84382380Y-85621904D02*
X84382380Y-86098095D01*
X84858571Y-86145714D01*
X84810952Y-86098095D01*
X84763333Y-86002857D01*
X84763333Y-85764761D01*
X84810952Y-85669523D01*
X84858571Y-85621904D01*
X84953809Y-85574285D01*
X85191904Y-85574285D01*
X85287142Y-85621904D01*
X85334761Y-85669523D01*
X85382380Y-85764761D01*
X85382380Y-86002857D01*
X85334761Y-86098095D01*
X85287142Y-86145714D01*
%TO.C,C4*%
X87827142Y-86526666D02*
X87874761Y-86574285D01*
X87922380Y-86717142D01*
X87922380Y-86812380D01*
X87874761Y-86955238D01*
X87779523Y-87050476D01*
X87684285Y-87098095D01*
X87493809Y-87145714D01*
X87350952Y-87145714D01*
X87160476Y-87098095D01*
X87065238Y-87050476D01*
X86970000Y-86955238D01*
X86922380Y-86812380D01*
X86922380Y-86717142D01*
X86970000Y-86574285D01*
X87017619Y-86526666D01*
X87255714Y-85669523D02*
X87922380Y-85669523D01*
X86874761Y-85907619D02*
X87589047Y-86145714D01*
X87589047Y-85526666D01*
%TO.C,C1*%
X69683333Y-84177142D02*
X69635714Y-84224761D01*
X69492857Y-84272380D01*
X69397619Y-84272380D01*
X69254761Y-84224761D01*
X69159523Y-84129523D01*
X69111904Y-84034285D01*
X69064285Y-83843809D01*
X69064285Y-83700952D01*
X69111904Y-83510476D01*
X69159523Y-83415238D01*
X69254761Y-83320000D01*
X69397619Y-83272380D01*
X69492857Y-83272380D01*
X69635714Y-83320000D01*
X69683333Y-83367619D01*
X70635714Y-84272380D02*
X70064285Y-84272380D01*
X70350000Y-84272380D02*
X70350000Y-83272380D01*
X70254761Y-83415238D01*
X70159523Y-83510476D01*
X70064285Y-83558095D01*
%TD*%
M02*
