%TF.GenerationSoftware,KiCad,Pcbnew,(5.1.8-0-10_14)*%
%TF.CreationDate,2020-12-28T00:44:22+08:00*%
%TF.ProjectId,HT42B534USB2UART,48543432-4235-4333-9455-534232554152,rev?*%
%TF.SameCoordinates,Original*%
%TF.FileFunction,Paste,Top*%
%TF.FilePolarity,Positive*%
%FSLAX46Y46*%
G04 Gerber Fmt 4.6, Leading zero omitted, Abs format (unit mm)*
G04 Created by KiCad (PCBNEW (5.1.8-0-10_14)) date 2020-12-28 00:44:22*
%MOMM*%
%LPD*%
G01*
G04 APERTURE LIST*
%ADD10R,2.500000X1.100000*%
G04 APERTURE END LIST*
D10*
%TO.C,J1*%
X90680000Y-93670000D03*
X90680000Y-86670000D03*
X90680000Y-91170000D03*
X90680000Y-89170000D03*
%TD*%
%TO.C,C7*%
G36*
G01*
X78502500Y-96845000D02*
X78977500Y-96845000D01*
G75*
G02*
X79215000Y-97082500I0J-237500D01*
G01*
X79215000Y-97682500D01*
G75*
G02*
X78977500Y-97920000I-237500J0D01*
G01*
X78502500Y-97920000D01*
G75*
G02*
X78265000Y-97682500I0J237500D01*
G01*
X78265000Y-97082500D01*
G75*
G02*
X78502500Y-96845000I237500J0D01*
G01*
G37*
G36*
G01*
X78502500Y-95120000D02*
X78977500Y-95120000D01*
G75*
G02*
X79215000Y-95357500I0J-237500D01*
G01*
X79215000Y-95957500D01*
G75*
G02*
X78977500Y-96195000I-237500J0D01*
G01*
X78502500Y-96195000D01*
G75*
G02*
X78265000Y-95957500I0J237500D01*
G01*
X78265000Y-95357500D01*
G75*
G02*
X78502500Y-95120000I237500J0D01*
G01*
G37*
%TD*%
%TO.C,U1*%
G36*
G01*
X80540000Y-88415000D02*
X80540000Y-88115000D01*
G75*
G02*
X80690000Y-87965000I150000J0D01*
G01*
X82040000Y-87965000D01*
G75*
G02*
X82190000Y-88115000I0J-150000D01*
G01*
X82190000Y-88415000D01*
G75*
G02*
X82040000Y-88565000I-150000J0D01*
G01*
X80690000Y-88565000D01*
G75*
G02*
X80540000Y-88415000I0J150000D01*
G01*
G37*
G36*
G01*
X80540000Y-89685000D02*
X80540000Y-89385000D01*
G75*
G02*
X80690000Y-89235000I150000J0D01*
G01*
X82040000Y-89235000D01*
G75*
G02*
X82190000Y-89385000I0J-150000D01*
G01*
X82190000Y-89685000D01*
G75*
G02*
X82040000Y-89835000I-150000J0D01*
G01*
X80690000Y-89835000D01*
G75*
G02*
X80540000Y-89685000I0J150000D01*
G01*
G37*
G36*
G01*
X80540000Y-90955000D02*
X80540000Y-90655000D01*
G75*
G02*
X80690000Y-90505000I150000J0D01*
G01*
X82040000Y-90505000D01*
G75*
G02*
X82190000Y-90655000I0J-150000D01*
G01*
X82190000Y-90955000D01*
G75*
G02*
X82040000Y-91105000I-150000J0D01*
G01*
X80690000Y-91105000D01*
G75*
G02*
X80540000Y-90955000I0J150000D01*
G01*
G37*
G36*
G01*
X80540000Y-92225000D02*
X80540000Y-91925000D01*
G75*
G02*
X80690000Y-91775000I150000J0D01*
G01*
X82040000Y-91775000D01*
G75*
G02*
X82190000Y-91925000I0J-150000D01*
G01*
X82190000Y-92225000D01*
G75*
G02*
X82040000Y-92375000I-150000J0D01*
G01*
X80690000Y-92375000D01*
G75*
G02*
X80540000Y-92225000I0J150000D01*
G01*
G37*
G36*
G01*
X75290000Y-92225000D02*
X75290000Y-91925000D01*
G75*
G02*
X75440000Y-91775000I150000J0D01*
G01*
X76790000Y-91775000D01*
G75*
G02*
X76940000Y-91925000I0J-150000D01*
G01*
X76940000Y-92225000D01*
G75*
G02*
X76790000Y-92375000I-150000J0D01*
G01*
X75440000Y-92375000D01*
G75*
G02*
X75290000Y-92225000I0J150000D01*
G01*
G37*
G36*
G01*
X75290000Y-90955000D02*
X75290000Y-90655000D01*
G75*
G02*
X75440000Y-90505000I150000J0D01*
G01*
X76790000Y-90505000D01*
G75*
G02*
X76940000Y-90655000I0J-150000D01*
G01*
X76940000Y-90955000D01*
G75*
G02*
X76790000Y-91105000I-150000J0D01*
G01*
X75440000Y-91105000D01*
G75*
G02*
X75290000Y-90955000I0J150000D01*
G01*
G37*
G36*
G01*
X75290000Y-89685000D02*
X75290000Y-89385000D01*
G75*
G02*
X75440000Y-89235000I150000J0D01*
G01*
X76790000Y-89235000D01*
G75*
G02*
X76940000Y-89385000I0J-150000D01*
G01*
X76940000Y-89685000D01*
G75*
G02*
X76790000Y-89835000I-150000J0D01*
G01*
X75440000Y-89835000D01*
G75*
G02*
X75290000Y-89685000I0J150000D01*
G01*
G37*
G36*
G01*
X75290000Y-88415000D02*
X75290000Y-88115000D01*
G75*
G02*
X75440000Y-87965000I150000J0D01*
G01*
X76790000Y-87965000D01*
G75*
G02*
X76940000Y-88115000I0J-150000D01*
G01*
X76940000Y-88415000D01*
G75*
G02*
X76790000Y-88565000I-150000J0D01*
G01*
X75440000Y-88565000D01*
G75*
G02*
X75290000Y-88415000I0J150000D01*
G01*
G37*
%TD*%
%TO.C,R3*%
G36*
G01*
X83582500Y-84245000D02*
X84057500Y-84245000D01*
G75*
G02*
X84295000Y-84482500I0J-237500D01*
G01*
X84295000Y-84982500D01*
G75*
G02*
X84057500Y-85220000I-237500J0D01*
G01*
X83582500Y-85220000D01*
G75*
G02*
X83345000Y-84982500I0J237500D01*
G01*
X83345000Y-84482500D01*
G75*
G02*
X83582500Y-84245000I237500J0D01*
G01*
G37*
G36*
G01*
X83582500Y-82420000D02*
X84057500Y-82420000D01*
G75*
G02*
X84295000Y-82657500I0J-237500D01*
G01*
X84295000Y-83157500D01*
G75*
G02*
X84057500Y-83395000I-237500J0D01*
G01*
X83582500Y-83395000D01*
G75*
G02*
X83345000Y-83157500I0J237500D01*
G01*
X83345000Y-82657500D01*
G75*
G02*
X83582500Y-82420000I237500J0D01*
G01*
G37*
%TD*%
%TO.C,R2*%
G36*
G01*
X86785000Y-90407500D02*
X86785000Y-89932500D01*
G75*
G02*
X87022500Y-89695000I237500J0D01*
G01*
X87522500Y-89695000D01*
G75*
G02*
X87760000Y-89932500I0J-237500D01*
G01*
X87760000Y-90407500D01*
G75*
G02*
X87522500Y-90645000I-237500J0D01*
G01*
X87022500Y-90645000D01*
G75*
G02*
X86785000Y-90407500I0J237500D01*
G01*
G37*
G36*
G01*
X84960000Y-90407500D02*
X84960000Y-89932500D01*
G75*
G02*
X85197500Y-89695000I237500J0D01*
G01*
X85697500Y-89695000D01*
G75*
G02*
X85935000Y-89932500I0J-237500D01*
G01*
X85935000Y-90407500D01*
G75*
G02*
X85697500Y-90645000I-237500J0D01*
G01*
X85197500Y-90645000D01*
G75*
G02*
X84960000Y-90407500I0J237500D01*
G01*
G37*
%TD*%
%TO.C,R1*%
G36*
G01*
X86785000Y-87867500D02*
X86785000Y-87392500D01*
G75*
G02*
X87022500Y-87155000I237500J0D01*
G01*
X87522500Y-87155000D01*
G75*
G02*
X87760000Y-87392500I0J-237500D01*
G01*
X87760000Y-87867500D01*
G75*
G02*
X87522500Y-88105000I-237500J0D01*
G01*
X87022500Y-88105000D01*
G75*
G02*
X86785000Y-87867500I0J237500D01*
G01*
G37*
G36*
G01*
X84960000Y-87867500D02*
X84960000Y-87392500D01*
G75*
G02*
X85197500Y-87155000I237500J0D01*
G01*
X85697500Y-87155000D01*
G75*
G02*
X85935000Y-87392500I0J-237500D01*
G01*
X85935000Y-87867500D01*
G75*
G02*
X85697500Y-88105000I-237500J0D01*
G01*
X85197500Y-88105000D01*
G75*
G02*
X84960000Y-87867500I0J237500D01*
G01*
G37*
%TD*%
%TO.C,D1*%
G36*
G01*
X86010000Y-92472500D02*
X86010000Y-92947500D01*
G75*
G02*
X85772500Y-93185000I-237500J0D01*
G01*
X85197500Y-93185000D01*
G75*
G02*
X84960000Y-92947500I0J237500D01*
G01*
X84960000Y-92472500D01*
G75*
G02*
X85197500Y-92235000I237500J0D01*
G01*
X85772500Y-92235000D01*
G75*
G02*
X86010000Y-92472500I0J-237500D01*
G01*
G37*
G36*
G01*
X87760000Y-92472500D02*
X87760000Y-92947500D01*
G75*
G02*
X87522500Y-93185000I-237500J0D01*
G01*
X86947500Y-93185000D01*
G75*
G02*
X86710000Y-92947500I0J237500D01*
G01*
X86710000Y-92472500D01*
G75*
G02*
X86947500Y-92235000I237500J0D01*
G01*
X87522500Y-92235000D01*
G75*
G02*
X87760000Y-92472500I0J-237500D01*
G01*
G37*
%TD*%
%TO.C,C6*%
G36*
G01*
X81042500Y-96845000D02*
X81517500Y-96845000D01*
G75*
G02*
X81755000Y-97082500I0J-237500D01*
G01*
X81755000Y-97682500D01*
G75*
G02*
X81517500Y-97920000I-237500J0D01*
G01*
X81042500Y-97920000D01*
G75*
G02*
X80805000Y-97682500I0J237500D01*
G01*
X80805000Y-97082500D01*
G75*
G02*
X81042500Y-96845000I237500J0D01*
G01*
G37*
G36*
G01*
X81042500Y-95120000D02*
X81517500Y-95120000D01*
G75*
G02*
X81755000Y-95357500I0J-237500D01*
G01*
X81755000Y-95957500D01*
G75*
G02*
X81517500Y-96195000I-237500J0D01*
G01*
X81042500Y-96195000D01*
G75*
G02*
X80805000Y-95957500I0J237500D01*
G01*
X80805000Y-95357500D01*
G75*
G02*
X81042500Y-95120000I237500J0D01*
G01*
G37*
%TD*%
%TO.C,C5*%
G36*
G01*
X78502500Y-84145000D02*
X78977500Y-84145000D01*
G75*
G02*
X79215000Y-84382500I0J-237500D01*
G01*
X79215000Y-84982500D01*
G75*
G02*
X78977500Y-85220000I-237500J0D01*
G01*
X78502500Y-85220000D01*
G75*
G02*
X78265000Y-84982500I0J237500D01*
G01*
X78265000Y-84382500D01*
G75*
G02*
X78502500Y-84145000I237500J0D01*
G01*
G37*
G36*
G01*
X78502500Y-82420000D02*
X78977500Y-82420000D01*
G75*
G02*
X79215000Y-82657500I0J-237500D01*
G01*
X79215000Y-83257500D01*
G75*
G02*
X78977500Y-83495000I-237500J0D01*
G01*
X78502500Y-83495000D01*
G75*
G02*
X78265000Y-83257500I0J237500D01*
G01*
X78265000Y-82657500D01*
G75*
G02*
X78502500Y-82420000I237500J0D01*
G01*
G37*
%TD*%
%TO.C,C4*%
G36*
G01*
X75962500Y-84145000D02*
X76437500Y-84145000D01*
G75*
G02*
X76675000Y-84382500I0J-237500D01*
G01*
X76675000Y-84982500D01*
G75*
G02*
X76437500Y-85220000I-237500J0D01*
G01*
X75962500Y-85220000D01*
G75*
G02*
X75725000Y-84982500I0J237500D01*
G01*
X75725000Y-84382500D01*
G75*
G02*
X75962500Y-84145000I237500J0D01*
G01*
G37*
G36*
G01*
X75962500Y-82420000D02*
X76437500Y-82420000D01*
G75*
G02*
X76675000Y-82657500I0J-237500D01*
G01*
X76675000Y-83257500D01*
G75*
G02*
X76437500Y-83495000I-237500J0D01*
G01*
X75962500Y-83495000D01*
G75*
G02*
X75725000Y-83257500I0J237500D01*
G01*
X75725000Y-82657500D01*
G75*
G02*
X75962500Y-82420000I237500J0D01*
G01*
G37*
%TD*%
%TO.C,C3*%
G36*
G01*
X83582500Y-96845000D02*
X84057500Y-96845000D01*
G75*
G02*
X84295000Y-97082500I0J-237500D01*
G01*
X84295000Y-97682500D01*
G75*
G02*
X84057500Y-97920000I-237500J0D01*
G01*
X83582500Y-97920000D01*
G75*
G02*
X83345000Y-97682500I0J237500D01*
G01*
X83345000Y-97082500D01*
G75*
G02*
X83582500Y-96845000I237500J0D01*
G01*
G37*
G36*
G01*
X83582500Y-95120000D02*
X84057500Y-95120000D01*
G75*
G02*
X84295000Y-95357500I0J-237500D01*
G01*
X84295000Y-95957500D01*
G75*
G02*
X84057500Y-96195000I-237500J0D01*
G01*
X83582500Y-96195000D01*
G75*
G02*
X83345000Y-95957500I0J237500D01*
G01*
X83345000Y-95357500D01*
G75*
G02*
X83582500Y-95120000I237500J0D01*
G01*
G37*
%TD*%
%TO.C,C2*%
G36*
G01*
X81042500Y-84145000D02*
X81517500Y-84145000D01*
G75*
G02*
X81755000Y-84382500I0J-237500D01*
G01*
X81755000Y-84982500D01*
G75*
G02*
X81517500Y-85220000I-237500J0D01*
G01*
X81042500Y-85220000D01*
G75*
G02*
X80805000Y-84982500I0J237500D01*
G01*
X80805000Y-84382500D01*
G75*
G02*
X81042500Y-84145000I237500J0D01*
G01*
G37*
G36*
G01*
X81042500Y-82420000D02*
X81517500Y-82420000D01*
G75*
G02*
X81755000Y-82657500I0J-237500D01*
G01*
X81755000Y-83257500D01*
G75*
G02*
X81517500Y-83495000I-237500J0D01*
G01*
X81042500Y-83495000D01*
G75*
G02*
X80805000Y-83257500I0J237500D01*
G01*
X80805000Y-82657500D01*
G75*
G02*
X81042500Y-82420000I237500J0D01*
G01*
G37*
%TD*%
%TO.C,C1*%
G36*
G01*
X75962500Y-96845000D02*
X76437500Y-96845000D01*
G75*
G02*
X76675000Y-97082500I0J-237500D01*
G01*
X76675000Y-97682500D01*
G75*
G02*
X76437500Y-97920000I-237500J0D01*
G01*
X75962500Y-97920000D01*
G75*
G02*
X75725000Y-97682500I0J237500D01*
G01*
X75725000Y-97082500D01*
G75*
G02*
X75962500Y-96845000I237500J0D01*
G01*
G37*
G36*
G01*
X75962500Y-95120000D02*
X76437500Y-95120000D01*
G75*
G02*
X76675000Y-95357500I0J-237500D01*
G01*
X76675000Y-95957500D01*
G75*
G02*
X76437500Y-96195000I-237500J0D01*
G01*
X75962500Y-96195000D01*
G75*
G02*
X75725000Y-95957500I0J237500D01*
G01*
X75725000Y-95357500D01*
G75*
G02*
X75962500Y-95120000I237500J0D01*
G01*
G37*
%TD*%
M02*
