%TF.GenerationSoftware,KiCad,Pcbnew,(5.1.8-0-10_14)*%
%TF.CreationDate,2020-12-28T10:26:33+08:00*%
%TF.ProjectId,HT42B534USB2UART,48543432-4235-4333-9455-534232554152,rev?*%
%TF.SameCoordinates,Original*%
%TF.FileFunction,Legend,Top*%
%TF.FilePolarity,Positive*%
%FSLAX46Y46*%
G04 Gerber Fmt 4.6, Leading zero omitted, Abs format (unit mm)*
G04 Created by KiCad (PCBNEW (5.1.8-0-10_14)) date 2020-12-28 10:26:33*
%MOMM*%
%LPD*%
G01*
G04 APERTURE LIST*
%ADD10C,0.120000*%
%ADD11C,0.150000*%
G04 APERTURE END LIST*
D10*
%TO.C,C6*%
X87483733Y-85850000D02*
X87776267Y-85850000D01*
X87483733Y-86870000D02*
X87776267Y-86870000D01*
%TO.C,D1*%
X84160000Y-97320000D02*
X84160000Y-94860000D01*
X84160000Y-94860000D02*
X82690000Y-94860000D01*
X82690000Y-94860000D02*
X82690000Y-97320000D01*
%TO.C,C2*%
X84330000Y-83673733D02*
X84330000Y-83966267D01*
X83310000Y-83673733D02*
X83310000Y-83966267D01*
%TO.C,C3*%
X74783733Y-87120000D02*
X75076267Y-87120000D01*
X74783733Y-88140000D02*
X75076267Y-88140000D01*
%TO.C,R1*%
X87375276Y-88377500D02*
X87884724Y-88377500D01*
X87375276Y-89422500D02*
X87884724Y-89422500D01*
%TO.C,R3*%
X80532500Y-96265276D02*
X80532500Y-96774724D01*
X79487500Y-96265276D02*
X79487500Y-96774724D01*
%TO.C,R2*%
X87375276Y-90917500D02*
X87884724Y-90917500D01*
X87375276Y-91962500D02*
X87884724Y-91962500D01*
%TO.C,J1*%
X93580000Y-85770000D02*
X93580000Y-94570000D01*
X96750000Y-84025000D02*
X97800000Y-84025000D01*
X96750000Y-96315000D02*
X97800000Y-96315000D01*
X93580000Y-85770000D02*
X92825000Y-85770000D01*
%TO.C,C7*%
X87483733Y-93470000D02*
X87776267Y-93470000D01*
X87483733Y-94490000D02*
X87776267Y-94490000D01*
%TO.C,U1*%
X81280000Y-92730000D02*
X83230000Y-92730000D01*
X81280000Y-92730000D02*
X79330000Y-92730000D01*
X81280000Y-87610000D02*
X83230000Y-87610000D01*
X81280000Y-87610000D02*
X77830000Y-87610000D01*
%TO.C,J2*%
X69680000Y-97850000D02*
X69680000Y-82490000D01*
X69680000Y-82490000D02*
X67020000Y-82490000D01*
X67020000Y-82490000D02*
X67020000Y-97850000D01*
X67020000Y-97850000D02*
X69680000Y-97850000D01*
X67020000Y-96900000D02*
X61020000Y-96900000D01*
X61020000Y-96900000D02*
X61020000Y-96140000D01*
X61020000Y-96140000D02*
X67020000Y-96140000D01*
X67020000Y-96840000D02*
X61020000Y-96840000D01*
X67020000Y-96720000D02*
X61020000Y-96720000D01*
X67020000Y-96600000D02*
X61020000Y-96600000D01*
X67020000Y-96480000D02*
X61020000Y-96480000D01*
X67020000Y-96360000D02*
X61020000Y-96360000D01*
X67020000Y-96240000D02*
X61020000Y-96240000D01*
X70010000Y-96900000D02*
X69680000Y-96900000D01*
X70010000Y-96140000D02*
X69680000Y-96140000D01*
X69680000Y-95250000D02*
X67020000Y-95250000D01*
X67020000Y-94360000D02*
X61020000Y-94360000D01*
X61020000Y-94360000D02*
X61020000Y-93600000D01*
X61020000Y-93600000D02*
X67020000Y-93600000D01*
X70077071Y-94360000D02*
X69680000Y-94360000D01*
X70077071Y-93600000D02*
X69680000Y-93600000D01*
X69680000Y-92710000D02*
X67020000Y-92710000D01*
X67020000Y-91820000D02*
X61020000Y-91820000D01*
X61020000Y-91820000D02*
X61020000Y-91060000D01*
X61020000Y-91060000D02*
X67020000Y-91060000D01*
X70077071Y-91820000D02*
X69680000Y-91820000D01*
X70077071Y-91060000D02*
X69680000Y-91060000D01*
X69680000Y-90170000D02*
X67020000Y-90170000D01*
X67020000Y-89280000D02*
X61020000Y-89280000D01*
X61020000Y-89280000D02*
X61020000Y-88520000D01*
X61020000Y-88520000D02*
X67020000Y-88520000D01*
X70077071Y-89280000D02*
X69680000Y-89280000D01*
X70077071Y-88520000D02*
X69680000Y-88520000D01*
X69680000Y-87630000D02*
X67020000Y-87630000D01*
X67020000Y-86740000D02*
X61020000Y-86740000D01*
X61020000Y-86740000D02*
X61020000Y-85980000D01*
X61020000Y-85980000D02*
X67020000Y-85980000D01*
X70077071Y-86740000D02*
X69680000Y-86740000D01*
X70077071Y-85980000D02*
X69680000Y-85980000D01*
X69680000Y-85090000D02*
X67020000Y-85090000D01*
X67020000Y-84200000D02*
X61020000Y-84200000D01*
X61020000Y-84200000D02*
X61020000Y-83440000D01*
X61020000Y-83440000D02*
X67020000Y-83440000D01*
X70077071Y-84200000D02*
X69680000Y-84200000D01*
X70077071Y-83440000D02*
X69680000Y-83440000D01*
X72390000Y-96520000D02*
X72390000Y-97790000D01*
X72390000Y-97790000D02*
X71120000Y-97790000D01*
%TO.C,C5*%
X81790000Y-83673733D02*
X81790000Y-83966267D01*
X80770000Y-83673733D02*
X80770000Y-83966267D01*
%TO.C,C4*%
X79250000Y-83673733D02*
X79250000Y-83966267D01*
X78230000Y-83673733D02*
X78230000Y-83966267D01*
%TO.C,C1*%
X74783733Y-90522500D02*
X75076267Y-90522500D01*
X74783733Y-91542500D02*
X75076267Y-91542500D01*
%TO.C,C6*%
D11*
X87463333Y-85287142D02*
X87415714Y-85334761D01*
X87272857Y-85382380D01*
X87177619Y-85382380D01*
X87034761Y-85334761D01*
X86939523Y-85239523D01*
X86891904Y-85144285D01*
X86844285Y-84953809D01*
X86844285Y-84810952D01*
X86891904Y-84620476D01*
X86939523Y-84525238D01*
X87034761Y-84430000D01*
X87177619Y-84382380D01*
X87272857Y-84382380D01*
X87415714Y-84430000D01*
X87463333Y-84477619D01*
X88320476Y-84382380D02*
X88130000Y-84382380D01*
X88034761Y-84430000D01*
X87987142Y-84477619D01*
X87891904Y-84620476D01*
X87844285Y-84810952D01*
X87844285Y-85191904D01*
X87891904Y-85287142D01*
X87939523Y-85334761D01*
X88034761Y-85382380D01*
X88225238Y-85382380D01*
X88320476Y-85334761D01*
X88368095Y-85287142D01*
X88415714Y-85191904D01*
X88415714Y-84953809D01*
X88368095Y-84858571D01*
X88320476Y-84810952D01*
X88225238Y-84763333D01*
X88034761Y-84763333D01*
X87939523Y-84810952D01*
X87891904Y-84858571D01*
X87844285Y-84953809D01*
%TO.C,D1*%
X82607380Y-97258095D02*
X81607380Y-97258095D01*
X81607380Y-97020000D01*
X81655000Y-96877142D01*
X81750238Y-96781904D01*
X81845476Y-96734285D01*
X82035952Y-96686666D01*
X82178809Y-96686666D01*
X82369285Y-96734285D01*
X82464523Y-96781904D01*
X82559761Y-96877142D01*
X82607380Y-97020000D01*
X82607380Y-97258095D01*
X82607380Y-95734285D02*
X82607380Y-96305714D01*
X82607380Y-96020000D02*
X81607380Y-96020000D01*
X81750238Y-96115238D01*
X81845476Y-96210476D01*
X81893095Y-96305714D01*
%TO.C,C2*%
X85607142Y-83986666D02*
X85654761Y-84034285D01*
X85702380Y-84177142D01*
X85702380Y-84272380D01*
X85654761Y-84415238D01*
X85559523Y-84510476D01*
X85464285Y-84558095D01*
X85273809Y-84605714D01*
X85130952Y-84605714D01*
X84940476Y-84558095D01*
X84845238Y-84510476D01*
X84750000Y-84415238D01*
X84702380Y-84272380D01*
X84702380Y-84177142D01*
X84750000Y-84034285D01*
X84797619Y-83986666D01*
X84797619Y-83605714D02*
X84750000Y-83558095D01*
X84702380Y-83462857D01*
X84702380Y-83224761D01*
X84750000Y-83129523D01*
X84797619Y-83081904D01*
X84892857Y-83034285D01*
X84988095Y-83034285D01*
X85130952Y-83081904D01*
X85702380Y-83653333D01*
X85702380Y-83034285D01*
%TO.C,C3*%
X74763333Y-86557142D02*
X74715714Y-86604761D01*
X74572857Y-86652380D01*
X74477619Y-86652380D01*
X74334761Y-86604761D01*
X74239523Y-86509523D01*
X74191904Y-86414285D01*
X74144285Y-86223809D01*
X74144285Y-86080952D01*
X74191904Y-85890476D01*
X74239523Y-85795238D01*
X74334761Y-85700000D01*
X74477619Y-85652380D01*
X74572857Y-85652380D01*
X74715714Y-85700000D01*
X74763333Y-85747619D01*
X75096666Y-85652380D02*
X75715714Y-85652380D01*
X75382380Y-86033333D01*
X75525238Y-86033333D01*
X75620476Y-86080952D01*
X75668095Y-86128571D01*
X75715714Y-86223809D01*
X75715714Y-86461904D01*
X75668095Y-86557142D01*
X75620476Y-86604761D01*
X75525238Y-86652380D01*
X75239523Y-86652380D01*
X75144285Y-86604761D01*
X75096666Y-86557142D01*
%TO.C,R1*%
X87463333Y-87922380D02*
X87130000Y-87446190D01*
X86891904Y-87922380D02*
X86891904Y-86922380D01*
X87272857Y-86922380D01*
X87368095Y-86970000D01*
X87415714Y-87017619D01*
X87463333Y-87112857D01*
X87463333Y-87255714D01*
X87415714Y-87350952D01*
X87368095Y-87398571D01*
X87272857Y-87446190D01*
X86891904Y-87446190D01*
X88415714Y-87922380D02*
X87844285Y-87922380D01*
X88130000Y-87922380D02*
X88130000Y-86922380D01*
X88034761Y-87065238D01*
X87939523Y-87160476D01*
X87844285Y-87208095D01*
%TO.C,R3*%
X81892380Y-96686666D02*
X81416190Y-97020000D01*
X81892380Y-97258095D02*
X80892380Y-97258095D01*
X80892380Y-96877142D01*
X80940000Y-96781904D01*
X80987619Y-96734285D01*
X81082857Y-96686666D01*
X81225714Y-96686666D01*
X81320952Y-96734285D01*
X81368571Y-96781904D01*
X81416190Y-96877142D01*
X81416190Y-97258095D01*
X80892380Y-96353333D02*
X80892380Y-95734285D01*
X81273333Y-96067619D01*
X81273333Y-95924761D01*
X81320952Y-95829523D01*
X81368571Y-95781904D01*
X81463809Y-95734285D01*
X81701904Y-95734285D01*
X81797142Y-95781904D01*
X81844761Y-95829523D01*
X81892380Y-95924761D01*
X81892380Y-96210476D01*
X81844761Y-96305714D01*
X81797142Y-96353333D01*
%TO.C,R2*%
X87463333Y-90462380D02*
X87130000Y-89986190D01*
X86891904Y-90462380D02*
X86891904Y-89462380D01*
X87272857Y-89462380D01*
X87368095Y-89510000D01*
X87415714Y-89557619D01*
X87463333Y-89652857D01*
X87463333Y-89795714D01*
X87415714Y-89890952D01*
X87368095Y-89938571D01*
X87272857Y-89986190D01*
X86891904Y-89986190D01*
X87844285Y-89557619D02*
X87891904Y-89510000D01*
X87987142Y-89462380D01*
X88225238Y-89462380D01*
X88320476Y-89510000D01*
X88368095Y-89557619D01*
X88415714Y-89652857D01*
X88415714Y-89748095D01*
X88368095Y-89890952D01*
X87796666Y-90462380D01*
X88415714Y-90462380D01*
%TO.C,J1*%
X94366666Y-81622380D02*
X94366666Y-82336666D01*
X94319047Y-82479523D01*
X94223809Y-82574761D01*
X94080952Y-82622380D01*
X93985714Y-82622380D01*
X95366666Y-82622380D02*
X94795238Y-82622380D01*
X95080952Y-82622380D02*
X95080952Y-81622380D01*
X94985714Y-81765238D01*
X94890476Y-81860476D01*
X94795238Y-81908095D01*
%TO.C,C7*%
X87463333Y-92907142D02*
X87415714Y-92954761D01*
X87272857Y-93002380D01*
X87177619Y-93002380D01*
X87034761Y-92954761D01*
X86939523Y-92859523D01*
X86891904Y-92764285D01*
X86844285Y-92573809D01*
X86844285Y-92430952D01*
X86891904Y-92240476D01*
X86939523Y-92145238D01*
X87034761Y-92050000D01*
X87177619Y-92002380D01*
X87272857Y-92002380D01*
X87415714Y-92050000D01*
X87463333Y-92097619D01*
X87796666Y-92002380D02*
X88463333Y-92002380D01*
X88034761Y-93002380D01*
%TO.C,U1*%
X80518095Y-86222380D02*
X80518095Y-87031904D01*
X80565714Y-87127142D01*
X80613333Y-87174761D01*
X80708571Y-87222380D01*
X80899047Y-87222380D01*
X80994285Y-87174761D01*
X81041904Y-87127142D01*
X81089523Y-87031904D01*
X81089523Y-86222380D01*
X82089523Y-87222380D02*
X81518095Y-87222380D01*
X81803809Y-87222380D02*
X81803809Y-86222380D01*
X81708571Y-86365238D01*
X81613333Y-86460476D01*
X81518095Y-86508095D01*
%TO.C,J2*%
X69516666Y-98242380D02*
X69516666Y-98956666D01*
X69469047Y-99099523D01*
X69373809Y-99194761D01*
X69230952Y-99242380D01*
X69135714Y-99242380D01*
X69945238Y-98337619D02*
X69992857Y-98290000D01*
X70088095Y-98242380D01*
X70326190Y-98242380D01*
X70421428Y-98290000D01*
X70469047Y-98337619D01*
X70516666Y-98432857D01*
X70516666Y-98528095D01*
X70469047Y-98670952D01*
X69897619Y-99242380D01*
X70516666Y-99242380D01*
%TO.C,C5*%
X83067142Y-83986666D02*
X83114761Y-84034285D01*
X83162380Y-84177142D01*
X83162380Y-84272380D01*
X83114761Y-84415238D01*
X83019523Y-84510476D01*
X82924285Y-84558095D01*
X82733809Y-84605714D01*
X82590952Y-84605714D01*
X82400476Y-84558095D01*
X82305238Y-84510476D01*
X82210000Y-84415238D01*
X82162380Y-84272380D01*
X82162380Y-84177142D01*
X82210000Y-84034285D01*
X82257619Y-83986666D01*
X82162380Y-83081904D02*
X82162380Y-83558095D01*
X82638571Y-83605714D01*
X82590952Y-83558095D01*
X82543333Y-83462857D01*
X82543333Y-83224761D01*
X82590952Y-83129523D01*
X82638571Y-83081904D01*
X82733809Y-83034285D01*
X82971904Y-83034285D01*
X83067142Y-83081904D01*
X83114761Y-83129523D01*
X83162380Y-83224761D01*
X83162380Y-83462857D01*
X83114761Y-83558095D01*
X83067142Y-83605714D01*
%TO.C,C4*%
X80527142Y-83986666D02*
X80574761Y-84034285D01*
X80622380Y-84177142D01*
X80622380Y-84272380D01*
X80574761Y-84415238D01*
X80479523Y-84510476D01*
X80384285Y-84558095D01*
X80193809Y-84605714D01*
X80050952Y-84605714D01*
X79860476Y-84558095D01*
X79765238Y-84510476D01*
X79670000Y-84415238D01*
X79622380Y-84272380D01*
X79622380Y-84177142D01*
X79670000Y-84034285D01*
X79717619Y-83986666D01*
X79955714Y-83129523D02*
X80622380Y-83129523D01*
X79574761Y-83367619D02*
X80289047Y-83605714D01*
X80289047Y-82986666D01*
%TO.C,C1*%
X74763333Y-89959642D02*
X74715714Y-90007261D01*
X74572857Y-90054880D01*
X74477619Y-90054880D01*
X74334761Y-90007261D01*
X74239523Y-89912023D01*
X74191904Y-89816785D01*
X74144285Y-89626309D01*
X74144285Y-89483452D01*
X74191904Y-89292976D01*
X74239523Y-89197738D01*
X74334761Y-89102500D01*
X74477619Y-89054880D01*
X74572857Y-89054880D01*
X74715714Y-89102500D01*
X74763333Y-89150119D01*
X75715714Y-90054880D02*
X75144285Y-90054880D01*
X75430000Y-90054880D02*
X75430000Y-89054880D01*
X75334761Y-89197738D01*
X75239523Y-89292976D01*
X75144285Y-89340595D01*
%TD*%
M02*
