%TF.GenerationSoftware,KiCad,Pcbnew,(6.0.0-0)*%
%TF.CreationDate,2021-12-29T11:26:30+08:00*%
%TF.ProjectId,HT42B534USB2UART,48543432-4235-4333-9455-534232554152,rev?*%
%TF.SameCoordinates,Original*%
%TF.FileFunction,Copper,L2,Bot*%
%TF.FilePolarity,Positive*%
%FSLAX46Y46*%
G04 Gerber Fmt 4.6, Leading zero omitted, Abs format (unit mm)*
G04 Created by KiCad (PCBNEW (6.0.0-0)) date 2021-12-29 11:26:30*
%MOMM*%
%LPD*%
G01*
G04 APERTURE LIST*
%TA.AperFunction,ComponentPad*%
%ADD10O,3.500000X1.900000*%
%TD*%
%TA.AperFunction,ComponentPad*%
%ADD11R,1.700000X1.700000*%
%TD*%
%TA.AperFunction,ComponentPad*%
%ADD12O,1.700000X1.700000*%
%TD*%
%TA.AperFunction,ViaPad*%
%ADD13C,0.600000*%
%TD*%
%TA.AperFunction,Conductor*%
%ADD14C,0.152400*%
%TD*%
G04 APERTURE END LIST*
D10*
%TO.P,J1,5*%
%TO.N,GND*%
X94700000Y-84470000D03*
X94700000Y-95870000D03*
%TD*%
D11*
%TO.P,J2,1*%
%TO.N,GND*%
X71120000Y-93980000D03*
D12*
%TO.P,J2,2*%
%TO.N,/RX*%
X71120000Y-91440000D03*
%TO.P,J2,3*%
%TO.N,/TX*%
X71120000Y-88900000D03*
%TO.P,J2,4*%
%TO.N,VDDA*%
X71120000Y-86360000D03*
%TD*%
D11*
%TO.P,J3,1*%
%TO.N,VDD*%
X77470000Y-88900000D03*
D12*
%TO.P,J3,2*%
%TO.N,VDDA*%
X77470000Y-86360000D03*
%TO.P,J3,3*%
%TO.N,/V33O*%
X77470000Y-83820000D03*
%TD*%
D13*
%TO.N,GND*%
X85090000Y-90170000D03*
X76200000Y-91440000D03*
%TO.N,VDDA*%
X74930000Y-93980000D03*
X74930000Y-83820000D03*
%TO.N,/V33O*%
X80010000Y-91440000D03*
X80010000Y-83820000D03*
%TD*%
D14*
%TO.N,VDDA*%
X74930000Y-93980000D02*
X74930000Y-83820000D01*
%TO.N,/V33O*%
X80010000Y-83820000D02*
X80010000Y-91440000D01*
%TD*%
%TA.AperFunction,Conductor*%
%TO.N,GND*%
G36*
X97224121Y-80538002D02*
G01*
X97270614Y-80591658D01*
X97282000Y-80644000D01*
X97282000Y-99696000D01*
X97261998Y-99764121D01*
X97208342Y-99810614D01*
X97156000Y-99822000D01*
X69214000Y-99822000D01*
X69145879Y-99801998D01*
X69099386Y-99748342D01*
X69088000Y-99696000D01*
X69088000Y-96142194D01*
X92466602Y-96142194D01*
X92476050Y-96203933D01*
X92478439Y-96213961D01*
X92549710Y-96432016D01*
X92553707Y-96441525D01*
X92659633Y-96645007D01*
X92665127Y-96653732D01*
X92802869Y-96837187D01*
X92809712Y-96844894D01*
X92975569Y-97003391D01*
X92983575Y-97009874D01*
X93173094Y-97139155D01*
X93182053Y-97144244D01*
X93390145Y-97240837D01*
X93399813Y-97244394D01*
X93620879Y-97305701D01*
X93630999Y-97307632D01*
X93818252Y-97327644D01*
X93824944Y-97328000D01*
X94427885Y-97328000D01*
X94443124Y-97323525D01*
X94444329Y-97322135D01*
X94446000Y-97314452D01*
X94446000Y-97309885D01*
X94954000Y-97309885D01*
X94958475Y-97325124D01*
X94959865Y-97326329D01*
X94967548Y-97328000D01*
X95558190Y-97328000D01*
X95563363Y-97327788D01*
X95733794Y-97313776D01*
X95743956Y-97312093D01*
X95966461Y-97256204D01*
X95976216Y-97252883D01*
X96186590Y-97161409D01*
X96195688Y-97156531D01*
X96388301Y-97031925D01*
X96396461Y-97025641D01*
X96566149Y-96871237D01*
X96573170Y-96863707D01*
X96715356Y-96683668D01*
X96721061Y-96675081D01*
X96831926Y-96474250D01*
X96836156Y-96464838D01*
X96912736Y-96248584D01*
X96915365Y-96238634D01*
X96932607Y-96141836D01*
X96931148Y-96128540D01*
X96916592Y-96124000D01*
X94972115Y-96124000D01*
X94956876Y-96128475D01*
X94955671Y-96129865D01*
X94954000Y-96137548D01*
X94954000Y-97309885D01*
X94446000Y-97309885D01*
X94446000Y-96142115D01*
X94441525Y-96126876D01*
X94440135Y-96125671D01*
X94432452Y-96124000D01*
X92481933Y-96124000D01*
X92468589Y-96127918D01*
X92466602Y-96142194D01*
X69088000Y-96142194D01*
X69088000Y-95598164D01*
X92467393Y-95598164D01*
X92468852Y-95611460D01*
X92483408Y-95616000D01*
X94427885Y-95616000D01*
X94443124Y-95611525D01*
X94444329Y-95610135D01*
X94446000Y-95602452D01*
X94446000Y-95597885D01*
X94954000Y-95597885D01*
X94958475Y-95613124D01*
X94959865Y-95614329D01*
X94967548Y-95616000D01*
X96918067Y-95616000D01*
X96931411Y-95612082D01*
X96933398Y-95597806D01*
X96923950Y-95536067D01*
X96921561Y-95526039D01*
X96850290Y-95307984D01*
X96846293Y-95298475D01*
X96740367Y-95094993D01*
X96734873Y-95086268D01*
X96597131Y-94902813D01*
X96590288Y-94895106D01*
X96424431Y-94736609D01*
X96416425Y-94730126D01*
X96226906Y-94600845D01*
X96217947Y-94595756D01*
X96009855Y-94499163D01*
X96000187Y-94495606D01*
X95779121Y-94434299D01*
X95769001Y-94432368D01*
X95581748Y-94412356D01*
X95575056Y-94412000D01*
X94972115Y-94412000D01*
X94956876Y-94416475D01*
X94955671Y-94417865D01*
X94954000Y-94425548D01*
X94954000Y-95597885D01*
X94446000Y-95597885D01*
X94446000Y-94430115D01*
X94441525Y-94414876D01*
X94440135Y-94413671D01*
X94432452Y-94412000D01*
X93841810Y-94412000D01*
X93836637Y-94412212D01*
X93666206Y-94426224D01*
X93656044Y-94427907D01*
X93433539Y-94483796D01*
X93423784Y-94487117D01*
X93213410Y-94578591D01*
X93204312Y-94583469D01*
X93011699Y-94708075D01*
X93003539Y-94714359D01*
X92833851Y-94868763D01*
X92826830Y-94876293D01*
X92684644Y-95056332D01*
X92678939Y-95064919D01*
X92568074Y-95265750D01*
X92563844Y-95275162D01*
X92487264Y-95491416D01*
X92484635Y-95501366D01*
X92467393Y-95598164D01*
X69088000Y-95598164D01*
X69088000Y-94874669D01*
X69762001Y-94874669D01*
X69762371Y-94881490D01*
X69767895Y-94932352D01*
X69771521Y-94947604D01*
X69816676Y-95068054D01*
X69825214Y-95083649D01*
X69901715Y-95185724D01*
X69914276Y-95198285D01*
X70016351Y-95274786D01*
X70031946Y-95283324D01*
X70152394Y-95328478D01*
X70167649Y-95332105D01*
X70218514Y-95337631D01*
X70225328Y-95338000D01*
X70847885Y-95338000D01*
X70863124Y-95333525D01*
X70864329Y-95332135D01*
X70866000Y-95324452D01*
X70866000Y-95319884D01*
X71374000Y-95319884D01*
X71378475Y-95335123D01*
X71379865Y-95336328D01*
X71387548Y-95337999D01*
X72014669Y-95337999D01*
X72021490Y-95337629D01*
X72072352Y-95332105D01*
X72087604Y-95328479D01*
X72208054Y-95283324D01*
X72223649Y-95274786D01*
X72325724Y-95198285D01*
X72338285Y-95185724D01*
X72414786Y-95083649D01*
X72423324Y-95068054D01*
X72468478Y-94947606D01*
X72472105Y-94932351D01*
X72477631Y-94881486D01*
X72478000Y-94874672D01*
X72478000Y-94252115D01*
X72473525Y-94236876D01*
X72472135Y-94235671D01*
X72464452Y-94234000D01*
X71392115Y-94234000D01*
X71376876Y-94238475D01*
X71375671Y-94239865D01*
X71374000Y-94247548D01*
X71374000Y-95319884D01*
X70866000Y-95319884D01*
X70866000Y-94252115D01*
X70861525Y-94236876D01*
X70860135Y-94235671D01*
X70852452Y-94234000D01*
X69780116Y-94234000D01*
X69764877Y-94238475D01*
X69763672Y-94239865D01*
X69762001Y-94247548D01*
X69762001Y-94874669D01*
X69088000Y-94874669D01*
X69088000Y-93968640D01*
X74116463Y-93968640D01*
X74134163Y-94149160D01*
X74191418Y-94321273D01*
X74195065Y-94327295D01*
X74195066Y-94327297D01*
X74257335Y-94430115D01*
X74285380Y-94476424D01*
X74411382Y-94606902D01*
X74563159Y-94706222D01*
X74569763Y-94708678D01*
X74569765Y-94708679D01*
X74726558Y-94766990D01*
X74726560Y-94766990D01*
X74733168Y-94769448D01*
X74816995Y-94780633D01*
X74905980Y-94792507D01*
X74905984Y-94792507D01*
X74912961Y-94793438D01*
X74919972Y-94792800D01*
X74919976Y-94792800D01*
X75062459Y-94779832D01*
X75093600Y-94776998D01*
X75100302Y-94774820D01*
X75100304Y-94774820D01*
X75259409Y-94723124D01*
X75259412Y-94723123D01*
X75266108Y-94720947D01*
X75421912Y-94628069D01*
X75553266Y-94502982D01*
X75653643Y-94351902D01*
X75697338Y-94236876D01*
X75715555Y-94188920D01*
X75715556Y-94188918D01*
X75718055Y-94182338D01*
X75719035Y-94175366D01*
X75742748Y-94006639D01*
X75742748Y-94006636D01*
X75743299Y-94002717D01*
X75743616Y-93980000D01*
X75723397Y-93799745D01*
X75721080Y-93793091D01*
X75666064Y-93635106D01*
X75666062Y-93635103D01*
X75663745Y-93628448D01*
X75567626Y-93474624D01*
X75551294Y-93458178D01*
X75517487Y-93395749D01*
X75514700Y-93369394D01*
X75514700Y-92462575D01*
X93636404Y-92462575D01*
X93655218Y-92669303D01*
X93656956Y-92675209D01*
X93656957Y-92675213D01*
X93678683Y-92749030D01*
X93713827Y-92868440D01*
X93809999Y-93052400D01*
X93940071Y-93214177D01*
X93944788Y-93218135D01*
X93944790Y-93218137D01*
X94048681Y-93305312D01*
X94099089Y-93347609D01*
X94104481Y-93350573D01*
X94104485Y-93350576D01*
X94275598Y-93444646D01*
X94280995Y-93447613D01*
X94478861Y-93510379D01*
X94484978Y-93511065D01*
X94484982Y-93511066D01*
X94561598Y-93519659D01*
X94640413Y-93528500D01*
X94752237Y-93528500D01*
X94755293Y-93528200D01*
X94755300Y-93528200D01*
X94900466Y-93513966D01*
X94900469Y-93513965D01*
X94906592Y-93513365D01*
X95044619Y-93471693D01*
X95099407Y-93455152D01*
X95099410Y-93455151D01*
X95105315Y-93453368D01*
X95112635Y-93449476D01*
X95283153Y-93358809D01*
X95283155Y-93358808D01*
X95288599Y-93355913D01*
X95348471Y-93307083D01*
X95444689Y-93228610D01*
X95444692Y-93228607D01*
X95449464Y-93224715D01*
X95581783Y-93064770D01*
X95585876Y-93057201D01*
X95677584Y-92887590D01*
X95677586Y-92887585D01*
X95680514Y-92882170D01*
X95741898Y-92683871D01*
X95742808Y-92675213D01*
X95762952Y-92483554D01*
X95762952Y-92483552D01*
X95763596Y-92477425D01*
X95744782Y-92270697D01*
X95742298Y-92262255D01*
X95687912Y-92077469D01*
X95686173Y-92071560D01*
X95590001Y-91887600D01*
X95459929Y-91725823D01*
X95447371Y-91715285D01*
X95328861Y-91615844D01*
X95300911Y-91592391D01*
X95295519Y-91589427D01*
X95295515Y-91589424D01*
X95124402Y-91495354D01*
X95119005Y-91492387D01*
X94921139Y-91429621D01*
X94915022Y-91428935D01*
X94915018Y-91428934D01*
X94838402Y-91420341D01*
X94759587Y-91411500D01*
X94647763Y-91411500D01*
X94644707Y-91411800D01*
X94644700Y-91411800D01*
X94499534Y-91426034D01*
X94499531Y-91426035D01*
X94493408Y-91426635D01*
X94387013Y-91458757D01*
X94300593Y-91484848D01*
X94300590Y-91484849D01*
X94294685Y-91486632D01*
X94289240Y-91489527D01*
X94289238Y-91489528D01*
X94116847Y-91581191D01*
X94116845Y-91581192D01*
X94111401Y-91584087D01*
X94072463Y-91615844D01*
X93955311Y-91711390D01*
X93955308Y-91711393D01*
X93950536Y-91715285D01*
X93946608Y-91720033D01*
X93946607Y-91720034D01*
X93890962Y-91787297D01*
X93818217Y-91875230D01*
X93815288Y-91880647D01*
X93815286Y-91880650D01*
X93722416Y-92052410D01*
X93722414Y-92052415D01*
X93719486Y-92057830D01*
X93658102Y-92256129D01*
X93657458Y-92262254D01*
X93657458Y-92262255D01*
X93641927Y-92410031D01*
X93636404Y-92462575D01*
X75514700Y-92462575D01*
X75514700Y-91428640D01*
X79196463Y-91428640D01*
X79214163Y-91609160D01*
X79271418Y-91781273D01*
X79275065Y-91787295D01*
X79275066Y-91787297D01*
X79332904Y-91882799D01*
X79365380Y-91936424D01*
X79491382Y-92066902D01*
X79507530Y-92077469D01*
X79606262Y-92142077D01*
X79643159Y-92166222D01*
X79649763Y-92168678D01*
X79649765Y-92168679D01*
X79806558Y-92226990D01*
X79806560Y-92226990D01*
X79813168Y-92229448D01*
X79896995Y-92240633D01*
X79985980Y-92252507D01*
X79985984Y-92252507D01*
X79992961Y-92253438D01*
X79999972Y-92252800D01*
X79999976Y-92252800D01*
X80142459Y-92239832D01*
X80173600Y-92236998D01*
X80180302Y-92234820D01*
X80180304Y-92234820D01*
X80339409Y-92183124D01*
X80339412Y-92183123D01*
X80346108Y-92180947D01*
X80501912Y-92088069D01*
X80633266Y-91962982D01*
X80733643Y-91811902D01*
X80798055Y-91642338D01*
X80799829Y-91629715D01*
X80822748Y-91466639D01*
X80822748Y-91466636D01*
X80823299Y-91462717D01*
X80823616Y-91440000D01*
X80803397Y-91259745D01*
X80801080Y-91253091D01*
X80746064Y-91095106D01*
X80746062Y-91095103D01*
X80743745Y-91088448D01*
X80647626Y-90934624D01*
X80631294Y-90918178D01*
X80597487Y-90855749D01*
X80594700Y-90829394D01*
X80594700Y-87862575D01*
X93636404Y-87862575D01*
X93637765Y-87877530D01*
X93653135Y-88046411D01*
X93655218Y-88069303D01*
X93656956Y-88075209D01*
X93656957Y-88075213D01*
X93700277Y-88222401D01*
X93713827Y-88268440D01*
X93809999Y-88452400D01*
X93813859Y-88457200D01*
X93813859Y-88457201D01*
X93823762Y-88469518D01*
X93940071Y-88614177D01*
X93944788Y-88618135D01*
X93944790Y-88618137D01*
X93976292Y-88644570D01*
X94099089Y-88747609D01*
X94104481Y-88750573D01*
X94104485Y-88750576D01*
X94275598Y-88844646D01*
X94280995Y-88847613D01*
X94478861Y-88910379D01*
X94484978Y-88911065D01*
X94484982Y-88911066D01*
X94561598Y-88919659D01*
X94640413Y-88928500D01*
X94752237Y-88928500D01*
X94755293Y-88928200D01*
X94755300Y-88928200D01*
X94900466Y-88913966D01*
X94900469Y-88913965D01*
X94906592Y-88913365D01*
X95078175Y-88861562D01*
X95099407Y-88855152D01*
X95099410Y-88855151D01*
X95105315Y-88853368D01*
X95112635Y-88849476D01*
X95283153Y-88758809D01*
X95283155Y-88758808D01*
X95288599Y-88755913D01*
X95348471Y-88707083D01*
X95444689Y-88628610D01*
X95444692Y-88628607D01*
X95449464Y-88624715D01*
X95581783Y-88464770D01*
X95586550Y-88455954D01*
X95677584Y-88287590D01*
X95677586Y-88287585D01*
X95680514Y-88282170D01*
X95741898Y-88083871D01*
X95743537Y-88068277D01*
X95762952Y-87883554D01*
X95762952Y-87883552D01*
X95763596Y-87877425D01*
X95748056Y-87706669D01*
X95745341Y-87676836D01*
X95745340Y-87676833D01*
X95744782Y-87670697D01*
X95742298Y-87662255D01*
X95687912Y-87477469D01*
X95686173Y-87471560D01*
X95590001Y-87287600D01*
X95459929Y-87125823D01*
X95447371Y-87115285D01*
X95305629Y-86996350D01*
X95300911Y-86992391D01*
X95295519Y-86989427D01*
X95295515Y-86989424D01*
X95124402Y-86895354D01*
X95119005Y-86892387D01*
X94921139Y-86829621D01*
X94915022Y-86828935D01*
X94915018Y-86828934D01*
X94838402Y-86820341D01*
X94759587Y-86811500D01*
X94647763Y-86811500D01*
X94644707Y-86811800D01*
X94644700Y-86811800D01*
X94499534Y-86826034D01*
X94499531Y-86826035D01*
X94493408Y-86826635D01*
X94376898Y-86861811D01*
X94300593Y-86884848D01*
X94300590Y-86884849D01*
X94294685Y-86886632D01*
X94289240Y-86889527D01*
X94289238Y-86889528D01*
X94116847Y-86981191D01*
X94116845Y-86981192D01*
X94111401Y-86984087D01*
X94096365Y-86996350D01*
X93955311Y-87111390D01*
X93955308Y-87111393D01*
X93950536Y-87115285D01*
X93818217Y-87275230D01*
X93815288Y-87280647D01*
X93815286Y-87280650D01*
X93722416Y-87452410D01*
X93722414Y-87452415D01*
X93719486Y-87457830D01*
X93658102Y-87656129D01*
X93657458Y-87662254D01*
X93657458Y-87662255D01*
X93646702Y-87764598D01*
X93636404Y-87862575D01*
X80594700Y-87862575D01*
X80594700Y-84742194D01*
X92466602Y-84742194D01*
X92476050Y-84803933D01*
X92478439Y-84813961D01*
X92549710Y-85032016D01*
X92553707Y-85041525D01*
X92659633Y-85245007D01*
X92665127Y-85253732D01*
X92802869Y-85437187D01*
X92809712Y-85444894D01*
X92975569Y-85603391D01*
X92983575Y-85609874D01*
X93173094Y-85739155D01*
X93182053Y-85744244D01*
X93390145Y-85840837D01*
X93399813Y-85844394D01*
X93620879Y-85905701D01*
X93630999Y-85907632D01*
X93818252Y-85927644D01*
X93824944Y-85928000D01*
X94427885Y-85928000D01*
X94443124Y-85923525D01*
X94444329Y-85922135D01*
X94446000Y-85914452D01*
X94446000Y-85909885D01*
X94954000Y-85909885D01*
X94958475Y-85925124D01*
X94959865Y-85926329D01*
X94967548Y-85928000D01*
X95558190Y-85928000D01*
X95563363Y-85927788D01*
X95733794Y-85913776D01*
X95743956Y-85912093D01*
X95966461Y-85856204D01*
X95976216Y-85852883D01*
X96186590Y-85761409D01*
X96195688Y-85756531D01*
X96388301Y-85631925D01*
X96396461Y-85625641D01*
X96566149Y-85471237D01*
X96573170Y-85463707D01*
X96715356Y-85283668D01*
X96721061Y-85275081D01*
X96831926Y-85074250D01*
X96836156Y-85064838D01*
X96912736Y-84848584D01*
X96915365Y-84838634D01*
X96932607Y-84741836D01*
X96931148Y-84728540D01*
X96916592Y-84724000D01*
X94972115Y-84724000D01*
X94956876Y-84728475D01*
X94955671Y-84729865D01*
X94954000Y-84737548D01*
X94954000Y-85909885D01*
X94446000Y-85909885D01*
X94446000Y-84742115D01*
X94441525Y-84726876D01*
X94440135Y-84725671D01*
X94432452Y-84724000D01*
X92481933Y-84724000D01*
X92468589Y-84727918D01*
X92466602Y-84742194D01*
X80594700Y-84742194D01*
X80594700Y-84433582D01*
X80614702Y-84365461D01*
X80624177Y-84352592D01*
X80628163Y-84347841D01*
X80633266Y-84342982D01*
X80650624Y-84316857D01*
X80717632Y-84216000D01*
X80729482Y-84198164D01*
X92467393Y-84198164D01*
X92468852Y-84211460D01*
X92483408Y-84216000D01*
X94427885Y-84216000D01*
X94443124Y-84211525D01*
X94444329Y-84210135D01*
X94446000Y-84202452D01*
X94446000Y-84197885D01*
X94954000Y-84197885D01*
X94958475Y-84213124D01*
X94959865Y-84214329D01*
X94967548Y-84216000D01*
X96918067Y-84216000D01*
X96931411Y-84212082D01*
X96933398Y-84197806D01*
X96923950Y-84136067D01*
X96921561Y-84126039D01*
X96850290Y-83907984D01*
X96846293Y-83898475D01*
X96740367Y-83694993D01*
X96734873Y-83686268D01*
X96597131Y-83502813D01*
X96590288Y-83495106D01*
X96424431Y-83336609D01*
X96416425Y-83330126D01*
X96226906Y-83200845D01*
X96217947Y-83195756D01*
X96009855Y-83099163D01*
X96000187Y-83095606D01*
X95779121Y-83034299D01*
X95769001Y-83032368D01*
X95581748Y-83012356D01*
X95575056Y-83012000D01*
X94972115Y-83012000D01*
X94956876Y-83016475D01*
X94955671Y-83017865D01*
X94954000Y-83025548D01*
X94954000Y-84197885D01*
X94446000Y-84197885D01*
X94446000Y-83030115D01*
X94441525Y-83014876D01*
X94440135Y-83013671D01*
X94432452Y-83012000D01*
X93841810Y-83012000D01*
X93836637Y-83012212D01*
X93666206Y-83026224D01*
X93656044Y-83027907D01*
X93433539Y-83083796D01*
X93423784Y-83087117D01*
X93213410Y-83178591D01*
X93204312Y-83183469D01*
X93011699Y-83308075D01*
X93003539Y-83314359D01*
X92833851Y-83468763D01*
X92826830Y-83476293D01*
X92684644Y-83656332D01*
X92678939Y-83664919D01*
X92568074Y-83865750D01*
X92563844Y-83875162D01*
X92487264Y-84091416D01*
X92484635Y-84101366D01*
X92467393Y-84198164D01*
X80729482Y-84198164D01*
X80733643Y-84191902D01*
X80798055Y-84022338D01*
X80799829Y-84009715D01*
X80822748Y-83846639D01*
X80822748Y-83846636D01*
X80823299Y-83842717D01*
X80823616Y-83820000D01*
X80803397Y-83639745D01*
X80801080Y-83633091D01*
X80746064Y-83475106D01*
X80746062Y-83475103D01*
X80743745Y-83468448D01*
X80647626Y-83314624D01*
X80633941Y-83300843D01*
X80524778Y-83190915D01*
X80524774Y-83190912D01*
X80519815Y-83185918D01*
X80511420Y-83180590D01*
X80451243Y-83142401D01*
X80366666Y-83088727D01*
X80337463Y-83078328D01*
X80202425Y-83030243D01*
X80202420Y-83030242D01*
X80195790Y-83027881D01*
X80188802Y-83027048D01*
X80188799Y-83027047D01*
X80062609Y-83012000D01*
X80015680Y-83006404D01*
X80008677Y-83007140D01*
X80008676Y-83007140D01*
X79842288Y-83024628D01*
X79842286Y-83024629D01*
X79835288Y-83025364D01*
X79663579Y-83083818D01*
X79601109Y-83122250D01*
X79515095Y-83175166D01*
X79515092Y-83175168D01*
X79509088Y-83178862D01*
X79504053Y-83183793D01*
X79504050Y-83183795D01*
X79384525Y-83300843D01*
X79379493Y-83305771D01*
X79281235Y-83458238D01*
X79278826Y-83464858D01*
X79278824Y-83464861D01*
X79221606Y-83622066D01*
X79219197Y-83628685D01*
X79196463Y-83808640D01*
X79214163Y-83989160D01*
X79271418Y-84161273D01*
X79275065Y-84167295D01*
X79275066Y-84167297D01*
X79304562Y-84216000D01*
X79365380Y-84316424D01*
X79370270Y-84321488D01*
X79370271Y-84321489D01*
X79389938Y-84341855D01*
X79422869Y-84404752D01*
X79425300Y-84429381D01*
X79425300Y-90827948D01*
X79405298Y-90896069D01*
X79387458Y-90917971D01*
X79379493Y-90925771D01*
X79281235Y-91078238D01*
X79278826Y-91084858D01*
X79278824Y-91084861D01*
X79221606Y-91242066D01*
X79219197Y-91248685D01*
X79196463Y-91428640D01*
X75514700Y-91428640D01*
X75514700Y-86326695D01*
X76107251Y-86326695D01*
X76107548Y-86331848D01*
X76107548Y-86331851D01*
X76113011Y-86426590D01*
X76120110Y-86549715D01*
X76121247Y-86554761D01*
X76121248Y-86554767D01*
X76141119Y-86642939D01*
X76169222Y-86767639D01*
X76253266Y-86974616D01*
X76369987Y-87165088D01*
X76516250Y-87333938D01*
X76520230Y-87337242D01*
X76524981Y-87341187D01*
X76564616Y-87400090D01*
X76566113Y-87471071D01*
X76528997Y-87531593D01*
X76488725Y-87556112D01*
X76400095Y-87589338D01*
X76373295Y-87599385D01*
X76256739Y-87686739D01*
X76169385Y-87803295D01*
X76118255Y-87939684D01*
X76111500Y-88001866D01*
X76111500Y-89798134D01*
X76118255Y-89860316D01*
X76169385Y-89996705D01*
X76256739Y-90113261D01*
X76373295Y-90200615D01*
X76509684Y-90251745D01*
X76571866Y-90258500D01*
X78368134Y-90258500D01*
X78430316Y-90251745D01*
X78566705Y-90200615D01*
X78683261Y-90113261D01*
X78770615Y-89996705D01*
X78821745Y-89860316D01*
X78828500Y-89798134D01*
X78828500Y-88001866D01*
X78821745Y-87939684D01*
X78770615Y-87803295D01*
X78683261Y-87686739D01*
X78566705Y-87599385D01*
X78539905Y-87589338D01*
X78448203Y-87554960D01*
X78391439Y-87512318D01*
X78366739Y-87445756D01*
X78381947Y-87376408D01*
X78403493Y-87347727D01*
X78458351Y-87293060D01*
X78508096Y-87243489D01*
X78567594Y-87160689D01*
X78635435Y-87066277D01*
X78638453Y-87062077D01*
X78675072Y-86987985D01*
X78735136Y-86866453D01*
X78735137Y-86866451D01*
X78737430Y-86861811D01*
X78802370Y-86648069D01*
X78831529Y-86426590D01*
X78833156Y-86360000D01*
X78814852Y-86137361D01*
X78760431Y-85920702D01*
X78671354Y-85715840D01*
X78613002Y-85625641D01*
X78552822Y-85532617D01*
X78552820Y-85532614D01*
X78550014Y-85528277D01*
X78399670Y-85363051D01*
X78395619Y-85359852D01*
X78395615Y-85359848D01*
X78228414Y-85227800D01*
X78228410Y-85227798D01*
X78224359Y-85224598D01*
X78183053Y-85201796D01*
X78133084Y-85151364D01*
X78118312Y-85081921D01*
X78143428Y-85015516D01*
X78170780Y-84988909D01*
X78214603Y-84957650D01*
X78349860Y-84861173D01*
X78508096Y-84703489D01*
X78567594Y-84620689D01*
X78635435Y-84526277D01*
X78638453Y-84522077D01*
X78729869Y-84337111D01*
X78735136Y-84326453D01*
X78735137Y-84326451D01*
X78737430Y-84321811D01*
X78802370Y-84108069D01*
X78831529Y-83886590D01*
X78833156Y-83820000D01*
X78814852Y-83597361D01*
X78760431Y-83380702D01*
X78671354Y-83175840D01*
X78614212Y-83087512D01*
X78552822Y-82992617D01*
X78552820Y-82992614D01*
X78550014Y-82988277D01*
X78399670Y-82823051D01*
X78395619Y-82819852D01*
X78395615Y-82819848D01*
X78228414Y-82687800D01*
X78228410Y-82687798D01*
X78224359Y-82684598D01*
X78028789Y-82576638D01*
X78023920Y-82574914D01*
X78023916Y-82574912D01*
X77823087Y-82503795D01*
X77823083Y-82503794D01*
X77818212Y-82502069D01*
X77813119Y-82501162D01*
X77813116Y-82501161D01*
X77603373Y-82463800D01*
X77603367Y-82463799D01*
X77598284Y-82462894D01*
X77524452Y-82461992D01*
X77380081Y-82460228D01*
X77380079Y-82460228D01*
X77374911Y-82460165D01*
X77154091Y-82493955D01*
X76941756Y-82563357D01*
X76743607Y-82666507D01*
X76739474Y-82669610D01*
X76739471Y-82669612D01*
X76715247Y-82687800D01*
X76564965Y-82800635D01*
X76410629Y-82962138D01*
X76407715Y-82966410D01*
X76407714Y-82966411D01*
X76366351Y-83027047D01*
X76284743Y-83146680D01*
X76264210Y-83190915D01*
X76199591Y-83330126D01*
X76190688Y-83349305D01*
X76130989Y-83564570D01*
X76107251Y-83786695D01*
X76107548Y-83791848D01*
X76107548Y-83791851D01*
X76113011Y-83886590D01*
X76120110Y-84009715D01*
X76121247Y-84014761D01*
X76121248Y-84014767D01*
X76124438Y-84028920D01*
X76169222Y-84227639D01*
X76207330Y-84321489D01*
X76241140Y-84404752D01*
X76253266Y-84434616D01*
X76369987Y-84625088D01*
X76516250Y-84793938D01*
X76688126Y-84936632D01*
X76758595Y-84977811D01*
X76761445Y-84979476D01*
X76810169Y-85031114D01*
X76823240Y-85100897D01*
X76796509Y-85166669D01*
X76756055Y-85200027D01*
X76743607Y-85206507D01*
X76739474Y-85209610D01*
X76739471Y-85209612D01*
X76640838Y-85283668D01*
X76564965Y-85340635D01*
X76561393Y-85344373D01*
X76447355Y-85463707D01*
X76410629Y-85502138D01*
X76284743Y-85686680D01*
X76190688Y-85889305D01*
X76130989Y-86104570D01*
X76107251Y-86326695D01*
X75514700Y-86326695D01*
X75514700Y-84433582D01*
X75534702Y-84365461D01*
X75544177Y-84352592D01*
X75548163Y-84347841D01*
X75553266Y-84342982D01*
X75570624Y-84316857D01*
X75637632Y-84216000D01*
X75653643Y-84191902D01*
X75718055Y-84022338D01*
X75719829Y-84009715D01*
X75742748Y-83846639D01*
X75742748Y-83846636D01*
X75743299Y-83842717D01*
X75743616Y-83820000D01*
X75723397Y-83639745D01*
X75721080Y-83633091D01*
X75666064Y-83475106D01*
X75666062Y-83475103D01*
X75663745Y-83468448D01*
X75567626Y-83314624D01*
X75553941Y-83300843D01*
X75444778Y-83190915D01*
X75444774Y-83190912D01*
X75439815Y-83185918D01*
X75431420Y-83180590D01*
X75371243Y-83142401D01*
X75286666Y-83088727D01*
X75257463Y-83078328D01*
X75122425Y-83030243D01*
X75122420Y-83030242D01*
X75115790Y-83027881D01*
X75108802Y-83027048D01*
X75108799Y-83027047D01*
X74982609Y-83012000D01*
X74935680Y-83006404D01*
X74928677Y-83007140D01*
X74928676Y-83007140D01*
X74762288Y-83024628D01*
X74762286Y-83024629D01*
X74755288Y-83025364D01*
X74583579Y-83083818D01*
X74521109Y-83122250D01*
X74435095Y-83175166D01*
X74435092Y-83175168D01*
X74429088Y-83178862D01*
X74424053Y-83183793D01*
X74424050Y-83183795D01*
X74304525Y-83300843D01*
X74299493Y-83305771D01*
X74201235Y-83458238D01*
X74198826Y-83464858D01*
X74198824Y-83464861D01*
X74141606Y-83622066D01*
X74139197Y-83628685D01*
X74116463Y-83808640D01*
X74134163Y-83989160D01*
X74191418Y-84161273D01*
X74195065Y-84167295D01*
X74195066Y-84167297D01*
X74224562Y-84216000D01*
X74285380Y-84316424D01*
X74290270Y-84321488D01*
X74290271Y-84321489D01*
X74309938Y-84341855D01*
X74342869Y-84404752D01*
X74345300Y-84429381D01*
X74345300Y-93367948D01*
X74325298Y-93436069D01*
X74307458Y-93457971D01*
X74299493Y-93465771D01*
X74201235Y-93618238D01*
X74198826Y-93624858D01*
X74198824Y-93624861D01*
X74141606Y-93782066D01*
X74139197Y-93788685D01*
X74116463Y-93968640D01*
X69088000Y-93968640D01*
X69088000Y-91406695D01*
X69757251Y-91406695D01*
X69757548Y-91411848D01*
X69757548Y-91411851D01*
X69763011Y-91506590D01*
X69770110Y-91629715D01*
X69771247Y-91634761D01*
X69771248Y-91634767D01*
X69790877Y-91721863D01*
X69819222Y-91847639D01*
X69903266Y-92054616D01*
X69905965Y-92059020D01*
X70008897Y-92226990D01*
X70019987Y-92245088D01*
X70166250Y-92413938D01*
X70170225Y-92417238D01*
X70170231Y-92417244D01*
X70175425Y-92421556D01*
X70215059Y-92480460D01*
X70216555Y-92551441D01*
X70179439Y-92611962D01*
X70139168Y-92636480D01*
X70031946Y-92676676D01*
X70016351Y-92685214D01*
X69914276Y-92761715D01*
X69901715Y-92774276D01*
X69825214Y-92876351D01*
X69816676Y-92891946D01*
X69771522Y-93012394D01*
X69767895Y-93027649D01*
X69762369Y-93078514D01*
X69762000Y-93085328D01*
X69762000Y-93707885D01*
X69766475Y-93723124D01*
X69767865Y-93724329D01*
X69775548Y-93726000D01*
X72459884Y-93726000D01*
X72475123Y-93721525D01*
X72476328Y-93720135D01*
X72477999Y-93712452D01*
X72477999Y-93085331D01*
X72477629Y-93078510D01*
X72472105Y-93027648D01*
X72468479Y-93012396D01*
X72423324Y-92891946D01*
X72414786Y-92876351D01*
X72338285Y-92774276D01*
X72325724Y-92761715D01*
X72223649Y-92685214D01*
X72208054Y-92676676D01*
X72097813Y-92635348D01*
X72041049Y-92592706D01*
X72016349Y-92526145D01*
X72031557Y-92456796D01*
X72053104Y-92428115D01*
X72154430Y-92327144D01*
X72154440Y-92327132D01*
X72158096Y-92323489D01*
X72191620Y-92276836D01*
X72285435Y-92146277D01*
X72288453Y-92142077D01*
X72315146Y-92088069D01*
X72385136Y-91946453D01*
X72385137Y-91946451D01*
X72387430Y-91941811D01*
X72452370Y-91728069D01*
X72481529Y-91506590D01*
X72483156Y-91440000D01*
X72464852Y-91217361D01*
X72410431Y-91000702D01*
X72321354Y-90795840D01*
X72200014Y-90608277D01*
X72049670Y-90443051D01*
X72045619Y-90439852D01*
X72045615Y-90439848D01*
X71878414Y-90307800D01*
X71878410Y-90307798D01*
X71874359Y-90304598D01*
X71833053Y-90281796D01*
X71783084Y-90231364D01*
X71768312Y-90161921D01*
X71793428Y-90095516D01*
X71820780Y-90068909D01*
X71864603Y-90037650D01*
X71999860Y-89941173D01*
X72158096Y-89783489D01*
X72217594Y-89700689D01*
X72285435Y-89606277D01*
X72288453Y-89602077D01*
X72387430Y-89401811D01*
X72452370Y-89188069D01*
X72481529Y-88966590D01*
X72482815Y-88913966D01*
X72483074Y-88903365D01*
X72483074Y-88903361D01*
X72483156Y-88900000D01*
X72464852Y-88677361D01*
X72410431Y-88460702D01*
X72321354Y-88255840D01*
X72281906Y-88194862D01*
X72202822Y-88072617D01*
X72202820Y-88072614D01*
X72200014Y-88068277D01*
X72049670Y-87903051D01*
X72045619Y-87899852D01*
X72045615Y-87899848D01*
X71878414Y-87767800D01*
X71878410Y-87767798D01*
X71874359Y-87764598D01*
X71833053Y-87741796D01*
X71783084Y-87691364D01*
X71768312Y-87621921D01*
X71793428Y-87555516D01*
X71820780Y-87528909D01*
X71864603Y-87497650D01*
X71999860Y-87401173D01*
X72158096Y-87243489D01*
X72217594Y-87160689D01*
X72285435Y-87066277D01*
X72288453Y-87062077D01*
X72325072Y-86987985D01*
X72385136Y-86866453D01*
X72385137Y-86866451D01*
X72387430Y-86861811D01*
X72452370Y-86648069D01*
X72481529Y-86426590D01*
X72483156Y-86360000D01*
X72464852Y-86137361D01*
X72410431Y-85920702D01*
X72321354Y-85715840D01*
X72263002Y-85625641D01*
X72202822Y-85532617D01*
X72202820Y-85532614D01*
X72200014Y-85528277D01*
X72049670Y-85363051D01*
X72045619Y-85359852D01*
X72045615Y-85359848D01*
X71878414Y-85227800D01*
X71878410Y-85227798D01*
X71874359Y-85224598D01*
X71678789Y-85116638D01*
X71673920Y-85114914D01*
X71673916Y-85114912D01*
X71473087Y-85043795D01*
X71473083Y-85043794D01*
X71468212Y-85042069D01*
X71463119Y-85041162D01*
X71463116Y-85041161D01*
X71253373Y-85003800D01*
X71253367Y-85003799D01*
X71248284Y-85002894D01*
X71174452Y-85001992D01*
X71030081Y-85000228D01*
X71030079Y-85000228D01*
X71024911Y-85000165D01*
X70804091Y-85033955D01*
X70591756Y-85103357D01*
X70393607Y-85206507D01*
X70389474Y-85209610D01*
X70389471Y-85209612D01*
X70290838Y-85283668D01*
X70214965Y-85340635D01*
X70211393Y-85344373D01*
X70097355Y-85463707D01*
X70060629Y-85502138D01*
X69934743Y-85686680D01*
X69840688Y-85889305D01*
X69780989Y-86104570D01*
X69757251Y-86326695D01*
X69757548Y-86331848D01*
X69757548Y-86331851D01*
X69763011Y-86426590D01*
X69770110Y-86549715D01*
X69771247Y-86554761D01*
X69771248Y-86554767D01*
X69791119Y-86642939D01*
X69819222Y-86767639D01*
X69903266Y-86974616D01*
X70019987Y-87165088D01*
X70166250Y-87333938D01*
X70338126Y-87476632D01*
X70399196Y-87512318D01*
X70411445Y-87519476D01*
X70460169Y-87571114D01*
X70473240Y-87640897D01*
X70446509Y-87706669D01*
X70406055Y-87740027D01*
X70393607Y-87746507D01*
X70389474Y-87749610D01*
X70389471Y-87749612D01*
X70227418Y-87871285D01*
X70214965Y-87880635D01*
X70060629Y-88042138D01*
X70057715Y-88046410D01*
X70057714Y-88046411D01*
X70032161Y-88083871D01*
X69934743Y-88226680D01*
X69840688Y-88429305D01*
X69780989Y-88644570D01*
X69757251Y-88866695D01*
X69757548Y-88871848D01*
X69757548Y-88871851D01*
X69763011Y-88966590D01*
X69770110Y-89089715D01*
X69771247Y-89094761D01*
X69771248Y-89094767D01*
X69791119Y-89182939D01*
X69819222Y-89307639D01*
X69903266Y-89514616D01*
X70019987Y-89705088D01*
X70166250Y-89873938D01*
X70338126Y-90016632D01*
X70408595Y-90057811D01*
X70411445Y-90059476D01*
X70460169Y-90111114D01*
X70473240Y-90180897D01*
X70446509Y-90246669D01*
X70406055Y-90280027D01*
X70393607Y-90286507D01*
X70389474Y-90289610D01*
X70389471Y-90289612D01*
X70365247Y-90307800D01*
X70214965Y-90420635D01*
X70060629Y-90582138D01*
X69934743Y-90766680D01*
X69840688Y-90969305D01*
X69780989Y-91184570D01*
X69757251Y-91406695D01*
X69088000Y-91406695D01*
X69088000Y-80644000D01*
X69108002Y-80575879D01*
X69161658Y-80529386D01*
X69214000Y-80518000D01*
X97156000Y-80518000D01*
X97224121Y-80538002D01*
G37*
%TD.AperFunction*%
%TD*%
M02*
