%TF.GenerationSoftware,KiCad,Pcbnew,(5.1.8-0-10_14)*%
%TF.CreationDate,2020-12-28T16:55:12+08:00*%
%TF.ProjectId,HT42B534USB2UART,48543432-4235-4333-9455-534232554152,rev?*%
%TF.SameCoordinates,Original*%
%TF.FileFunction,Copper,L2,Bot*%
%TF.FilePolarity,Positive*%
%FSLAX46Y46*%
G04 Gerber Fmt 4.6, Leading zero omitted, Abs format (unit mm)*
G04 Created by KiCad (PCBNEW (5.1.8-0-10_14)) date 2020-12-28 16:55:12*
%MOMM*%
%LPD*%
G01*
G04 APERTURE LIST*
%TA.AperFunction,ComponentPad*%
%ADD10O,1.700000X1.700000*%
%TD*%
%TA.AperFunction,ComponentPad*%
%ADD11R,1.700000X1.700000*%
%TD*%
%TA.AperFunction,ComponentPad*%
%ADD12O,3.500000X1.900000*%
%TD*%
%TA.AperFunction,ViaPad*%
%ADD13C,0.600000*%
%TD*%
%TA.AperFunction,Conductor*%
%ADD14C,0.152400*%
%TD*%
%TA.AperFunction,Conductor*%
%ADD15C,0.254000*%
%TD*%
%TA.AperFunction,Conductor*%
%ADD16C,0.100000*%
%TD*%
G04 APERTURE END LIST*
D10*
%TO.P,J2,4*%
%TO.N,VDDA*%
X71120000Y-86360000D03*
%TO.P,J2,3*%
%TO.N,/TX*%
X71120000Y-88900000D03*
%TO.P,J2,2*%
%TO.N,/RX*%
X71120000Y-91440000D03*
D11*
%TO.P,J2,1*%
%TO.N,GND*%
X71120000Y-93980000D03*
%TD*%
D10*
%TO.P,J3,3*%
%TO.N,/V33O*%
X77470000Y-83820000D03*
%TO.P,J3,2*%
%TO.N,VDDA*%
X77470000Y-86360000D03*
D11*
%TO.P,J3,1*%
%TO.N,VDD*%
X77470000Y-88900000D03*
%TD*%
D12*
%TO.P,J1,5*%
%TO.N,GND*%
X94700000Y-95870000D03*
X94700000Y-84470000D03*
%TD*%
D13*
%TO.N,GND*%
X85090000Y-90170000D03*
X76200000Y-91440000D03*
%TO.N,VDDA*%
X74930000Y-93980000D03*
X74930000Y-83820000D03*
%TO.N,/V33O*%
X80010000Y-83820000D03*
X80010000Y-91440000D03*
%TD*%
D14*
%TO.N,VDDA*%
X74930000Y-93980000D02*
X74930000Y-83820000D01*
%TO.N,/V33O*%
X80010000Y-83820000D02*
X80010000Y-91440000D01*
%TD*%
D15*
%TO.N,GND*%
X97130001Y-99670000D02*
X69240000Y-99670000D01*
X69240000Y-96242588D01*
X92359414Y-96242588D01*
X92387051Y-96359221D01*
X92511564Y-96644983D01*
X92689434Y-96900962D01*
X92913825Y-97117322D01*
X93176114Y-97285748D01*
X93466222Y-97399768D01*
X93773000Y-97455000D01*
X94573000Y-97455000D01*
X94573000Y-95997000D01*
X94827000Y-95997000D01*
X94827000Y-97455000D01*
X95627000Y-97455000D01*
X95933778Y-97399768D01*
X96223886Y-97285748D01*
X96486175Y-97117322D01*
X96710566Y-96900962D01*
X96888436Y-96644983D01*
X97012949Y-96359221D01*
X97040586Y-96242588D01*
X96920584Y-95997000D01*
X94827000Y-95997000D01*
X94573000Y-95997000D01*
X92479416Y-95997000D01*
X92359414Y-96242588D01*
X69240000Y-96242588D01*
X69240000Y-95497412D01*
X92359414Y-95497412D01*
X92479416Y-95743000D01*
X94573000Y-95743000D01*
X94573000Y-94285000D01*
X94827000Y-94285000D01*
X94827000Y-95743000D01*
X96920584Y-95743000D01*
X97040586Y-95497412D01*
X97012949Y-95380779D01*
X96888436Y-95095017D01*
X96710566Y-94839038D01*
X96486175Y-94622678D01*
X96223886Y-94454252D01*
X95933778Y-94340232D01*
X95627000Y-94285000D01*
X94827000Y-94285000D01*
X94573000Y-94285000D01*
X93773000Y-94285000D01*
X93466222Y-94340232D01*
X93176114Y-94454252D01*
X92913825Y-94622678D01*
X92689434Y-94839038D01*
X92511564Y-95095017D01*
X92387051Y-95380779D01*
X92359414Y-95497412D01*
X69240000Y-95497412D01*
X69240000Y-94830000D01*
X69631928Y-94830000D01*
X69644188Y-94954482D01*
X69680498Y-95074180D01*
X69739463Y-95184494D01*
X69818815Y-95281185D01*
X69915506Y-95360537D01*
X70025820Y-95419502D01*
X70145518Y-95455812D01*
X70270000Y-95468072D01*
X70834250Y-95465000D01*
X70993000Y-95306250D01*
X70993000Y-94107000D01*
X71247000Y-94107000D01*
X71247000Y-95306250D01*
X71405750Y-95465000D01*
X71970000Y-95468072D01*
X72094482Y-95455812D01*
X72214180Y-95419502D01*
X72324494Y-95360537D01*
X72421185Y-95281185D01*
X72500537Y-95184494D01*
X72559502Y-95074180D01*
X72595812Y-94954482D01*
X72608072Y-94830000D01*
X72605000Y-94265750D01*
X72446250Y-94107000D01*
X71247000Y-94107000D01*
X70993000Y-94107000D01*
X69793750Y-94107000D01*
X69635000Y-94265750D01*
X69631928Y-94830000D01*
X69240000Y-94830000D01*
X69240000Y-93130000D01*
X69631928Y-93130000D01*
X69635000Y-93694250D01*
X69793750Y-93853000D01*
X70993000Y-93853000D01*
X70993000Y-93833000D01*
X71247000Y-93833000D01*
X71247000Y-93853000D01*
X72446250Y-93853000D01*
X72605000Y-93694250D01*
X72608072Y-93130000D01*
X72595812Y-93005518D01*
X72559502Y-92885820D01*
X72500537Y-92775506D01*
X72421185Y-92678815D01*
X72324494Y-92599463D01*
X72214180Y-92540498D01*
X72141620Y-92518487D01*
X72273475Y-92386632D01*
X72435990Y-92143411D01*
X72547932Y-91873158D01*
X72605000Y-91586260D01*
X72605000Y-91293740D01*
X72547932Y-91006842D01*
X72435990Y-90736589D01*
X72273475Y-90493368D01*
X72066632Y-90286525D01*
X71892240Y-90170000D01*
X72066632Y-90053475D01*
X72273475Y-89846632D01*
X72435990Y-89603411D01*
X72547932Y-89333158D01*
X72605000Y-89046260D01*
X72605000Y-88753740D01*
X72547932Y-88466842D01*
X72435990Y-88196589D01*
X72273475Y-87953368D01*
X72066632Y-87746525D01*
X71892240Y-87630000D01*
X72066632Y-87513475D01*
X72273475Y-87306632D01*
X72435990Y-87063411D01*
X72547932Y-86793158D01*
X72605000Y-86506260D01*
X72605000Y-86213740D01*
X72547932Y-85926842D01*
X72435990Y-85656589D01*
X72273475Y-85413368D01*
X72066632Y-85206525D01*
X71823411Y-85044010D01*
X71553158Y-84932068D01*
X71266260Y-84875000D01*
X70973740Y-84875000D01*
X70686842Y-84932068D01*
X70416589Y-85044010D01*
X70173368Y-85206525D01*
X69966525Y-85413368D01*
X69804010Y-85656589D01*
X69692068Y-85926842D01*
X69635000Y-86213740D01*
X69635000Y-86506260D01*
X69692068Y-86793158D01*
X69804010Y-87063411D01*
X69966525Y-87306632D01*
X70173368Y-87513475D01*
X70347760Y-87630000D01*
X70173368Y-87746525D01*
X69966525Y-87953368D01*
X69804010Y-88196589D01*
X69692068Y-88466842D01*
X69635000Y-88753740D01*
X69635000Y-89046260D01*
X69692068Y-89333158D01*
X69804010Y-89603411D01*
X69966525Y-89846632D01*
X70173368Y-90053475D01*
X70347760Y-90170000D01*
X70173368Y-90286525D01*
X69966525Y-90493368D01*
X69804010Y-90736589D01*
X69692068Y-91006842D01*
X69635000Y-91293740D01*
X69635000Y-91586260D01*
X69692068Y-91873158D01*
X69804010Y-92143411D01*
X69966525Y-92386632D01*
X70098380Y-92518487D01*
X70025820Y-92540498D01*
X69915506Y-92599463D01*
X69818815Y-92678815D01*
X69739463Y-92775506D01*
X69680498Y-92885820D01*
X69644188Y-93005518D01*
X69631928Y-93130000D01*
X69240000Y-93130000D01*
X69240000Y-83727911D01*
X73995000Y-83727911D01*
X73995000Y-83912089D01*
X74030932Y-84092729D01*
X74101414Y-84262889D01*
X74203738Y-84416028D01*
X74218801Y-84431091D01*
X74218800Y-93368910D01*
X74203738Y-93383972D01*
X74101414Y-93537111D01*
X74030932Y-93707271D01*
X73995000Y-93887911D01*
X73995000Y-94072089D01*
X74030932Y-94252729D01*
X74101414Y-94422889D01*
X74203738Y-94576028D01*
X74333972Y-94706262D01*
X74487111Y-94808586D01*
X74657271Y-94879068D01*
X74837911Y-94915000D01*
X75022089Y-94915000D01*
X75202729Y-94879068D01*
X75372889Y-94808586D01*
X75526028Y-94706262D01*
X75656262Y-94576028D01*
X75758586Y-94422889D01*
X75829068Y-94252729D01*
X75865000Y-94072089D01*
X75865000Y-93887911D01*
X75829068Y-93707271D01*
X75758586Y-93537111D01*
X75656262Y-93383972D01*
X75641200Y-93368910D01*
X75641200Y-88050000D01*
X75981928Y-88050000D01*
X75981928Y-89750000D01*
X75994188Y-89874482D01*
X76030498Y-89994180D01*
X76089463Y-90104494D01*
X76168815Y-90201185D01*
X76265506Y-90280537D01*
X76375820Y-90339502D01*
X76495518Y-90375812D01*
X76620000Y-90388072D01*
X78320000Y-90388072D01*
X78444482Y-90375812D01*
X78564180Y-90339502D01*
X78674494Y-90280537D01*
X78771185Y-90201185D01*
X78850537Y-90104494D01*
X78909502Y-89994180D01*
X78945812Y-89874482D01*
X78958072Y-89750000D01*
X78958072Y-88050000D01*
X78945812Y-87925518D01*
X78909502Y-87805820D01*
X78850537Y-87695506D01*
X78771185Y-87598815D01*
X78674494Y-87519463D01*
X78564180Y-87460498D01*
X78491620Y-87438487D01*
X78623475Y-87306632D01*
X78785990Y-87063411D01*
X78897932Y-86793158D01*
X78955000Y-86506260D01*
X78955000Y-86213740D01*
X78897932Y-85926842D01*
X78785990Y-85656589D01*
X78623475Y-85413368D01*
X78416632Y-85206525D01*
X78242240Y-85090000D01*
X78416632Y-84973475D01*
X78623475Y-84766632D01*
X78785990Y-84523411D01*
X78897932Y-84253158D01*
X78955000Y-83966260D01*
X78955000Y-83727911D01*
X79075000Y-83727911D01*
X79075000Y-83912089D01*
X79110932Y-84092729D01*
X79181414Y-84262889D01*
X79283738Y-84416028D01*
X79298800Y-84431090D01*
X79298801Y-90828909D01*
X79283738Y-90843972D01*
X79181414Y-90997111D01*
X79110932Y-91167271D01*
X79075000Y-91347911D01*
X79075000Y-91532089D01*
X79110932Y-91712729D01*
X79181414Y-91882889D01*
X79283738Y-92036028D01*
X79413972Y-92166262D01*
X79567111Y-92268586D01*
X79737271Y-92339068D01*
X79917911Y-92375000D01*
X80102089Y-92375000D01*
X80211241Y-92353288D01*
X93515000Y-92353288D01*
X93515000Y-92586712D01*
X93560539Y-92815652D01*
X93649866Y-93031308D01*
X93779550Y-93225394D01*
X93944606Y-93390450D01*
X94138692Y-93520134D01*
X94354348Y-93609461D01*
X94583288Y-93655000D01*
X94816712Y-93655000D01*
X95045652Y-93609461D01*
X95261308Y-93520134D01*
X95455394Y-93390450D01*
X95620450Y-93225394D01*
X95750134Y-93031308D01*
X95839461Y-92815652D01*
X95885000Y-92586712D01*
X95885000Y-92353288D01*
X95839461Y-92124348D01*
X95750134Y-91908692D01*
X95620450Y-91714606D01*
X95455394Y-91549550D01*
X95261308Y-91419866D01*
X95045652Y-91330539D01*
X94816712Y-91285000D01*
X94583288Y-91285000D01*
X94354348Y-91330539D01*
X94138692Y-91419866D01*
X93944606Y-91549550D01*
X93779550Y-91714606D01*
X93649866Y-91908692D01*
X93560539Y-92124348D01*
X93515000Y-92353288D01*
X80211241Y-92353288D01*
X80282729Y-92339068D01*
X80452889Y-92268586D01*
X80606028Y-92166262D01*
X80736262Y-92036028D01*
X80838586Y-91882889D01*
X80909068Y-91712729D01*
X80945000Y-91532089D01*
X80945000Y-91347911D01*
X80909068Y-91167271D01*
X80838586Y-90997111D01*
X80736262Y-90843972D01*
X80721200Y-90828910D01*
X80721200Y-87753288D01*
X93515000Y-87753288D01*
X93515000Y-87986712D01*
X93560539Y-88215652D01*
X93649866Y-88431308D01*
X93779550Y-88625394D01*
X93944606Y-88790450D01*
X94138692Y-88920134D01*
X94354348Y-89009461D01*
X94583288Y-89055000D01*
X94816712Y-89055000D01*
X95045652Y-89009461D01*
X95261308Y-88920134D01*
X95455394Y-88790450D01*
X95620450Y-88625394D01*
X95750134Y-88431308D01*
X95839461Y-88215652D01*
X95885000Y-87986712D01*
X95885000Y-87753288D01*
X95839461Y-87524348D01*
X95750134Y-87308692D01*
X95620450Y-87114606D01*
X95455394Y-86949550D01*
X95261308Y-86819866D01*
X95045652Y-86730539D01*
X94816712Y-86685000D01*
X94583288Y-86685000D01*
X94354348Y-86730539D01*
X94138692Y-86819866D01*
X93944606Y-86949550D01*
X93779550Y-87114606D01*
X93649866Y-87308692D01*
X93560539Y-87524348D01*
X93515000Y-87753288D01*
X80721200Y-87753288D01*
X80721200Y-84842588D01*
X92359414Y-84842588D01*
X92387051Y-84959221D01*
X92511564Y-85244983D01*
X92689434Y-85500962D01*
X92913825Y-85717322D01*
X93176114Y-85885748D01*
X93466222Y-85999768D01*
X93773000Y-86055000D01*
X94573000Y-86055000D01*
X94573000Y-84597000D01*
X94827000Y-84597000D01*
X94827000Y-86055000D01*
X95627000Y-86055000D01*
X95933778Y-85999768D01*
X96223886Y-85885748D01*
X96486175Y-85717322D01*
X96710566Y-85500962D01*
X96888436Y-85244983D01*
X97012949Y-84959221D01*
X97040586Y-84842588D01*
X96920584Y-84597000D01*
X94827000Y-84597000D01*
X94573000Y-84597000D01*
X92479416Y-84597000D01*
X92359414Y-84842588D01*
X80721200Y-84842588D01*
X80721200Y-84431090D01*
X80736262Y-84416028D01*
X80838586Y-84262889D01*
X80907128Y-84097412D01*
X92359414Y-84097412D01*
X92479416Y-84343000D01*
X94573000Y-84343000D01*
X94573000Y-82885000D01*
X94827000Y-82885000D01*
X94827000Y-84343000D01*
X96920584Y-84343000D01*
X97040586Y-84097412D01*
X97012949Y-83980779D01*
X96888436Y-83695017D01*
X96710566Y-83439038D01*
X96486175Y-83222678D01*
X96223886Y-83054252D01*
X95933778Y-82940232D01*
X95627000Y-82885000D01*
X94827000Y-82885000D01*
X94573000Y-82885000D01*
X93773000Y-82885000D01*
X93466222Y-82940232D01*
X93176114Y-83054252D01*
X92913825Y-83222678D01*
X92689434Y-83439038D01*
X92511564Y-83695017D01*
X92387051Y-83980779D01*
X92359414Y-84097412D01*
X80907128Y-84097412D01*
X80909068Y-84092729D01*
X80945000Y-83912089D01*
X80945000Y-83727911D01*
X80909068Y-83547271D01*
X80838586Y-83377111D01*
X80736262Y-83223972D01*
X80606028Y-83093738D01*
X80452889Y-82991414D01*
X80282729Y-82920932D01*
X80102089Y-82885000D01*
X79917911Y-82885000D01*
X79737271Y-82920932D01*
X79567111Y-82991414D01*
X79413972Y-83093738D01*
X79283738Y-83223972D01*
X79181414Y-83377111D01*
X79110932Y-83547271D01*
X79075000Y-83727911D01*
X78955000Y-83727911D01*
X78955000Y-83673740D01*
X78897932Y-83386842D01*
X78785990Y-83116589D01*
X78623475Y-82873368D01*
X78416632Y-82666525D01*
X78173411Y-82504010D01*
X77903158Y-82392068D01*
X77616260Y-82335000D01*
X77323740Y-82335000D01*
X77036842Y-82392068D01*
X76766589Y-82504010D01*
X76523368Y-82666525D01*
X76316525Y-82873368D01*
X76154010Y-83116589D01*
X76042068Y-83386842D01*
X75985000Y-83673740D01*
X75985000Y-83966260D01*
X76042068Y-84253158D01*
X76154010Y-84523411D01*
X76316525Y-84766632D01*
X76523368Y-84973475D01*
X76697760Y-85090000D01*
X76523368Y-85206525D01*
X76316525Y-85413368D01*
X76154010Y-85656589D01*
X76042068Y-85926842D01*
X75985000Y-86213740D01*
X75985000Y-86506260D01*
X76042068Y-86793158D01*
X76154010Y-87063411D01*
X76316525Y-87306632D01*
X76448380Y-87438487D01*
X76375820Y-87460498D01*
X76265506Y-87519463D01*
X76168815Y-87598815D01*
X76089463Y-87695506D01*
X76030498Y-87805820D01*
X75994188Y-87925518D01*
X75981928Y-88050000D01*
X75641200Y-88050000D01*
X75641200Y-84431090D01*
X75656262Y-84416028D01*
X75758586Y-84262889D01*
X75829068Y-84092729D01*
X75865000Y-83912089D01*
X75865000Y-83727911D01*
X75829068Y-83547271D01*
X75758586Y-83377111D01*
X75656262Y-83223972D01*
X75526028Y-83093738D01*
X75372889Y-82991414D01*
X75202729Y-82920932D01*
X75022089Y-82885000D01*
X74837911Y-82885000D01*
X74657271Y-82920932D01*
X74487111Y-82991414D01*
X74333972Y-83093738D01*
X74203738Y-83223972D01*
X74101414Y-83377111D01*
X74030932Y-83547271D01*
X73995000Y-83727911D01*
X69240000Y-83727911D01*
X69240000Y-80670000D01*
X97130000Y-80670000D01*
X97130001Y-99670000D01*
%TA.AperFunction,Conductor*%
D16*
G36*
X97130001Y-99670000D02*
G01*
X69240000Y-99670000D01*
X69240000Y-96242588D01*
X92359414Y-96242588D01*
X92387051Y-96359221D01*
X92511564Y-96644983D01*
X92689434Y-96900962D01*
X92913825Y-97117322D01*
X93176114Y-97285748D01*
X93466222Y-97399768D01*
X93773000Y-97455000D01*
X94573000Y-97455000D01*
X94573000Y-95997000D01*
X94827000Y-95997000D01*
X94827000Y-97455000D01*
X95627000Y-97455000D01*
X95933778Y-97399768D01*
X96223886Y-97285748D01*
X96486175Y-97117322D01*
X96710566Y-96900962D01*
X96888436Y-96644983D01*
X97012949Y-96359221D01*
X97040586Y-96242588D01*
X96920584Y-95997000D01*
X94827000Y-95997000D01*
X94573000Y-95997000D01*
X92479416Y-95997000D01*
X92359414Y-96242588D01*
X69240000Y-96242588D01*
X69240000Y-95497412D01*
X92359414Y-95497412D01*
X92479416Y-95743000D01*
X94573000Y-95743000D01*
X94573000Y-94285000D01*
X94827000Y-94285000D01*
X94827000Y-95743000D01*
X96920584Y-95743000D01*
X97040586Y-95497412D01*
X97012949Y-95380779D01*
X96888436Y-95095017D01*
X96710566Y-94839038D01*
X96486175Y-94622678D01*
X96223886Y-94454252D01*
X95933778Y-94340232D01*
X95627000Y-94285000D01*
X94827000Y-94285000D01*
X94573000Y-94285000D01*
X93773000Y-94285000D01*
X93466222Y-94340232D01*
X93176114Y-94454252D01*
X92913825Y-94622678D01*
X92689434Y-94839038D01*
X92511564Y-95095017D01*
X92387051Y-95380779D01*
X92359414Y-95497412D01*
X69240000Y-95497412D01*
X69240000Y-94830000D01*
X69631928Y-94830000D01*
X69644188Y-94954482D01*
X69680498Y-95074180D01*
X69739463Y-95184494D01*
X69818815Y-95281185D01*
X69915506Y-95360537D01*
X70025820Y-95419502D01*
X70145518Y-95455812D01*
X70270000Y-95468072D01*
X70834250Y-95465000D01*
X70993000Y-95306250D01*
X70993000Y-94107000D01*
X71247000Y-94107000D01*
X71247000Y-95306250D01*
X71405750Y-95465000D01*
X71970000Y-95468072D01*
X72094482Y-95455812D01*
X72214180Y-95419502D01*
X72324494Y-95360537D01*
X72421185Y-95281185D01*
X72500537Y-95184494D01*
X72559502Y-95074180D01*
X72595812Y-94954482D01*
X72608072Y-94830000D01*
X72605000Y-94265750D01*
X72446250Y-94107000D01*
X71247000Y-94107000D01*
X70993000Y-94107000D01*
X69793750Y-94107000D01*
X69635000Y-94265750D01*
X69631928Y-94830000D01*
X69240000Y-94830000D01*
X69240000Y-93130000D01*
X69631928Y-93130000D01*
X69635000Y-93694250D01*
X69793750Y-93853000D01*
X70993000Y-93853000D01*
X70993000Y-93833000D01*
X71247000Y-93833000D01*
X71247000Y-93853000D01*
X72446250Y-93853000D01*
X72605000Y-93694250D01*
X72608072Y-93130000D01*
X72595812Y-93005518D01*
X72559502Y-92885820D01*
X72500537Y-92775506D01*
X72421185Y-92678815D01*
X72324494Y-92599463D01*
X72214180Y-92540498D01*
X72141620Y-92518487D01*
X72273475Y-92386632D01*
X72435990Y-92143411D01*
X72547932Y-91873158D01*
X72605000Y-91586260D01*
X72605000Y-91293740D01*
X72547932Y-91006842D01*
X72435990Y-90736589D01*
X72273475Y-90493368D01*
X72066632Y-90286525D01*
X71892240Y-90170000D01*
X72066632Y-90053475D01*
X72273475Y-89846632D01*
X72435990Y-89603411D01*
X72547932Y-89333158D01*
X72605000Y-89046260D01*
X72605000Y-88753740D01*
X72547932Y-88466842D01*
X72435990Y-88196589D01*
X72273475Y-87953368D01*
X72066632Y-87746525D01*
X71892240Y-87630000D01*
X72066632Y-87513475D01*
X72273475Y-87306632D01*
X72435990Y-87063411D01*
X72547932Y-86793158D01*
X72605000Y-86506260D01*
X72605000Y-86213740D01*
X72547932Y-85926842D01*
X72435990Y-85656589D01*
X72273475Y-85413368D01*
X72066632Y-85206525D01*
X71823411Y-85044010D01*
X71553158Y-84932068D01*
X71266260Y-84875000D01*
X70973740Y-84875000D01*
X70686842Y-84932068D01*
X70416589Y-85044010D01*
X70173368Y-85206525D01*
X69966525Y-85413368D01*
X69804010Y-85656589D01*
X69692068Y-85926842D01*
X69635000Y-86213740D01*
X69635000Y-86506260D01*
X69692068Y-86793158D01*
X69804010Y-87063411D01*
X69966525Y-87306632D01*
X70173368Y-87513475D01*
X70347760Y-87630000D01*
X70173368Y-87746525D01*
X69966525Y-87953368D01*
X69804010Y-88196589D01*
X69692068Y-88466842D01*
X69635000Y-88753740D01*
X69635000Y-89046260D01*
X69692068Y-89333158D01*
X69804010Y-89603411D01*
X69966525Y-89846632D01*
X70173368Y-90053475D01*
X70347760Y-90170000D01*
X70173368Y-90286525D01*
X69966525Y-90493368D01*
X69804010Y-90736589D01*
X69692068Y-91006842D01*
X69635000Y-91293740D01*
X69635000Y-91586260D01*
X69692068Y-91873158D01*
X69804010Y-92143411D01*
X69966525Y-92386632D01*
X70098380Y-92518487D01*
X70025820Y-92540498D01*
X69915506Y-92599463D01*
X69818815Y-92678815D01*
X69739463Y-92775506D01*
X69680498Y-92885820D01*
X69644188Y-93005518D01*
X69631928Y-93130000D01*
X69240000Y-93130000D01*
X69240000Y-83727911D01*
X73995000Y-83727911D01*
X73995000Y-83912089D01*
X74030932Y-84092729D01*
X74101414Y-84262889D01*
X74203738Y-84416028D01*
X74218801Y-84431091D01*
X74218800Y-93368910D01*
X74203738Y-93383972D01*
X74101414Y-93537111D01*
X74030932Y-93707271D01*
X73995000Y-93887911D01*
X73995000Y-94072089D01*
X74030932Y-94252729D01*
X74101414Y-94422889D01*
X74203738Y-94576028D01*
X74333972Y-94706262D01*
X74487111Y-94808586D01*
X74657271Y-94879068D01*
X74837911Y-94915000D01*
X75022089Y-94915000D01*
X75202729Y-94879068D01*
X75372889Y-94808586D01*
X75526028Y-94706262D01*
X75656262Y-94576028D01*
X75758586Y-94422889D01*
X75829068Y-94252729D01*
X75865000Y-94072089D01*
X75865000Y-93887911D01*
X75829068Y-93707271D01*
X75758586Y-93537111D01*
X75656262Y-93383972D01*
X75641200Y-93368910D01*
X75641200Y-88050000D01*
X75981928Y-88050000D01*
X75981928Y-89750000D01*
X75994188Y-89874482D01*
X76030498Y-89994180D01*
X76089463Y-90104494D01*
X76168815Y-90201185D01*
X76265506Y-90280537D01*
X76375820Y-90339502D01*
X76495518Y-90375812D01*
X76620000Y-90388072D01*
X78320000Y-90388072D01*
X78444482Y-90375812D01*
X78564180Y-90339502D01*
X78674494Y-90280537D01*
X78771185Y-90201185D01*
X78850537Y-90104494D01*
X78909502Y-89994180D01*
X78945812Y-89874482D01*
X78958072Y-89750000D01*
X78958072Y-88050000D01*
X78945812Y-87925518D01*
X78909502Y-87805820D01*
X78850537Y-87695506D01*
X78771185Y-87598815D01*
X78674494Y-87519463D01*
X78564180Y-87460498D01*
X78491620Y-87438487D01*
X78623475Y-87306632D01*
X78785990Y-87063411D01*
X78897932Y-86793158D01*
X78955000Y-86506260D01*
X78955000Y-86213740D01*
X78897932Y-85926842D01*
X78785990Y-85656589D01*
X78623475Y-85413368D01*
X78416632Y-85206525D01*
X78242240Y-85090000D01*
X78416632Y-84973475D01*
X78623475Y-84766632D01*
X78785990Y-84523411D01*
X78897932Y-84253158D01*
X78955000Y-83966260D01*
X78955000Y-83727911D01*
X79075000Y-83727911D01*
X79075000Y-83912089D01*
X79110932Y-84092729D01*
X79181414Y-84262889D01*
X79283738Y-84416028D01*
X79298800Y-84431090D01*
X79298801Y-90828909D01*
X79283738Y-90843972D01*
X79181414Y-90997111D01*
X79110932Y-91167271D01*
X79075000Y-91347911D01*
X79075000Y-91532089D01*
X79110932Y-91712729D01*
X79181414Y-91882889D01*
X79283738Y-92036028D01*
X79413972Y-92166262D01*
X79567111Y-92268586D01*
X79737271Y-92339068D01*
X79917911Y-92375000D01*
X80102089Y-92375000D01*
X80211241Y-92353288D01*
X93515000Y-92353288D01*
X93515000Y-92586712D01*
X93560539Y-92815652D01*
X93649866Y-93031308D01*
X93779550Y-93225394D01*
X93944606Y-93390450D01*
X94138692Y-93520134D01*
X94354348Y-93609461D01*
X94583288Y-93655000D01*
X94816712Y-93655000D01*
X95045652Y-93609461D01*
X95261308Y-93520134D01*
X95455394Y-93390450D01*
X95620450Y-93225394D01*
X95750134Y-93031308D01*
X95839461Y-92815652D01*
X95885000Y-92586712D01*
X95885000Y-92353288D01*
X95839461Y-92124348D01*
X95750134Y-91908692D01*
X95620450Y-91714606D01*
X95455394Y-91549550D01*
X95261308Y-91419866D01*
X95045652Y-91330539D01*
X94816712Y-91285000D01*
X94583288Y-91285000D01*
X94354348Y-91330539D01*
X94138692Y-91419866D01*
X93944606Y-91549550D01*
X93779550Y-91714606D01*
X93649866Y-91908692D01*
X93560539Y-92124348D01*
X93515000Y-92353288D01*
X80211241Y-92353288D01*
X80282729Y-92339068D01*
X80452889Y-92268586D01*
X80606028Y-92166262D01*
X80736262Y-92036028D01*
X80838586Y-91882889D01*
X80909068Y-91712729D01*
X80945000Y-91532089D01*
X80945000Y-91347911D01*
X80909068Y-91167271D01*
X80838586Y-90997111D01*
X80736262Y-90843972D01*
X80721200Y-90828910D01*
X80721200Y-87753288D01*
X93515000Y-87753288D01*
X93515000Y-87986712D01*
X93560539Y-88215652D01*
X93649866Y-88431308D01*
X93779550Y-88625394D01*
X93944606Y-88790450D01*
X94138692Y-88920134D01*
X94354348Y-89009461D01*
X94583288Y-89055000D01*
X94816712Y-89055000D01*
X95045652Y-89009461D01*
X95261308Y-88920134D01*
X95455394Y-88790450D01*
X95620450Y-88625394D01*
X95750134Y-88431308D01*
X95839461Y-88215652D01*
X95885000Y-87986712D01*
X95885000Y-87753288D01*
X95839461Y-87524348D01*
X95750134Y-87308692D01*
X95620450Y-87114606D01*
X95455394Y-86949550D01*
X95261308Y-86819866D01*
X95045652Y-86730539D01*
X94816712Y-86685000D01*
X94583288Y-86685000D01*
X94354348Y-86730539D01*
X94138692Y-86819866D01*
X93944606Y-86949550D01*
X93779550Y-87114606D01*
X93649866Y-87308692D01*
X93560539Y-87524348D01*
X93515000Y-87753288D01*
X80721200Y-87753288D01*
X80721200Y-84842588D01*
X92359414Y-84842588D01*
X92387051Y-84959221D01*
X92511564Y-85244983D01*
X92689434Y-85500962D01*
X92913825Y-85717322D01*
X93176114Y-85885748D01*
X93466222Y-85999768D01*
X93773000Y-86055000D01*
X94573000Y-86055000D01*
X94573000Y-84597000D01*
X94827000Y-84597000D01*
X94827000Y-86055000D01*
X95627000Y-86055000D01*
X95933778Y-85999768D01*
X96223886Y-85885748D01*
X96486175Y-85717322D01*
X96710566Y-85500962D01*
X96888436Y-85244983D01*
X97012949Y-84959221D01*
X97040586Y-84842588D01*
X96920584Y-84597000D01*
X94827000Y-84597000D01*
X94573000Y-84597000D01*
X92479416Y-84597000D01*
X92359414Y-84842588D01*
X80721200Y-84842588D01*
X80721200Y-84431090D01*
X80736262Y-84416028D01*
X80838586Y-84262889D01*
X80907128Y-84097412D01*
X92359414Y-84097412D01*
X92479416Y-84343000D01*
X94573000Y-84343000D01*
X94573000Y-82885000D01*
X94827000Y-82885000D01*
X94827000Y-84343000D01*
X96920584Y-84343000D01*
X97040586Y-84097412D01*
X97012949Y-83980779D01*
X96888436Y-83695017D01*
X96710566Y-83439038D01*
X96486175Y-83222678D01*
X96223886Y-83054252D01*
X95933778Y-82940232D01*
X95627000Y-82885000D01*
X94827000Y-82885000D01*
X94573000Y-82885000D01*
X93773000Y-82885000D01*
X93466222Y-82940232D01*
X93176114Y-83054252D01*
X92913825Y-83222678D01*
X92689434Y-83439038D01*
X92511564Y-83695017D01*
X92387051Y-83980779D01*
X92359414Y-84097412D01*
X80907128Y-84097412D01*
X80909068Y-84092729D01*
X80945000Y-83912089D01*
X80945000Y-83727911D01*
X80909068Y-83547271D01*
X80838586Y-83377111D01*
X80736262Y-83223972D01*
X80606028Y-83093738D01*
X80452889Y-82991414D01*
X80282729Y-82920932D01*
X80102089Y-82885000D01*
X79917911Y-82885000D01*
X79737271Y-82920932D01*
X79567111Y-82991414D01*
X79413972Y-83093738D01*
X79283738Y-83223972D01*
X79181414Y-83377111D01*
X79110932Y-83547271D01*
X79075000Y-83727911D01*
X78955000Y-83727911D01*
X78955000Y-83673740D01*
X78897932Y-83386842D01*
X78785990Y-83116589D01*
X78623475Y-82873368D01*
X78416632Y-82666525D01*
X78173411Y-82504010D01*
X77903158Y-82392068D01*
X77616260Y-82335000D01*
X77323740Y-82335000D01*
X77036842Y-82392068D01*
X76766589Y-82504010D01*
X76523368Y-82666525D01*
X76316525Y-82873368D01*
X76154010Y-83116589D01*
X76042068Y-83386842D01*
X75985000Y-83673740D01*
X75985000Y-83966260D01*
X76042068Y-84253158D01*
X76154010Y-84523411D01*
X76316525Y-84766632D01*
X76523368Y-84973475D01*
X76697760Y-85090000D01*
X76523368Y-85206525D01*
X76316525Y-85413368D01*
X76154010Y-85656589D01*
X76042068Y-85926842D01*
X75985000Y-86213740D01*
X75985000Y-86506260D01*
X76042068Y-86793158D01*
X76154010Y-87063411D01*
X76316525Y-87306632D01*
X76448380Y-87438487D01*
X76375820Y-87460498D01*
X76265506Y-87519463D01*
X76168815Y-87598815D01*
X76089463Y-87695506D01*
X76030498Y-87805820D01*
X75994188Y-87925518D01*
X75981928Y-88050000D01*
X75641200Y-88050000D01*
X75641200Y-84431090D01*
X75656262Y-84416028D01*
X75758586Y-84262889D01*
X75829068Y-84092729D01*
X75865000Y-83912089D01*
X75865000Y-83727911D01*
X75829068Y-83547271D01*
X75758586Y-83377111D01*
X75656262Y-83223972D01*
X75526028Y-83093738D01*
X75372889Y-82991414D01*
X75202729Y-82920932D01*
X75022089Y-82885000D01*
X74837911Y-82885000D01*
X74657271Y-82920932D01*
X74487111Y-82991414D01*
X74333972Y-83093738D01*
X74203738Y-83223972D01*
X74101414Y-83377111D01*
X74030932Y-83547271D01*
X73995000Y-83727911D01*
X69240000Y-83727911D01*
X69240000Y-80670000D01*
X97130000Y-80670000D01*
X97130001Y-99670000D01*
G37*
%TD.AperFunction*%
%TD*%
M02*
