%TF.GenerationSoftware,KiCad,Pcbnew,(5.1.8-0-10_14)*%
%TF.CreationDate,2020-12-28T11:39:27+08:00*%
%TF.ProjectId,HT42B534USB2UART,48543432-4235-4333-9455-534232554152,rev?*%
%TF.SameCoordinates,Original*%
%TF.FileFunction,Legend,Bot*%
%TF.FilePolarity,Positive*%
%FSLAX46Y46*%
G04 Gerber Fmt 4.6, Leading zero omitted, Abs format (unit mm)*
G04 Created by KiCad (PCBNEW (5.1.8-0-10_14)) date 2020-12-28 11:39:27*
%MOMM*%
%LPD*%
G01*
G04 APERTURE LIST*
%ADD10C,0.200000*%
G04 APERTURE END LIST*
D10*
X82298571Y-85538571D02*
X81798571Y-87038571D01*
X81298571Y-85538571D01*
X80798571Y-87038571D02*
X80798571Y-85538571D01*
X79798571Y-85538571D02*
X79512857Y-85538571D01*
X79370000Y-85610000D01*
X79227142Y-85752857D01*
X79155714Y-86038571D01*
X79155714Y-86538571D01*
X79227142Y-86824285D01*
X79370000Y-86967142D01*
X79512857Y-87038571D01*
X79798571Y-87038571D01*
X79941428Y-86967142D01*
X80084285Y-86824285D01*
X80155714Y-86538571D01*
X80155714Y-86038571D01*
X80084285Y-85752857D01*
X79941428Y-85610000D01*
X79798571Y-85538571D01*
X84441428Y-82998571D02*
X83941428Y-84498571D01*
X83441428Y-82998571D01*
X83084285Y-82998571D02*
X82155714Y-82998571D01*
X82655714Y-83570000D01*
X82441428Y-83570000D01*
X82298571Y-83641428D01*
X82227142Y-83712857D01*
X82155714Y-83855714D01*
X82155714Y-84212857D01*
X82227142Y-84355714D01*
X82298571Y-84427142D01*
X82441428Y-84498571D01*
X82870000Y-84498571D01*
X83012857Y-84427142D01*
X83084285Y-84355714D01*
X81655714Y-82998571D02*
X80727142Y-82998571D01*
X81227142Y-83570000D01*
X81012857Y-83570000D01*
X80870000Y-83641428D01*
X80798571Y-83712857D01*
X80727142Y-83855714D01*
X80727142Y-84212857D01*
X80798571Y-84355714D01*
X80870000Y-84427142D01*
X81012857Y-84498571D01*
X81441428Y-84498571D01*
X81584285Y-84427142D01*
X81655714Y-84355714D01*
X79798571Y-82998571D02*
X79512857Y-82998571D01*
X79370000Y-83070000D01*
X79227142Y-83212857D01*
X79155714Y-83498571D01*
X79155714Y-83998571D01*
X79227142Y-84284285D01*
X79370000Y-84427142D01*
X79512857Y-84498571D01*
X79798571Y-84498571D01*
X79941428Y-84427142D01*
X80084285Y-84284285D01*
X80155714Y-83998571D01*
X80155714Y-83498571D01*
X80084285Y-83212857D01*
X79941428Y-83070000D01*
X79798571Y-82998571D01*
X83012857Y-88078571D02*
X82512857Y-89578571D01*
X82012857Y-88078571D01*
X81512857Y-89578571D02*
X81512857Y-88078571D01*
X81155714Y-88078571D01*
X80941428Y-88150000D01*
X80798571Y-88292857D01*
X80727142Y-88435714D01*
X80655714Y-88721428D01*
X80655714Y-88935714D01*
X80727142Y-89221428D01*
X80798571Y-89364285D01*
X80941428Y-89507142D01*
X81155714Y-89578571D01*
X81512857Y-89578571D01*
X80012857Y-89578571D02*
X80012857Y-88078571D01*
X79655714Y-88078571D01*
X79441428Y-88150000D01*
X79298571Y-88292857D01*
X79227142Y-88435714D01*
X79155714Y-88721428D01*
X79155714Y-88935714D01*
X79227142Y-89221428D01*
X79298571Y-89364285D01*
X79441428Y-89507142D01*
X79655714Y-89578571D01*
X80012857Y-89578571D01*
M02*
